<svg preserveAspectRatio="none" version="1.0" xmlns="http://www.w3.org/2000/svg" viewBox="0 0 133.3 52.6"><path d="M6.1 43.6s15.8 6 63.9 6 55.7-8 55.7-8l-119.6 2z" fill="#fff"/><radialGradient id="a" cx="67.121" cy="49.826" r="49.799" fx="66.09" fy="46.232" gradientUnits="userSpaceOnUse"><stop offset="0" stop-color="#ffbd00"/><stop offset="1" stop-color="#ff772c"/></radialGradient><path d="M126 42.6C111.6 57.8 9.3 51.5 4.9 42.4c-4.6-9.6-6.4-29.6.9-35.8 7.8-6.7 111.3-8.7 121-.2 7.1 6.2 7.5 27.5-.8 36.2z" fill="url(#a)"/><radialGradient id="b" cx="-610.077" cy="591.734" r="94.346" gradientTransform="matrix(-1 0 0 1 -500.065 -546)" gradientUnits="userSpaceOnUse"><stop offset="0" stop-color="#fdcb76"/><stop offset="1" stop-color="#ff772c"/></radialGradient><path d="M119.9 42.9s-40.6 10-102 2.4c0 0 45.8 2.4 63.7 0 20.1-2.7 30-5.5 38.3-2.4z" opacity=".5" fill="url(#b)"/><radialGradient id="c" cx="68.61" cy="11.717" r="60.01" fx="8.695" fy="8.341" gradientUnits="userSpaceOnUse"><stop offset=".037" stop-color="#fdcb76"/><stop offset="1" stop-color="#ff772c"/></radialGradient><path d="M126.7 17.6c-2.1 2.7-17.8 2.7-24 1.3-6.1-1.4-17-5.5-23.1-6.8-16.9-3.8-69.4-4.7-69.4-4.7s44.6-3.9 62.4-3.9c32.1 0 42.1 3 50.4 4.9 2.9.7 3.1 2.5 3.4 3.6.2 1 1 4.6.3 5.6z" fill="url(#c)"/><radialGradient id="d" cx="13.486" cy="10.941" r="1.847" fx="13.419" fy="10.995" gradientUnits="userSpaceOnUse"><stop offset=".077" stop-color="#fdcb76"/><stop offset=".938" stop-color="#ff772c"/></radialGradient><circle cx="13.5" cy="11" r="2" fill="url(#d)"/><radialGradient id="e" cx="9.16" cy="25.528" r="4.192" fx="9.008" fy="25.652" gradientUnits="userSpaceOnUse"><stop offset=".077" stop-color="#fdcb76"/><stop offset=".938" stop-color="#ff772c" stop-opacity="0"/></radialGradient><circle cx="9.1" cy="25.6" r="4.4" fill="url(#e)"/><radialGradient id="f" cx="15.478" cy="28.59" r="3.041" fx="15.368" fy="28.68" gradientUnits="userSpaceOnUse"><stop offset=".077" stop-color="#fdcb76"/><stop offset=".938" stop-color="#ff772c" stop-opacity="0"/></radialGradient><circle cx="15.4" cy="28.6" r="3.2" fill="url(#f)"/><radialGradient id="g" cx="26.367" cy="36.812" r="3.041" fx="26.257" fy="36.902" gradientUnits="userSpaceOnUse"><stop offset=".077" stop-color="#fdcb76"/><stop offset=".938" stop-color="#ff772c" stop-opacity="0"/></radialGradient><circle cx="26.3" cy="36.8" r="3.2" fill="url(#g)"/><radialGradient id="h" cx="35.145" cy="44.257" r="3.041" fx="35.035" fy="44.346" gradientUnits="userSpaceOnUse"><stop offset=".077" stop-color="#fdcb76"/><stop offset=".938" stop-color="#ff772c" stop-opacity="0"/></radialGradient><circle cx="35.1" cy="44.3" r="3.2" fill="url(#h)"/><radialGradient id="i" cx="44.145" cy="42.923" r="3.041" fx="44.035" fy="43.013" gradientUnits="userSpaceOnUse"><stop offset=".077" stop-color="#fdcb76"/><stop offset=".938" stop-color="#ffa410" stop-opacity="0"/></radialGradient><circle cx="44.1" cy="42.9" r="3.2" fill="url(#i)"/><radialGradient id="j" cx="64.034" cy="42.145" r="3.041" fx="63.924" fy="42.235" gradientTransform="rotate(-107.56 64.004 42.17)" gradientUnits="userSpaceOnUse"><stop offset=".077" stop-color="#fdcb76"/><stop offset=".938" stop-color="#ffa410" stop-opacity="0"/></radialGradient><circle cx="64" cy="42.2" r="3.2" fill="url(#j)"/><radialGradient id="k" cx="67.06" cy="53.942" r="3.041" fx="66.95" fy="54.031" gradientTransform="rotate(-107.56 64.004 42.17)" gradientUnits="userSpaceOnUse"><stop offset=".077" stop-color="#fdcb76"/><stop offset=".938" stop-color="#ffa410" stop-opacity="0"/></radialGradient><circle cx="74.3" cy="35.7" r="3.2" fill="url(#k)"/><radialGradient id="l" cx="62.83" cy="69.152" r="3.041" fx="62.719" fy="69.241" gradientTransform="rotate(-107.56 64.004 42.17)" gradientUnits="userSpaceOnUse"><stop offset=".077" stop-color="#fdcb76"/><stop offset=".938" stop-color="#ffa410" stop-opacity="0"/></radialGradient><circle cx="90.1" cy="35.2" r="3.2" fill="url(#l)"/><radialGradient id="m" cx="58.095" cy="69.751" r="3.041" fx="57.984" fy="69.841" gradientTransform="rotate(-107.56 64.004 42.17)" gradientUnits="userSpaceOnUse"><stop offset=".077" stop-color="#fdcb76"/><stop offset=".938" stop-color="#ffa410" stop-opacity="0"/></radialGradient><circle cx="92.1" cy="39.5" r="3.2" fill="url(#m)"/><radialGradient id="n" cx="56.401" cy="85.415" r="3.041" fx="56.291" fy="85.504" gradientTransform="rotate(-107.56 64.004 42.17)" gradientUnits="userSpaceOnUse"><stop offset=".077" stop-color="#fdcb76"/><stop offset=".938" stop-color="#ffa410" stop-opacity="0"/></radialGradient><circle cx="107.6" cy="36.4" r="3.2" fill="url(#n)"/><radialGradient id="o" cx="51.377" cy="99.545" r="3.879" fx="51.236" fy="99.66" gradientTransform="rotate(-107.56 64.004 42.17)" gradientUnits="userSpaceOnUse"><stop offset=".077" stop-color="#fdcb76"/><stop offset=".938" stop-color="#ffa410" stop-opacity="0"/></radialGradient><circle cx="122.6" cy="36.9" r="4.1" fill="url(#o)"/><path d="M35.1 44.1c.2 0 .4.2.4.4s-.2.4-.4.4-.4-.2-.4-.4.2-.4.4-.4zM64 41.7c.2 0 .4.2.4.4s-.2.4-.4.4-.4-.2-.4-.4.2-.4.4-.4zM15.5 28.3c.2 0 .4.2.4.4s-.2.4-.4.4-.4-.2-.4-.4.2-.4.4-.4zm107 7.4c.7 0 1.2.5 1.3 1.1 0 .7-.5 1.2-1.1 1.3-.7 0-1.2-.5-1.3-1.1 0-.7.5-1.3 1.1-1.3zm-15 .3c.3 0 .6.2.6.5s-.2.6-.5.6-.6-.2-.6-.5.2-.6.5-.6zm-17.6-1.3c.3 0 .6.2.6.5s-.2.6-.5.6-.6-.2-.6-.5.2-.5.5-.6zm2.2 4.6c.2 0 .3.1.3.3s-.1.3-.3.3c-.2 0-.3-.1-.3-.3 0-.2.1-.3.3-.3zm-65.8-2.7c.2 0 .3.1.3.3s-.1.3-.3.3c-.2 0-.3-.1-.3-.3.1-.2.2-.3.3-.3zm-12.9-26c.1 0 .2.1.2.2s-.1.2-.2.2-.2-.1-.2-.2.1-.2.2-.2zm61 24.7c.2 0 .5.2.5.4s-.2.5-.4.5-.5-.2-.5-.4c0-.3.2-.5.4-.5zM44 42.5c.2 0 .5.2.5.4s-.2.5-.4.5-.5-.2-.5-.4c0-.3.2-.5.4-.5zM9.1 24.4c.7 0 1.2.5 1.3 1.1 0 .7-.5 1.2-1.1 1.3-.7 0-1.2-.5-1.3-1.1-.1-.7.4-1.3 1.1-1.3z" fill="#ffffab"/></svg>