<svg preserveAspectRatio="none" width="1310" height="663" fill="none" xmlns="http://www.w3.org/2000/svg"><g filter="url(#filter0_d)" clip-path="url(#clip0)"><path d="M58.31 524.696c41.968 86.951 1057.81 111.418 1144.21 20.985 78.64-82.247 46.69-376.414-20.52-435.041-91.59-79.987-994.194-23.808-1068.584 39.053-68.907 58.721-98.587 284.569-55.107 375.003z" fill="url(#paint0_radial)"/><path d="M61.712 509.548c41.779 83.847 1051.568 89.869 1137.688 2.729 78.36-79.235 47.26-341.313-19.48-397.869-91.21-77.353-990.412-23.244-1064.33 37.547-68.34 56.462-97.264 270.454-53.878 357.593z" fill="url(#paint1_linear)"/><path d="M74.285 501.826c40.834 81.4 1028.795 87.234 1113.105 2.635 76.57-76.882 46.51-331.15-18.9-385.824-89.42-75-969.245-22.49-1041.461 36.324-67.395 54.862-95.185 262.549-52.744 346.865z" fill="url(#paint2_linear)"/><g opacity=".8"><path d="M400.5 150.5c-48.932-2.786-76.504-1.193-125.5 0-42.794 1.043-109.5 5-109.5 5l92.5-37 56.5-9 166-19 283-16L958 77s53.62.586 87.5 5.5c32.49 4.711 50.68 8.676 82 18.5 9.25 2.901 14.65 4.035 23.5 8l.62.279c5.04 2.257 8.09 3.621 12.88 6.721 3.05 1.973 4.82 3.05 7.5 5.5 3.38 3.086 4.69 5.391 7.5 9 5.79 7.434 13.5 20 13.5 20s4.42 9.072 7 15c2.27 5.221 3.47 8.183 5.5 13.5 2.07 5.423 5 14 5 14s-18 13-37.5 21-196.789 30.5-349.5 30.5c-190 0-269.613-85.266-423-94z" fill="url(#paint3_linear)" fill-opacity=".8"/><path d="M400.5 150.5c-48.932-2.786-76.504-1.193-125.5 0-42.794 1.043-109.5 5-109.5 5l92.5-37 56.5-9 166-19 283-16L958 77s53.62.586 87.5 5.5c32.49 4.711 50.68 8.676 82 18.5 9.25 2.901 14.65 4.035 23.5 8l.62.279c5.04 2.257 8.09 3.621 12.88 6.721 3.05 1.973 4.82 3.05 7.5 5.5 3.38 3.086 4.69 5.391 7.5 9 5.79 7.434 13.5 20 13.5 20s4.42 9.072 7 15c2.27 5.221 3.47 8.183 5.5 13.5 2.07 5.423 5 14 5 14s-18 13-37.5 21-196.789 30.5-349.5 30.5c-190 0-269.613-85.266-423-94z" fill="url(#paint4_linear)" fill-opacity=".1"/></g><path d="M98.672 190.532c10.84-19.719 27.594-35.576 47.923-45.358 33.556-15.81 129.025-31.713 134.413-27.667 5.387 4.047-46.506 22.679-73.067 32.466-26.561 9.787-95.658 48.087-109.27 40.559zm-3.026 7.911c-6.9 1.035-24.103 54.392-23.064 63.144 1.04 8.751 21.74-18.821 24.954-33.689a60.254 60.254 0 00-1.89-29.455z" fill="#fff"/><g filter="url(#filter1_d)"><path d="M224.385 245.019a4.085 4.085 0 012.309.531 4.052 4.052 0 011.618 1.723 4.036 4.036 0 01-.61 4.472 4.078 4.078 0 01-6.297-.271 4.033 4.033 0 01-.801-2.22 3.95 3.95 0 012.252-3.854 3.975 3.975 0 011.529-.381z" fill="#FFFFAB"/></g><g filter="url(#filter2_d)"><path d="M243.953 183.385a4.068 4.068 0 013.928 2.253 4.036 4.036 0 01-.611 4.472 4.082 4.082 0 01-4.389 1.128 4.055 4.055 0 01-2.709-3.619 4.134 4.134 0 011.049-2.862 4.17 4.17 0 012.732-1.372z" fill="#FFFFAB"/></g><g filter="url(#filter3_d)"><path d="M232.422 360.3a3.98 3.98 0 012.864 1.023 3.94 3.94 0 011.295 2.741 3.946 3.946 0 01-.995 2.863 3.987 3.987 0 01-5.615.333 3.952 3.952 0 01-1.33-2.726 3.95 3.95 0 013.781-4.234z" fill="#FFFFAB"/></g><g filter="url(#filter4_d)"><path d="M167.578 170.775a11.215 11.215 0 018.081 2.787 11.11 11.11 0 013.735 7.659 11.097 11.097 0 01-2.799 8.045 11.221 11.221 0 01-7.694 3.718 11.202 11.202 0 01-8.08-2.787 11.09 11.09 0 01-.936-15.703 11.195 11.195 0 017.693-3.719z" fill="#FFFFAB"/></g><g filter="url(#filter5_d)"><path d="M996.17 461.461c2.958-.175 5.86.828 8.08 2.787a11.108 11.108 0 013.74 7.658 11.15 11.15 0 01-2.8 8.045 11.205 11.205 0 01-7.697 3.718 11.21 11.21 0 01-8.08-2.786 11.124 11.124 0 01-2.633-3.46 11.082 11.082 0 011.697-12.244 11.201 11.201 0 017.693-3.718z" fill="#FFFFAB"/></g><g filter="url(#filter6_d)"><path d="M1201.95 427.115c1.31.09 2.54.655 3.47 1.588a5.37 5.37 0 011.54 3.479 5.338 5.338 0 01-1.16 3.622 5.403 5.403 0 01-3.29 1.945 5.255 5.255 0 01-2.06-.264 5.214 5.214 0 01-3.03-2.711 5.188 5.188 0 01-.48-2.013c-.05-.699.04-1.402.26-2.067a5.293 5.293 0 014.75-3.579z" fill="#FFFFAB"/></g><g filter="url(#filter7_d)"><path d="M280.248 462.494a5.225 5.225 0 013.856 1.312c.52.466.941 1.031 1.237 1.663.296.632.461 1.316.484 2.013a5.273 5.273 0 01-2.962 5.072 5.33 5.33 0 01-5.84-.784 5.273 5.273 0 01-1.784-3.629 5.349 5.349 0 011.341-3.846 5.4 5.4 0 013.668-1.801z" fill="#FFFFAB"/></g><g filter="url(#filter8_d)"><path d="M832.552 383.539a2.668 2.668 0 011.496.342 2.623 2.623 0 01.686 4.013 2.656 2.656 0 01-4.088-.106 2.631 2.631 0 01-.425-2.449 2.632 2.632 0 011.331-1.529 2.66 2.66 0 011-.271z" fill="#FFFFAB"/></g><g filter="url(#filter9_d)"><path d="M107.841 505.878a2.65 2.65 0 012.59 1.516 2.724 2.724 0 01-.422 2.921 2.748 2.748 0 01-1.79.927 2.666 2.666 0 01-1.961-.67 2.621 2.621 0 01-.875-1.871 2.72 2.72 0 01.668-1.896 2.743 2.743 0 011.79-.927z" fill="#FFFFAB"/></g><g filter="url(#filter10_d)"><path d="M378.744 341.196a2.652 2.652 0 012.564 1.47 2.623 2.623 0 01-.407 2.917 2.653 2.653 0 01-4.107-.203 2.63 2.63 0 011.95-4.184z" fill="#FFFFAB"/></g><g filter="url(#filter11_d)"><path d="M244.708 490.068a1.898 1.898 0 011.892 1.051c.112.231.176.481.188.737a1.976 1.976 0 01-1.796 2.165 2.18 2.18 0 01-1.445-.532 2.156 2.156 0 01-.729-1.351 1.962 1.962 0 01.514-1.425 1.988 1.988 0 011.376-.645z" fill="#FFFFAB"/></g><g filter="url(#filter12_d)"><path d="M745.117 514.819a4.261 4.261 0 013.033 1.073 4.23 4.23 0 011.41 2.879 4.14 4.14 0 01-1.051 2.997 4.171 4.171 0 01-2.872 1.379 4.175 4.175 0 01-3.01-1.046 4.14 4.14 0 01-1.385-2.859 4.115 4.115 0 011.014-3.013 4.16 4.16 0 012.861-1.41z" fill="#FFFFAB"/></g><g filter="url(#filter13_d)"><path d="M427.8 525.639a4.176 4.176 0 013.01 1.047 4.14 4.14 0 011.386 2.859 4.143 4.143 0 01-1.051 2.997 4.18 4.18 0 01-2.872 1.379 4.271 4.271 0 01-3.002-1.039 4.232 4.232 0 01-1.441-2.82 4.13 4.13 0 011.048-3.045 4.164 4.164 0 012.922-1.378z" fill="#FFFFAB"/></g></g><defs><filter id="filter0_d" x="-22.069" y="11.141" width="1330.74" height="651.645" filterUnits="userSpaceOnUse" color-interpolation-filters="sRGB"><feFlood flood-opacity="0" result="BackgroundImageFix"/><feColorMatrix in="SourceAlpha" values="0 0 0 0 0 0 0 0 0 0 0 0 0 0 0 0 0 0 127 0" result="hardAlpha"/><feOffset/><feGaussianBlur stdDeviation="30"/><feComposite in2="hardAlpha" operator="out"/><feColorMatrix values="0 0 0 0 1 0 0 0 0 0.756863 0 0 0 0 0 0 0 0 1 0"/><feBlend in2="BackgroundImageFix" result="effect1_dropShadow"/><feBlend in="SourceGraphic" in2="effect1_dropShadow" result="shape"/></filter><filter id="filter1_d" x="190.594" y="215.01" width="68.135" height="68.094" filterUnits="userSpaceOnUse" color-interpolation-filters="sRGB"><feFlood flood-opacity="0" result="BackgroundImageFix"/><feColorMatrix in="SourceAlpha" values="0 0 0 0 0 0 0 0 0 0 0 0 0 0 0 0 0 0 127 0" result="hardAlpha"/><feOffset/><feGaussianBlur stdDeviation="15"/><feComposite in2="hardAlpha" operator="out"/><feColorMatrix values="0 0 0 0 1 0 0 0 0 1 0 0 0 0 0.658824 0 0 0 1 0"/><feBlend in2="BackgroundImageFix" result="effect1_dropShadow"/><feBlend in="SourceGraphic" in2="effect1_dropShadow" result="shape"/></filter><filter id="filter2_d" x="210.171" y="153.375" width="68.126" height="68.094" filterUnits="userSpaceOnUse" color-interpolation-filters="sRGB"><feFlood flood-opacity="0" result="BackgroundImageFix"/><feColorMatrix in="SourceAlpha" values="0 0 0 0 0 0 0 0 0 0 0 0 0 0 0 0 0 0 127 0" result="hardAlpha"/><feOffset/><feGaussianBlur stdDeviation="15"/><feComposite in2="hardAlpha" operator="out"/><feColorMatrix values="0 0 0 0 1 0 0 0 0 1 0 0 0 0 0.658824 0 0 0 1 0"/><feBlend in2="BackgroundImageFix" result="effect1_dropShadow"/><feBlend in="SourceGraphic" in2="effect1_dropShadow" result="shape"/></filter><filter id="filter3_d" x="198.631" y="330.295" width="67.957" height="67.963" filterUnits="userSpaceOnUse" color-interpolation-filters="sRGB"><feFlood flood-opacity="0" result="BackgroundImageFix"/><feColorMatrix in="SourceAlpha" values="0 0 0 0 0 0 0 0 0 0 0 0 0 0 0 0 0 0 127 0" result="hardAlpha"/><feOffset/><feGaussianBlur stdDeviation="15"/><feComposite in2="hardAlpha" operator="out"/><feColorMatrix values="0 0 0 0 1 0 0 0 0 1 0 0 0 0 0.658824 0 0 0 1 0"/><feBlend in2="BackgroundImageFix" result="effect1_dropShadow"/><feBlend in="SourceGraphic" in2="effect1_dropShadow" result="shape"/></filter><filter id="filter4_d" x="127.066" y="140.756" width="82.347" height="82.248" filterUnits="userSpaceOnUse" color-interpolation-filters="sRGB"><feFlood flood-opacity="0" result="BackgroundImageFix"/><feColorMatrix in="SourceAlpha" values="0 0 0 0 0 0 0 0 0 0 0 0 0 0 0 0 0 0 127 0" result="hardAlpha"/><feOffset/><feGaussianBlur stdDeviation="15"/><feComposite in2="hardAlpha" operator="out"/><feColorMatrix values="0 0 0 0 1 0 0 0 0 1 0 0 0 0 0.658824 0 0 0 1 0"/><feBlend in2="BackgroundImageFix" result="effect1_dropShadow"/><feBlend in="SourceGraphic" in2="effect1_dropShadow" result="shape"/></filter><filter id="filter5_d" x="955.658" y="431.441" width="82.347" height="82.248" filterUnits="userSpaceOnUse" color-interpolation-filters="sRGB"><feFlood flood-opacity="0" result="BackgroundImageFix"/><feColorMatrix in="SourceAlpha" values="0 0 0 0 0 0 0 0 0 0 0 0 0 0 0 0 0 0 127 0" result="hardAlpha"/><feOffset/><feGaussianBlur stdDeviation="15"/><feComposite in2="hardAlpha" operator="out"/><feColorMatrix values="0 0 0 0 1 0 0 0 0 1 0 0 0 0 0.658824 0 0 0 1 0"/><feBlend in2="BackgroundImageFix" result="effect1_dropShadow"/><feBlend in="SourceGraphic" in2="effect1_dropShadow" result="shape"/></filter><filter id="filter6_d" x="1166.92" y="397.115" width="70.043" height="70.648" filterUnits="userSpaceOnUse" color-interpolation-filters="sRGB"><feFlood flood-opacity="0" result="BackgroundImageFix"/><feColorMatrix in="SourceAlpha" values="0 0 0 0 0 0 0 0 0 0 0 0 0 0 0 0 0 0 127 0" result="hardAlpha"/><feOffset/><feGaussianBlur stdDeviation="15"/><feComposite in2="hardAlpha" operator="out"/><feColorMatrix values="0 0 0 0 1 0 0 0 0 1 0 0 0 0 0.658824 0 0 0 1 0"/><feBlend in2="BackgroundImageFix" result="effect1_dropShadow"/><feBlend in="SourceGraphic" in2="effect1_dropShadow" result="shape"/></filter><filter id="filter7_d" x="245.23" y="432.48" width="70.606" height="70.611" filterUnits="userSpaceOnUse" color-interpolation-filters="sRGB"><feFlood flood-opacity="0" result="BackgroundImageFix"/><feColorMatrix in="SourceAlpha" values="0 0 0 0 0 0 0 0 0 0 0 0 0 0 0 0 0 0 127 0" result="hardAlpha"/><feOffset/><feGaussianBlur stdDeviation="15"/><feComposite in2="hardAlpha" operator="out"/><feColorMatrix values="0 0 0 0 1 0 0 0 0 1 0 0 0 0 0.658824 0 0 0 1 0"/><feBlend in2="BackgroundImageFix" result="effect1_dropShadow"/><feBlend in="SourceGraphic" in2="effect1_dropShadow" result="shape"/></filter><filter id="filter8_d" x="800.087" y="353.533" width="65.293" height="65.269" filterUnits="userSpaceOnUse" color-interpolation-filters="sRGB"><feFlood flood-opacity="0" result="BackgroundImageFix"/><feColorMatrix in="SourceAlpha" values="0 0 0 0 0 0 0 0 0 0 0 0 0 0 0 0 0 0 127 0" result="hardAlpha"/><feOffset/><feGaussianBlur stdDeviation="15"/><feComposite in2="hardAlpha" operator="out"/><feColorMatrix values="0 0 0 0 1 0 0 0 0 1 0 0 0 0 0.658824 0 0 0 1 0"/><feBlend in2="BackgroundImageFix" result="effect1_dropShadow"/><feBlend in="SourceGraphic" in2="effect1_dropShadow" result="shape"/></filter><filter id="filter9_d" x="75.381" y="475.871" width="65.298" height="65.377" filterUnits="userSpaceOnUse" color-interpolation-filters="sRGB"><feFlood flood-opacity="0" result="BackgroundImageFix"/><feColorMatrix in="SourceAlpha" values="0 0 0 0 0 0 0 0 0 0 0 0 0 0 0 0 0 0 127 0" result="hardAlpha"/><feOffset/><feGaussianBlur stdDeviation="15"/><feComposite in2="hardAlpha" operator="out"/><feColorMatrix values="0 0 0 0 1 0 0 0 0 1 0 0 0 0 0.658824 0 0 0 1 0"/><feBlend in2="BackgroundImageFix" result="effect1_dropShadow"/><feBlend in="SourceGraphic" in2="effect1_dropShadow" result="shape"/></filter><filter id="filter10_d" x="346.284" y="311.189" width="65.293" height="65.269" filterUnits="userSpaceOnUse" color-interpolation-filters="sRGB"><feFlood flood-opacity="0" result="BackgroundImageFix"/><feColorMatrix in="SourceAlpha" values="0 0 0 0 0 0 0 0 0 0 0 0 0 0 0 0 0 0 127 0" result="hardAlpha"/><feOffset/><feGaussianBlur stdDeviation="15"/><feComposite in2="hardAlpha" operator="out"/><feColorMatrix values="0 0 0 0 1 0 0 0 0 1 0 0 0 0 0.658824 0 0 0 1 0"/><feBlend in2="BackgroundImageFix" result="effect1_dropShadow"/><feBlend in="SourceGraphic" in2="effect1_dropShadow" result="shape"/></filter><filter id="filter11_d" x="212.815" y="460.059" width="63.982" height="63.963" filterUnits="userSpaceOnUse" color-interpolation-filters="sRGB"><feFlood flood-opacity="0" result="BackgroundImageFix"/><feColorMatrix in="SourceAlpha" values="0 0 0 0 0 0 0 0 0 0 0 0 0 0 0 0 0 0 127 0" result="hardAlpha"/><feOffset/><feGaussianBlur stdDeviation="15"/><feComposite in2="hardAlpha" operator="out"/><feColorMatrix values="0 0 0 0 1 0 0 0 0 1 0 0 0 0 0.658824 0 0 0 1 0"/><feBlend in2="BackgroundImageFix" result="effect1_dropShadow"/><feBlend in="SourceGraphic" in2="effect1_dropShadow" result="shape"/></filter><filter id="filter12_d" x="711.231" y="484.814" width="68.335" height="68.34" filterUnits="userSpaceOnUse" color-interpolation-filters="sRGB"><feFlood flood-opacity="0" result="BackgroundImageFix"/><feColorMatrix in="SourceAlpha" values="0 0 0 0 0 0 0 0 0 0 0 0 0 0 0 0 0 0 127 0" result="hardAlpha"/><feOffset/><feGaussianBlur stdDeviation="15"/><feComposite in2="hardAlpha" operator="out"/><feColorMatrix values="0 0 0 0 1 0 0 0 0 1 0 0 0 0 0.658824 0 0 0 1 0"/><feBlend in2="BackgroundImageFix" result="effect1_dropShadow"/><feBlend in="SourceGraphic" in2="effect1_dropShadow" result="shape"/></filter><filter id="filter13_d" x="393.82" y="495.633" width="68.382" height="68.293" filterUnits="userSpaceOnUse" color-interpolation-filters="sRGB"><feFlood flood-opacity="0" result="BackgroundImageFix"/><feColorMatrix in="SourceAlpha" values="0 0 0 0 0 0 0 0 0 0 0 0 0 0 0 0 0 0 127 0" result="hardAlpha"/><feOffset/><feGaussianBlur stdDeviation="15"/><feComposite in2="hardAlpha" operator="out"/><feColorMatrix values="0 0 0 0 1 0 0 0 0 1 0 0 0 0 0.658824 0 0 0 1 0"/><feBlend in2="BackgroundImageFix" result="effect1_dropShadow"/><feBlend in="SourceGraphic" in2="effect1_dropShadow" result="shape"/></filter><linearGradient id="paint1_linear" x1="643.409" y1="574.856" x2="643.409" y2="76.108" gradientUnits="userSpaceOnUse"><stop stop-color="#FFF300"/><stop offset="1" stop-color="#FF9700"/></linearGradient><linearGradient id="paint2_linear" x1="643.411" y1="565.44" x2="643.411" y2="81.466" gradientUnits="userSpaceOnUse"><stop stop-color="#FC0"/><stop offset="1" stop-color="#FF9700"/></linearGradient><linearGradient id="paint3_linear" x1="777.5" y1="100.5" x2="725" y2="215" gradientUnits="userSpaceOnUse"><stop stop-color="#FFC400" stop-opacity="0"/><stop offset="1" stop-color="#FFC400"/></linearGradient><linearGradient id="paint4_linear" x1="1153" y1="156" x2="1202" y2="161" gradientUnits="userSpaceOnUse"><stop stop-color="#FFAB01"/><stop offset="1" stop-color="#FFAB01" stop-opacity=".41"/></linearGradient><radialGradient id="paint0_radial" cx="0" cy="0" r="1" gradientUnits="userSpaceOnUse" gradientTransform="matrix(467.796 0 0 465.718 662.976 565.16)"><stop stop-color="#FFBD00"/><stop offset="1" stop-color="#FF772C"/></radialGradient><clipPath id="clip0"><path fill="#fff" d="M0 0h1310v663H0z"/></clipPath></defs></svg>