<svg version="1.0" xmlns="http://www.w3.org/2000/svg" width="682.667" height="682.667" viewBox="0 0 512 512"><path d="M39 1.6c-3 .8-7.9 2.7-11 4.2C20.9 9.3 9.3 20.9 5.8 28-.4 40.6 0 25.3 0 256s-.4 215.4 5.8 228c3.5 7.1 15.1 18.7 22.2 22.2 12.6 6.2-2.7 5.8 228 5.8s215.4.4 228-5.8c7.1-3.5 18.7-15.1 22.2-22.2 6.2-12.6 5.8 2.7 5.8-228s.4-215.4-5.8-228c-3.5-7.1-15.1-18.7-22.2-22.2C471.4-.4 486.8 0 255.5.1 73.1.1 43.8.3 39 1.6zm413.9 50.7c1.9.7 4.4 2.5 5.5 4 2 2.7 2.1 4 2.1 33.1 0 27.6-.2 30.4-1.8 33-3.6 5.4-6 5.7-38.3 5.4l-29.4-.3-3.2-3.3-3.3-3.2V90.1c0-29.8.1-31.1 2.1-33.8 3.5-4.7 6.6-5.2 35.9-5.2 18.3 0 28.1.4 30.4 1.2zM281.3 156.8c30.4 8.2 56.2 30.2 68.4 58.4 6.5 14.9 7.7 21.3 7.7 40.8 0 19.5-1.2 25.9-7.7 40.8-9.9 22.8-30.1 43-52.9 52.9-14.9 6.5-21.3 7.7-40.8 7.7-19.5 0-25.9-1.2-40.8-7.7-22.8-9.9-43-30.1-52.9-52.9-6.5-14.9-7.7-21.3-7.7-40.8 0-14.8.3-18.7 2.2-25.3 10.6-38.3 40.1-66.5 78.2-74.8 11.7-2.6 35-2.1 46.3.9zm-176.8 74.9c-2.4 5.9-2.2 36.7.4 51.3 8.1 46.6 39.8 88.7 83.2 110.5 20.6 10.4 43.2 15.6 67.9 15.6 41.3 0 77-14.6 106.8-43.5 23.1-22.4 39-52 44.3-82.6 2.6-14.7 2.8-45.4.4-51.3-.7-1.6.8-1.7 26.1-1.5l26.9.3v222.4l-2.1 2.8c-1.1 1.5-3.6 3.3-5.5 4-4.9 1.7-388.9 1.7-393.8 0-1.9-.7-4.4-2.5-5.5-4-2.1-2.8-2.1-3-2.4-113-.1-60.6 0-110.7.3-111.4.3-1 6.5-1.3 27.1-1.3 25 0 26.6.1 25.9 1.7z"/></svg>