<svg preserveAspectRatio="none" xmlns="http://www.w3.org/2000/svg" width="24" height="15.273"><g data-name="Group 103"><path d="M23.25 0H.75A.752.752 0 000 .75v1.5A.752.752 0 00.75 3h22.5a.752.752 0 00.75-.75V.75a.752.752 0 00-.75-.75z"/><path data-name="grip-lines" d="M23.25 6.136H.75a.752.752 0 00-.75.75v1.5a.752.752 0 00.75.75h22.5a.752.752 0 00.75-.75v-1.5a.752.752 0 00-.75-.75zm0 6.137H.75a.752.752 0 00-.75.75v1.5a.752.752 0 00.75.75h22.5a.752.752 0 00.75-.75v-1.5a.752.752 0 00-.75-.75z"/></g></svg>