<svg version="1.0" xmlns="http://www.w3.org/2000/svg" width="682.667" height="682.667" viewBox="0 0 512 512"><path d="M205.5 84.1c-80.9 1.5-128.4 5.2-143.3 11.2-13.5 5.5-24.8 15.8-31.5 28.5C22 140.3 17.4 176.5 16.3 237c-.8 48.3 1.8 92.2 7.3 120 5.9 30.3 22.2 47.6 50.3 53.5 25.6 5.4 93.5 8.6 182.6 8.5 91 0 155.8-3 183-8.5 8.9-1.8 21.5-8.1 28.1-13.9 6.9-6.1 13.9-16.6 16.8-25.2 8-23.6 12.9-92.3 10.7-149.3-3-77.4-9.3-101.7-30.6-117.8-9.8-7.4-16.6-10.1-31.8-12.8-18.8-3.2-64-6-111.7-7-55.8-1.1-75.8-1.2-115.5-.4zM270 215.3c33.7 19.4 61.2 35.7 61.2 36.2-.1.8-121.6 71.5-122.9 71.5-.1 0-.3-32.2-.3-71.5s.2-71.5.4-71.5 27.9 15.9 61.6 35.3z"/></svg>