<svg width="83" height="87" fill="none" xmlns="http://www.w3.org/2000/svg"><path d="M36.363 2.39a.004.004 0 00.006 0 6.437 6.437 0 0110.014.003 14.359 14.359 0 0014.903 4.841 6.437 6.437 0 018.105 5.884 14.386 14.386 0 009.212 12.688 6.436 6.436 0 013.09 9.521 14.394 14.394 0 00.013 15.676 6.437 6.437 0 01-3.09 9.52 14.385 14.385 0 00-9.219 12.683 6.438 6.438 0 01-8.098 5.883 14.373 14.373 0 00-14.91 4.848 6.437 6.437 0 01-10.016 0 14.369 14.369 0 00-14.903-4.848 6.437 6.437 0 01-8.105-5.883 14.38 14.38 0 00-9.212-12.682 6.437 6.437 0 01-3.09-9.528 14.377 14.377 0 00-.02-15.669A6.437 6.437 0 014.14 25.8a14.36 14.36 0 009.212-12.676 6.438 6.438 0 018.105-5.89l5.691 1.53a5.305 5.305 0 005.504-1.789l3.705-4.585a.004.004 0 01.006 0zm18.66 28.953L36.545 49.87l-8.986-8.987-.45-.367a3.219 3.219 0 00-4.108 4.925l11.266 11.265.45.374a3.219 3.219 0 004.107-.38L59.58 35.887l.373-.45a3.219 3.219 0 00-4.93-4.094z" fill="#FFC400"/></svg>