<svg preserveAspectRatio="none" width="148" height="175" fill="none" xmlns="http://www.w3.org/2000/svg"><path d="M147 13h-20.5L114 173h28l5-160z" fill="#501B75"/><path d="M142 19L131.333 9 124 173h11.333L142 19z" fill="#9770A7"/><path d="M2.62 11l6.378 162h121.205L131.5 2H2.62v9z" fill="#7C5BDB"/><path d="M106 2l24 22.92V2h-24z" fill="url(#a)"/><path d="M112 173l18-18v18h-18z" fill="url(#b)"/><path d="M12 2v171h-1.09L7.5 2H12z" fill="#5B28A3"/><path d="M131 2v23" stroke="#EC6500" stroke-width="2"/><path d="M131 24.924V155" stroke="#501B75" stroke-width="2"/><path d="M131 155v18" stroke="#EC6500" stroke-width="2"/><path d="M146.26 13l-.61 19m-3.849 123.5l-.5 17.5" stroke="#EC6500" stroke-width="1.5"/><g filter="url(#c)"><path fill-rule="evenodd" clip-rule="evenodd" d="M63.576 72.482c.2-.088.4-.173.603-.253L69.907 48l5.895 24.186c.272.106.542.22.808.34l18.152-9.364-9.534 18.366c.114.281.22.566.318.854L107 88.007l-21.427 5.565c-.14.416-.295.827-.467 1.231l9.656 18.601-18.714-9.653c-.167.068-.336.134-.505.196L70.093 127l-5.626-23.083c-.107-.04-.214-.082-.32-.124L45 113.567l10.007-18.71c-.138-.32-.265-.645-.383-.974L32 88.007l22.654-5.94c.073-.198.148-.395.228-.59L45 63l18.576 9.482z" fill="url(#d)"/></g><g filter="url(#e)"><path d="M78.94 94.252L70.053 78 61.06 94.252h17.88z" fill="#FFE400"/><path opacity=".8" d="M78.94 94.25H61.06l8.981-5.586 8.898 5.587z" fill="#FFA100"/><path opacity=".8" d="M78.94 94.252L70 88.689V78l4.388 8.126 4.551 8.126z" fill="#FC0"/></g><filter id="c" x="32" y="48" width="75" height="79" filterUnits="userSpaceOnUse" color-interpolation-filters="sRGB"><feFlood flood-opacity="0" result="BackgroundImageFix"/><feBlend in="SourceGraphic" in2="BackgroundImageFix" result="shape"/><feColorMatrix in="SourceAlpha" values="0 0 0 0 0 0 0 0 0 0 0 0 0 0 0 0 0 0 127 0" result="hardAlpha"/><feOffset/><feGaussianBlur stdDeviation=".5"/><feComposite in2="hardAlpha" operator="arithmetic" k2="-1" k3="1"/><feColorMatrix values="0 0 0 0 0 0 0 0 0 0 0 0 0 0 0 0 0 0 0.4 0"/><feBlend in2="shape" result="effect1_innerShadow_496:2"/></filter><filter id="e" x="56.06" y="73" width="27.879" height="26.252" filterUnits="userSpaceOnUse" color-interpolation-filters="sRGB"><feFlood flood-opacity="0" result="BackgroundImageFix"/><feColorMatrix in="SourceAlpha" values="0 0 0 0 0 0 0 0 0 0 0 0 0 0 0 0 0 0 127 0" result="hardAlpha"/><feOffset/><feGaussianBlur stdDeviation="2.5"/><feComposite in2="hardAlpha" operator="out"/><feColorMatrix values="0 0 0 0 0 0 0 0 0 0 0 0 0 0 0 0 0 0 0.25 0"/><feBlend in2="BackgroundImageFix" result="effect1_dropShadow_496:2"/><feBlend in="SourceGraphic" in2="effect1_dropShadow_496:2" result="shape"/></filter><linearGradient id="a" x1="127" y1="9.5" x2="116.5" y2="2" gradientUnits="userSpaceOnUse"><stop stop-color="#FF6D00"/><stop offset="1" stop-color="#FFB600"/></linearGradient><linearGradient id="b" x1="121" y1="173" x2="121" y2="155" gradientUnits="userSpaceOnUse"><stop stop-color="#FF6D00"/><stop offset="1" stop-color="#FFB600"/></linearGradient><linearGradient id="d" x1="67.987" y1="38.08" x2="67.987" y2="140.638" gradientUnits="userSpaceOnUse"><stop stop-color="#00B4E5"/><stop offset="1" stop-color="#00A8E0"/></linearGradient></svg>