<svg version="1.0" id="living_room" xmlns="http://www.w3.org/2000/svg" x="0" y="0" viewBox="0 0 123.6 126.9" xml:space="preserve"><style>.st13,.st9{fill:#a65444}.st9{opacity:.5;fill-rule:evenodd;clip-rule:evenodd}.st13{opacity:.2}.st13,.st14,.st15{fill-rule:evenodd;clip-rule:evenodd}.st14{opacity:.2;fill:#ffff48}.st15{fill:#fff4ae}</style><path d="M101 120.9l-1.2 4.3H98l-2.1-4.3zm-86.5 0l-5.2 4.3H7.5v-4.3z" fill-rule="evenodd" clip-rule="evenodd" fill="#853936"/><path d="M118.3 120.9l-1.2 4.3h-1.8l-2.1-4.3zm-64.5 0l-1.2 4.3h-1.8l-2.1-4.3z" fill="#791d36" fill-rule="evenodd" clip-rule="evenodd"/><linearGradient id="SVGID_1_" gradientUnits="userSpaceOnUse" x1="-612.275" y1="121.256" x2="-612.275" y2="45.256" gradientTransform="matrix(-1 0 0 1 -502.07 0)"><stop offset="0" stop-color="#de6221"/><stop offset="1" stop-color="#f58036"/></linearGradient><path fill-rule="evenodd" clip-rule="evenodd" fill="url(#SVGID_1_)" d="M119 121.1l2.7-75.8h-18.6l-4.4 76z"/><linearGradient id="SVGID_2_" gradientUnits="userSpaceOnUse" x1="-554.616" y1="121.256" x2="-554.616" y2="44.443" gradientTransform="matrix(-1 0 0 1 -502.07 0)"><stop offset="0" stop-color="#de6221"/><stop offset="1" stop-color="#f58036"/></linearGradient><path fill-rule="evenodd" clip-rule="evenodd" fill="url(#SVGID_2_)" d="M103.1 45.3L2 44.4 5.5 121l93.2.3z"/><linearGradient id="SVGID_3_" gradientUnits="userSpaceOnUse" x1="-554.863" y1="119.752" x2="-554.863" y2="46.284" gradientTransform="matrix(-1 0 0 1 -502.07 0)"><stop offset=".022" stop-color="#a53640"/><stop offset=".994" stop-color="#a31d36"/></linearGradient><path fill-rule="evenodd" clip-rule="evenodd" fill="url(#SVGID_3_)" d="M6.3 119.8h90.4l4.4-72.4-96.6-1.1z"/><linearGradient id="SVGID_4_" gradientUnits="userSpaceOnUse" x1="-517.028" y1="119.752" x2="-517.028" y2="47.611" gradientTransform="matrix(-1 0 0 1 -502.07 0)"><stop offset="0" stop-color="#de6221"/><stop offset="1" stop-color="#f58036"/></linearGradient><path fill-rule="evenodd" clip-rule="evenodd" fill="url(#SVGID_4_)" d="M5.8 47.6l1.4 72.2h16.9L22.8 48z"/><linearGradient id="SVGID_5_" gradientUnits="userSpaceOnUse" x1="-564.524" y1="119.752" x2="-564.524" y2="48.083" gradientTransform="matrix(-1 0 0 1 -502.07 0)"><stop offset="0" stop-color="#979592"/><stop offset="1" stop-color="#ffd59f"/></linearGradient><path fill-rule="evenodd" clip-rule="evenodd" fill="url(#SVGID_5_)" d="M100.8 48.9l-76.7-.8 1.8 71.7h70.8z"/><linearGradient id="SVGID_6_" gradientUnits="userSpaceOnUse" x1="-564.364" y1="116.405" x2="-564.364" y2="50.606" gradientTransform="matrix(-1 0 0 1 -502.07 0)"><stop offset=".022" stop-color="#836d63"/><stop offset=".989" stop-color="#795068"/></linearGradient><path fill-rule="evenodd" clip-rule="evenodd" fill="url(#SVGID_6_)" d="M94.5 116.4l2.2-64.8-68.8-1v65.8z"/><linearGradient id="SVGID_7_" gradientUnits="userSpaceOnUse" x1="-563.519" y1="115.887" x2="-563.519" y2="51.284" gradientTransform="matrix(-1 0 0 1 -502.07 0)"><stop offset="0" stop-color="#a82d39"/><stop offset=".983" stop-color="#cb451f"/></linearGradient><path d="M93.6 55.7c3.3 2.9.9 54.8-1.4 57.7-2.2 3-54 3.6-58.4 0-8-6.6-8.1-44.9-.6-58.8 3.1-5.6 55.2-3.4 60.4 1.1z" fill-rule="evenodd" clip-rule="evenodd" fill="url(#SVGID_7_)"/><path class="st9" d="M27.9 50.6l5.5 3.6s1.9-1.6 7.5-2.1c0 0 5.2-.6 10.5-.7 5.6-.2 31.4-.1 41.2 3.8 1.5.6 1.5 2.3 1.5 2.3l2.4-5.8-68.6-1.1z"/><linearGradient id="SVGID_8_" gradientUnits="userSpaceOnUse" x1="-596.606" y1="114.921" x2="-530.014" y2="114.921" gradientTransform="matrix(-1 0 0 1 -502.07 0)"><stop offset="0" stop-color="#bac692"/><stop offset="1" stop-color="#ffd59f"/></linearGradient><path d="M27.9 116.4l5.9-3s40.4 5.5 58.4 0l2.3 3H27.9z" fill-rule="evenodd" clip-rule="evenodd" fill="url(#SVGID_8_)"/><path class="st9" d="M5.8 47.6l17 .4 78.1 1.9.2-2.5-96.6-1.1z"/><linearGradient id="SVGID_9_" gradientUnits="userSpaceOnUse" x1="-515.746" y1="80.754" x2="-515.746" y2="50.481" gradientTransform="matrix(-1 0 0 1 -502.07 0)"><stop offset="0" stop-color="#ff8f21"/><stop offset="1" stop-color="#f59a36"/></linearGradient><path fill-rule="evenodd" clip-rule="evenodd" fill="url(#SVGID_9_)" d="M20.1 80.8V51l-12.9-.5.7 29.5z"/><linearGradient id="SVGID_10_" gradientUnits="userSpaceOnUse" x1="-522.897" y1="80.754" x2="-522.897" y2="51.019" gradientTransform="matrix(-1 0 0 1 -502.07 0)"><stop offset=".022" stop-color="#a53640"/><stop offset=".994" stop-color="#a31d36"/></linearGradient><path fill-rule="evenodd" clip-rule="evenodd" fill="url(#SVGID_10_)" d="M20.1 51h1.4l-.6 29-.8.8z"/><path class="st13" d="M23.7 94L6.5 88.8l.2 4.1L23.8 99z"/><path class="st14" d="M23.8 102.6l-17-4.2v2.3l17.1 4.5z"/><path class="st13" d="M24 114.9l-17-1.6v3.3l17.1 3.2zm95.7-10.4l-18.5-11.8-1.1 12.3 19.1 11.1zm.1-4.2l-18.1-16.2.1-2.3 18 17.4z"/><path class="st14" d="M120.3 83l-18.9-16.2.2-2.4 18.8 16.4z"/><path class="st15" d="M21 105l-1.5 1.1h-9.3l-1.4-1.6z"/><linearGradient id="SVGID_11_" gradientUnits="userSpaceOnUse" x1="-517.088" y1="114.921" x2="-517.088" y2="104.528" gradientTransform="matrix(-1 0 0 1 -502.07 0)"><stop offset="0" stop-color="#979592"/><stop offset="1" stop-color="#ffd59f"/></linearGradient><path fill-rule="evenodd" clip-rule="evenodd" fill="url(#SVGID_11_)" d="M21 105l.2 9.9L9 114l-.2-9.5 1.4 1.6h9.3z"/><linearGradient id="SVGID_12_" gradientUnits="userSpaceOnUse" x1="-517.227" y1="114.921" x2="-517.227" y2="104.973" gradientTransform="matrix(-1 0 0 1 -502.07 0)"><stop offset=".022" stop-color="#836d63"/><stop offset=".989" stop-color="#795068"/></linearGradient><path fill-rule="evenodd" clip-rule="evenodd" fill="url(#SVGID_12_)" d="M19.5 106.1l.8 7.9H9.1l.8.9h11.3L21 105z"/><path class="st15" d="M19.3 112.4l-3.2-.3-5.4-3.7-.2-1.1z"/><path fill-rule="evenodd" clip-rule="evenodd" fill="#dac4a4" d="M10.7 108.4l.3 4 5.1-.3z"/><linearGradient id="SVGID_13_" gradientUnits="userSpaceOnUse" x1="-517.216" y1="112.75" x2="-517.216" y2="112.065" gradientTransform="matrix(-1 0 0 1 -502.07 0)"><stop offset=".022" stop-color="#836d63"/><stop offset=".989" stop-color="#795068"/></linearGradient><path fill-rule="evenodd" clip-rule="evenodd" fill="url(#SVGID_13_)" d="M19.3 112.4l-8 .4-.3-.4 5.1-.3z"/><path d="M17.5 72.3v2.4h-2.4l-.4-2.4zm-5 1.4V76h-1.7l-.6-2.3z" fill="#bd4703" fill-rule="evenodd" clip-rule="evenodd"/><path d="M9.4 67.3v-.2L9 52.9l9.5.4v.2l.6 12.9-9.7.9zm.2-13.9l.2 13.4 8.7-.9-.5-12.2-8.4-.3z" fill="#bd4703"/><linearGradient id="SVGID_14_" gradientUnits="userSpaceOnUse" x1="-596.606" y1="104.811" x2="-530.243" y2="104.811" gradientTransform="matrix(-1 0 0 1 -502.07 0)"><stop offset="0" stop-color="#bcad4a"/><stop offset="1" stop-color="#5b3300"/></linearGradient><path d="M94.5 95.3s-1 13.2-3.5 16.8c-2.5 3.6-53.4 2.2-57.2.4-2.9-1.4-5.7-11.6-5.7-11.6s3.3 9.5 6.7 10.6c5.7 1.9 43.1 2.2 52.5-.5 6-1.8 7.2-15.7 7.2-15.7z" opacity=".5" fill-rule="evenodd" clip-rule="evenodd" fill="url(#SVGID_14_)"/><linearGradient id="SVGID_15_" gradientUnits="userSpaceOnUse" x1="-564.666" y1="74.707" x2="-564.666" y2="52.043" gradientTransform="matrix(-1 0 0 1 -502.07 0)"><stop offset="0" stop-color="#5b3300"/><stop offset="1" stop-color="#bcad4a"/></linearGradient><path d="M94.2 57.4S93.8 66 73.7 72s-42.8 0-42.8 0 .1-14.7 3.5-17.5c3.4-2.8 44.2-4.7 59.8 2.9z" opacity=".3" fill-rule="evenodd" clip-rule="evenodd" fill="url(#SVGID_15_)"/><linearGradient id="SVGID_16_" gradientUnits="userSpaceOnUse" x1="-577.533" y1="44.284" x2="-577.533" y2="10.16" gradientTransform="matrix(-1 0 0 1 -502.07 0)"><stop offset="0" stop-color="#979592"/><stop offset="1" stop-color="#b5918f"/></linearGradient><path d="M66.8 44.3l12.6-25.1h1.9l3.6-6.5s-1.4-2.8-3.9-2.4l-3.8 7.3 1.3 1.2-12.4 25.5h.7z" fill-rule="evenodd" clip-rule="evenodd" fill="url(#SVGID_16_)"/><path class="st9" d="M81.2 19.2s-.9-2.1-4.1-1.7l1.3 1.2.9.5h1.9z"/><path class="st15" d="M83.7 11.1l-4.5 5.6 2.2-6.6c0 .1 1.6.4 2.3 1z"/><linearGradient id="SVGID_17_" gradientUnits="userSpaceOnUse" x1="2092.266" y1="44.284" x2="2092.266" y2="1.134" gradientTransform="translate(-2044.536)"><stop offset="0" stop-color="#979592"/><stop offset="1" stop-color="#b5918f"/></linearGradient><path d="M56.3 44.3l-13-34.1h-1.9l-2.9-6.5s1.4-2.8 3.9-2.4l3.1 7.3-1.3 1.2L57 44.4h-.7z" fill-rule="evenodd" clip-rule="evenodd" fill="url(#SVGID_17_)"/><path class="st9" d="M41.4 10.2s.9-2.1 4.1-1.7l-1.3 1.2-.9.5h-1.9z"/><path class="st15" d="M39.7 2.1l3.7 5.6-1.5-6.6s-1.6.3-2.2 1z"/><path class="st9" d="M103.1 45.3l-1.4 39.4-3 36.6z"/></svg>