<svg width="634" height="768" fill="none" xmlns="http://www.w3.org/2000/svg"><path d="M359 300L318.076 2 280 297.985c25.609-9.865 53.888-9.144 79 2.015z" fill="#00B4E4"/><path d="M279 487l38.591 279L355 487.142a104.453 104.453 0 01-37.842 7.069A104.408 104.408 0 01279 487" fill="#00A8E0"/><path d="M225.419 433L158 558l130-65.806c-27.631-11.59-49.907-32.661-62.581-59.194M353 492.527L481 558l-65.438-125c-12.31 26.352-34.582 47.544-62.562 59.527" fill="#72C6E2"/><path d="M218.419 346L151 221l130 65.806c-27.631 11.59-49.907 32.661-62.581 59.194M353 286.473L481 221l-65.438 125c-12.31-26.352-34.582-47.544-62.562-59.527" fill="#72CDE5"/><path d="M317.274 497.133a102.608 102.608 0 01-72.115-30.941 102.878 102.878 0 01-29.238-72.898 102.864 102.864 0 0129.239-72.895 102.596 102.596 0 0172.114-30.934 102.597 102.597 0 0172.115 30.934 102.864 102.864 0 0129.239 72.895 102.86 102.86 0 01-29.236 72.901 102.593 102.593 0 01-72.118 30.938zm.356-198.528l-81.267 146.252h161.791L317.63 298.605z" fill="#00AFE2"/><path d="M317.63 298.605l-81.267 146.252h161.791L317.63 298.605z" fill="#00AFE2"/><g filter="url(#filter0_d)"><path d="M388 440l-70.572-128L246 440h142z" fill="#FFE400"/><path opacity=".8" d="M388 440H246l71.33-44L388 440z" fill="#FFA100"/><path opacity=".8" d="M388 440l-71-43.812V312l34.855 64L388 440z" fill="#FC0"/></g><path d="M410 435l222-37.755L412.59 358a108.599 108.599 0 015.822 35.068c.011 14.363-2.844 28.595-8.412 41.932zm-194.227-41.565A109.05 109.05 0 01222.392 356L2 395.542 224 435c-5.446-13.234-8.237-27.336-8.227-41.565" fill="#00AEE2"/><path d="M169.012 457.357c11.393 20.609 22.624 29.08 39.093 45.912 6.058 6.192 9.535 9.592 15.91 15.456 4.536 4.172 6.595 7.188 11.82 10.455 9.201 5.755 16.189 5.095 26.82 7.274 29.888 6.126 77.873 1.927 79.074 1.82l.052-.005c1.191-.137 38.156-4.44 59.067-14.998 12.438-6.281 19.554-10.291 29.547-20.002 9.193-8.932 11.233-16.61 19.547-26.365 6.842-8.028 12.51-10.962 18.638-19.546 5.721-8.015 9.105-12.809 11.819-22.275 2.988-10.422 1.82-16.897 1.364-27.73-.745-17.706-3.991-27.448-8.637-44.549-5.301-19.51-8.15-30.836-17.729-48.64-8.027-14.921-13.374-23.134-25.002-35.458-9.25-9.804-14.829-15.303-26.365-22.274-12.556-7.587-20.868-9.711-35.003-13.638-25.924-7.202-41.748-5.118-68.642-5.909-14.018-.413-22.478-4.027-35.912 0-8.754 2.623-20.721 10.781-20.908 10.908l-.004.002c-.188.128-25.219 17.107-38.638 30.911-5.255 5.407-12.671 14.381-13.158 14.971l-.049.061c-.534.673-9.684 12.233-14.522 20.426-10.314 17.46-13.82 28.836-18.184 48.64l-.114.517c-5.326 24.172-8.77 39.799-2.612 63.58 2.851 11.012 6.491 19.174 12.728 30.456z" stroke="url(#paint0_radial)" stroke-width="3"/><path fill-rule="evenodd" clip-rule="evenodd" d="M317.659 545.999c85.611 0 155.012-69.401 155.012-155.012S403.27 235.975 317.659 235.975s-155.013 69.401-155.013 155.012 69.402 155.012 155.013 155.012zm.001-55.459c54.981 0 99.553-44.571 99.553-99.553s-44.572-99.553-99.553-99.553c-54.982 0-99.554 44.571-99.554 99.553s44.572 99.553 99.554 99.553z" fill="url(#paint1_radial)"/><path d="M202.195 510.367v-10.384c0-4.53 5.543-6.725 8.645-3.424l10.603 11.288c3.139 3.342.5 8.794-4.068 8.405l-10.604-.903a5 5 0 01-4.576-4.982zm233.928-3v-10.384c0-4.53-5.542-6.725-8.644-3.424l-10.604 11.288c-3.139 3.342-.5 8.794 4.069 8.405l10.603-.903a5 5 0 004.576-4.982zm-235.928-232.67v10.385c0 4.53 5.543 6.725 8.645 3.423l10.603-11.287c3.139-3.342.5-8.795-4.068-8.406l-10.604.903a5 5 0 00-4.576 4.982zm233.928-1v10.385c0 4.53-5.542 6.725-8.644 3.423l-10.604-11.287c-3.139-3.342-.5-8.795 4.069-8.406l10.603.903a5 5 0 014.576 4.982z" fill="#8E999D"/><path d="M235.675 259.529a155.007 155.007 0 00-45.847 44.01l45.736 31.249a99.627 99.627 0 0129.464-28.284l-29.353-46.975z" fill="url(#paint2_linear)"/><path d="M397.655 258.115a155.006 155.006 0 0146.608 43.204l-45.329 32.145a99.423 99.423 0 00-29.9-27.716l28.621-47.633z" fill="url(#paint3_linear)"/><path d="M399.962 522.446a155.023 155.023 0 0045.847-44.011l-45.885-31.35a99.456 99.456 0 01-29.411 28.233l29.449 47.128z" fill="url(#paint4_linear)"/><path d="M235.675 522.446a155.023 155.023 0 01-45.847-44.011l45.697-31.221a99.67 99.67 0 0029.478 28.297l-29.328 46.935z" fill="url(#paint5_linear)"/><defs><linearGradient id="paint2_linear" x1="206.152" y1="283.706" x2="245.7" y2="320.981" gradientUnits="userSpaceOnUse"><stop stop-color="#C83821"/><stop offset=".292" stop-color="#D3290E"/><stop offset=".557" stop-color="#F04328"/><stop offset=".755" stop-color="#F4634C"/><stop offset="1" stop-color="#E94329"/></linearGradient><linearGradient id="paint3_linear" x1="429.485" y1="283.706" x2="389.936" y2="320.981" gradientUnits="userSpaceOnUse"><stop stop-color="#C83821"/><stop offset=".292" stop-color="#D3290E"/><stop offset=".557" stop-color="#F04328"/><stop offset=".755" stop-color="#F4634C"/><stop offset="1" stop-color="#E94329"/></linearGradient><linearGradient id="paint4_linear" x1="429.485" y1="498.269" x2="389.936" y2="460.993" gradientUnits="userSpaceOnUse"><stop stop-color="#C83821"/><stop offset=".292" stop-color="#D3290E"/><stop offset=".557" stop-color="#F04328"/><stop offset=".755" stop-color="#F4634C"/><stop offset="1" stop-color="#E94329"/></linearGradient><linearGradient id="paint5_linear" x1="206.152" y1="498.269" x2="245.7" y2="460.993" gradientUnits="userSpaceOnUse"><stop stop-color="#C83821"/><stop offset=".292" stop-color="#D3290E"/><stop offset=".557" stop-color="#F04328"/><stop offset=".755" stop-color="#F4634C"/><stop offset="1" stop-color="#E94329"/></linearGradient><radialGradient id="paint0_radial" cx="0" cy="0" r="1" gradientUnits="userSpaceOnUse" gradientTransform="matrix(321.64779 178.49782 -193.13402 348.0218 326.35 374.994)"><stop stop-color="#A9CBD8"/><stop offset=".201" stop-color="#8DB7C6"/><stop offset=".417" stop-color="#B0BCC0"/><stop offset=".625" stop-color="#AEC8D1"/><stop offset=".958" stop-color="#A7C7D2"/></radialGradient><radialGradient id="paint1_radial" cx="0" cy="0" r="1" gradientUnits="userSpaceOnUse" gradientTransform="rotate(88.167 -43.02 359.487) scale(170.555)"><stop stop-color="#E1E1E1"/><stop offset=".245" stop-color="#fff"/><stop offset=".479" stop-color="#BDBDBD"/><stop offset=".661" stop-color="#FEFCFC"/><stop offset=".839" stop-color="#E9E6E6"/><stop offset="1" stop-color="#fff"/></radialGradient><filter id="filter0_d" x="216" y="282" width="202" height="188" filterUnits="userSpaceOnUse" color-interpolation-filters="sRGB"><feFlood flood-opacity="0" result="BackgroundImageFix"/><feColorMatrix in="SourceAlpha" values="0 0 0 0 0 0 0 0 0 0 0 0 0 0 0 0 0 0 127 0" result="hardAlpha"/><feOffset/><feGaussianBlur stdDeviation="15"/><feComposite in2="hardAlpha" operator="out"/><feColorMatrix values="0 0 0 0 0 0 0 0 0 0 0 0 0 0 0 0 0 0 0.45 0"/><feBlend in2="BackgroundImageFix" result="effect1_dropShadow"/><feBlend in="SourceGraphic" in2="effect1_dropShadow" result="shape"/></filter></defs></svg>