<svg version="1.0" xmlns="http://www.w3.org/2000/svg" width="682.667" height="682.667" viewBox="0 0 512 512"><g fill="#ea7247"><path d="M237 .6c-1.9.2-7.8.9-13 1.5-54.8 6.2-108.3 32.5-148.9 73C34.6 115.7 9.9 165.8 1.9 224c-1.8 12.5-1.8 51.5 0 64 8 58.2 32.7 108.3 73.2 148.9 65.8 65.7 160.7 90.6 250.4 65.4 92.9-26 164.6-104.3 181.9-198.7 15.6-84.5-10.3-168.2-70.5-228.5-39.8-39.8-88-63.9-144.9-72.6C282 1 244.8-.3 237 .6zm53.5 21.9c50.5 7.8 95.9 30.8 132 67 18.9 18.8 32.6 37.8 44.5 61.4 11.2 22.1 18.8 46.2 22.6 71.6 2.5 16.5 2.6 50.4.1 66.5-2.6 16.4-7.2 34.6-12.4 48.5-27.1 72.7-88.5 128.1-162.8 147-21.3 5.4-34.1 6.9-58.5 6.9-23.8 0-35.9-1.3-56.3-6.4-43-10.7-79.5-31.5-111.2-63.4-29.7-29.8-50.7-66.7-61-107.1-5.6-21.8-6.9-33.2-6.9-58.5 0-25.4 1.3-36.8 6.9-58.5C52.4 100.3 135.6 30.1 237 20.6c9.1-.8 43.8.4 53.5 1.9z"/><path d="M238.5 50.7C155.8 57.9 84.1 115.3 59.6 194 27 298.8 80.7 409.3 183.2 448.6c11.5 4.4 27.9 8.7 42.3 11 15.1 2.5 45.7 2.5 61 .1 67.1-10.8 122.3-50.6 152.6-109.9 24.7-48.5 29.4-101.4 13.8-154-5.2-17.6-18-44.6-23.8-50.4-3.3-3.3-8.9-3.3-13 .2-4.4 3.7-4.3 8.7.5 16.5 16 26.4 25.3 60.6 25.4 93.1.1 63.4-30.8 120.8-84 156.2-21 14-48.5 24.5-75.5 28.7-10.7 1.7-40.8 1.7-52 .1-33.3-5-65.4-18.8-90.5-38.9-7.7-6.2-22.1-20.6-28.5-28.3-33.5-41-47.8-96.1-38.6-149 10.4-60 49.5-110.8 105.4-136.9 54.5-25.6 120.7-22.3 171.8 8.5 7.3 4.4 11.9 4.5 16 .5 3.8-3.9 4-9.7.5-13.3-3.7-3.6-21.5-13-35-18.3-28-11.1-63.5-16.4-93.1-13.8z"/><path d="M392.3 107.8c-3.9.6-7.3 5-7.3 9.4 0 11.6 17.1 13.4 19.3 2 .5-2.9-1.3-8.5-3.2-9.7-2-1.2-6.5-2.1-8.8-1.7zm-203 60.3c-7.9 2.5-16.1 9.7-20 17.7l-2.8 5.7v129l2.8 5.7c4 8.2 12 15.2 20.4 17.8 8.2 2.5 12.4 2.5 20.6 0 8.4-2.6 16.4-9.6 20.4-17.8l2.8-5.7v-129l-2.8-5.7c-4-8.2-12-15.2-20.4-17.8-8-2.5-13-2.5-21 .1zm18.6 20.6c1.4 1.1 3.4 3.5 4.3 5.4 1.7 3.1 1.8 8.2 1.8 61.9s-.1 58.8-1.8 61.9c-2.6 5.2-6.5 7.6-12.2 7.6-5.7 0-9.6-2.4-12.3-7.6-1.6-3.1-1.7-7.8-1.5-63.1.3-58.6.3-59.7 2.4-62.5 4.6-6.2 13.4-7.9 19.3-3.6zm93.4-20.6c-7.9 2.5-16.1 9.7-20 17.7l-2.8 5.7v129l2.8 5.7c4 8.2 12 15.2 20.4 17.8 8.2 2.5 12.4 2.5 20.6 0 8.4-2.6 16.4-9.6 20.4-17.8l2.8-5.7v-129l-2.8-5.7c-4-8.2-12-15.2-20.4-17.8-8-2.5-13-2.5-21 .1zm18.6 20.6c1.4 1.1 3.4 3.5 4.3 5.4 1.7 3.1 1.8 8.2 1.8 61.9s-.1 58.8-1.8 61.9c-2.6 5.2-6.5 7.6-12.2 7.6-5.7 0-9.6-2.4-12.3-7.6-1.6-3.1-1.7-7.8-1.5-63.1.3-58.6.3-59.7 2.4-62.5 4.6-6.2 13.4-7.9 19.3-3.6z"/></g></svg>