<svg version="1.0" xmlns="http://www.w3.org/2000/svg" width="682.667" height="682.667" viewBox="0 0 512 512"><g fill="#ea7247"><path d="M237 .6c-1.9.2-7.8.9-13 1.5-54.8 6.2-108.3 32.5-148.9 73C34.6 115.7 9.9 165.8 1.9 224c-1.8 12.5-1.8 51.5 0 64 8 58.2 32.7 108.3 73.2 148.9 65.8 65.7 160.7 90.6 250.4 65.4 92.9-26 164.6-104.3 181.9-198.7 15.6-84.5-10.3-168.2-70.5-228.5-39.8-39.8-88-63.9-144.9-72.6C282 1 244.8-.3 237 .6zm53.5 21.9c50.5 7.8 95.9 30.8 132 67 18.9 18.8 32.6 37.8 44.5 61.4 11.2 22.1 18.8 46.2 22.6 71.6 2.5 16.5 2.6 50.4.1 66.5-2.6 16.4-7.2 34.6-12.4 48.5-27.1 72.7-88.5 128.1-162.8 147-21.3 5.4-34.1 6.9-58.5 6.9-23.8 0-35.9-1.3-56.3-6.4-43-10.7-79.5-31.5-111.2-63.4-29.7-29.8-50.7-66.7-61-107.1-5.6-21.8-6.9-33.2-6.9-58.5 0-25.4 1.3-36.8 6.9-58.5C52.4 100.3 135.6 30.1 237 20.6c9.1-.8 43.8.4 53.5 1.9z"/><path d="M238.5 50.7C155.8 57.9 84.1 115.3 59.6 194c-28.4 91.5 8.3 188.5 90.4 238.6 69.2 42.1 160.1 38.4 226.1-9.3 38.6-27.9 66.7-68.8 78.9-114.7 5.1-19 6.3-29.2 6.4-51.1.1-25.2-2-40.4-9-63.4-5-16.6-17.7-43.1-23.3-48.7-3.3-3.3-8.9-3.3-13 .2-4.4 3.7-4.3 8.7.5 16.5 4.5 7.4 11.4 22.2 14.8 31.9 14.5 40.3 14.1 86.2-1.1 126.9-16.5 44.3-50.1 81.3-92.8 102.1-51.7 25.3-111.5 25.2-163 0-37.4-18.4-67.4-48.4-85.6-85.5-17.1-35-22.7-74.9-16-113.5 10.4-60 49.5-110.8 105.4-136.9 54.5-25.6 120.7-22.3 171.8 8.5 7.3 4.4 11.9 4.5 16 .5 3.8-3.9 4-9.7.5-13.3-3.7-3.6-21.5-13-35-18.3-28-11.1-63.5-16.4-93.1-13.8z"/><path d="M392.3 107.7c-1.2.2-3.3 1.6-4.7 3-5.9 5.9-1.4 16.3 7.2 16.3 10.3 0 13.3-14.5 3.8-18.5-2-.8-3.7-1.4-3.8-1.4-.2.1-1.3.4-2.5.6zM213 165.9c-5.5 1.7-11 5.2-14.8 9.6-7.4 8.5-7.2 5.9-7.2 80v66.2l3.1 6.1c1.6 3.4 4.5 7.3 6.2 8.8 4.5 3.8 12.7 7.4 18.5 8.1 8.3.9 14-1.5 36.2-15.8 11.3-7.2 33.4-21.4 49.2-31.6 19.5-12.5 30-19.8 32.7-22.9 5.4-6.2 7.5-12.7 6.9-21.8-.6-8.5-3.2-14.2-9.1-19.8-6.5-6.1-100-65.4-105.2-66.7-4.9-1.2-12.7-1.3-16.5-.2zm58.5 49.1c25.9 16.6 48.2 31.4 49.8 33.1 3.5 3.8 3.7 9.6.5 13.3-1.9 2.1-89.5 58.8-96.7 62.6-3.2 1.6-7.9.5-11.3-2.7l-2.8-2.7v-63.4c0-41.3.4-64 1-65.2 1.4-2.6 5.8-4.9 9.5-5 2.3 0 14.3 7.2 50 30z"/></g></svg>