<svg preserveAspectRatio="none" width="979" height="645" fill="none" xmlns="http://www.w3.org/2000/svg"><g clip-path="url(#clip0)"><path d="M2 658.421c0 12.687 9.736 23.167 22.402 23.894C96.738 686.468 328.62 699.021 488 699c77.813-.01 174.775-.18 260.5-6.295 88.926-6.343 167.631-9.603 205.178-10.944 12.991-.463 23.322-11.116 23.322-24.116V-14.25c0-12.757-9.843-23.272-22.584-23.913C881.336-41.843 646.83-52.993 488-53 329.007-53.007 97.124-41.87 24.562-38.175 11.828-37.527 2-27.015 2-14.265V658.42z" fill="#fff"/></g><defs><clipPath id="clip0"><path fill="#fff" d="M0 0h979v645H0z"/></clipPath></defs></svg>