<svg preserveAspectRatio="none" width="979" height="80" fill="none" xmlns="http://www.w3.org/2000/svg"><g clip-path="url(#clip0)"><path d="M2 42.579c0-12.687 9.736-23.167 22.402-23.895C96.738 14.532 328.62 1.98 488 2c77.813.01 174.775.18 260.5 6.295 88.926 6.343 167.631 9.603 205.178 10.944C966.669 19.702 977 30.355 977 43.355V715.25c0 12.757-9.843 23.271-22.584 23.913C881.336 742.843 646.83 753.993 488 754c-158.993.007-390.876-11.129-463.438-14.825C11.828 738.527 2 728.016 2 715.265V42.579z" fill="#fff"/></g><defs><clipPath id="clip0"><path fill="#fff" d="M0 0h979v80H0z"/></clipPath></defs></svg>