<svg preserveAspectRatio="none" width="979" height="80" fill="none" xmlns="http://www.w3.org/2000/svg"><g clip-path="url(#clip0)"><path d="M2-631.421c0-12.687 9.736-23.167 22.402-23.894C96.738-659.468 328.62-672.021 488-672c77.813.01 174.775.18 260.5 6.295 88.926 6.343 167.631 9.603 205.178 10.944 12.991.463 23.322 11.116 23.322 24.116V41.25c0 12.757-9.843 23.272-22.584 23.913C881.336 68.843 646.83 79.993 488 80c-158.993.007-390.876-11.13-463.438-14.825C11.828 64.528 2 54.016 2 41.266V-631.42z" fill="#fff"/></g><defs><clipPath id="clip0"><path fill="#fff" d="M0 0h979v80H0z"/></clipPath></defs></svg>