<svg width="346" height="336" fill="none" xmlns="http://www.w3.org/2000/svg"><g clip-path="url(#clip0)"><path d="M134.998 222.5c-3.719-24.709-25.644-4.551-48.63-8.245-20.464-3.289-40.895 6.711-46.874 21.204-8.748 21.204 17.697 41.706 6.306 58.704-7.995 11.931-29.349 14.25-27.69 18.353 1.11 2.741 10.636 1.709 12.686 5.684 2.358 4.581-8.077 10.283-6.75 12.144 2.055 2.885 34.95.197 44.508-17.894 11.821-22.37-22.367-48.749-9.517-69.146 6.312-10.018 21.977-15.427 36.778-12.175 15.135 3.326 29.347-24.812 34.228-9.438l4.955.809z" fill="url(#paint0_linear)"/><path style="mix-blend-mode:multiply" opacity=".3" d="M26.087 327.018c10.377-.359 21.706-2.863 28.654-10.763 8.585-9.763 6.938-23.737 5.883-32.693-2.852-24.207-16.103-30.881-12.25-43.307 4.293-13.846 25.053-19.486 39.21-19.87 7.861-.214 15.088 1.155 21.426 3.237-6.864-4.786-14.625-8.077-22.647-9.366-20.463-3.289-40.894 6.71-46.873 21.204-8.748 21.204 17.697 41.706 6.307 58.704-7.996 11.931-29.35 14.25-27.69 18.353 1.108 2.741 10.636 1.709 12.686 5.684 1.497 2.909-2.173 6.273-4.706 8.817z" fill="url(#paint1_linear)"/><path d="M68.552 312.449c3.508-6.641 2.964-13.635.799-20.719-6.909-2.037-13.816-4.088-20.677-6.307-.14 3.002-.984 5.918-2.874 8.739-7.995 11.932-29.35 14.25-27.69 18.353 1.109 2.742 10.636 1.709 12.686 5.684 2.358 4.581-8.078 10.283-6.75 12.145 2.05 2.881 34.948.194 44.506-17.895z" fill="url(#paint2_linear)"/><path style="mix-blend-mode:multiply" opacity=".3" d="M26.086 327.02c10.377-.359 21.706-2.863 28.654-10.763 6.908-7.855 7.192-18.436 6.489-26.936a607.492 607.492 0 01-12.56-3.898c-.14 3.003-.983 5.919-2.873 8.74-7.995 11.931-29.35 14.25-27.69 18.353 1.109 2.741 10.636 1.709 12.686 5.684 1.498 2.912-2.173 6.276-4.706 8.82z" fill="url(#paint3_linear)"/><path d="M133.998 219.5c-3.719-24.71-24.644-1.55-47.631-5.245-20.463-3.289-40.894 6.711-46.874 21.204-8.747 21.204 17.697 41.706 6.307 58.704-7.995 11.932-29.35 14.25-27.69 18.353 1.109 2.741 10.636 1.709 12.686 5.684 2.358 4.581-8.077 10.283-6.75 12.145 2.055 2.884 34.95.196 44.508-17.895 11.821-22.37-22.367-48.749-9.518-69.146 6.313-10.018 21.978-15.427 36.779-12.175 15.135 3.326 28.347-27.812 33.228-12.439 1.651.271 3.302.54 4.955.81z" fill="url(#paint4_linear)"/><path style="mix-blend-mode:multiply" opacity=".3" d="M26.087 327.018c10.377-.359 21.706-2.863 28.654-10.763 8.585-9.763 6.938-23.737 5.883-32.693-2.852-24.207-16.103-30.881-12.25-43.307 4.293-13.846 25.053-19.486 39.21-19.87 7.861-.214 15.088 1.155 21.426 3.237-6.864-4.786-14.625-8.077-22.647-9.366-20.463-3.289-40.894 6.71-46.873 21.204-8.748 21.204 17.697 41.706 6.307 58.704-7.996 11.931-29.35 14.25-27.69 18.353 1.108 2.741 10.636 1.709 12.686 5.684 1.497 2.909-2.173 6.273-4.706 8.817z" fill="url(#paint5_linear)"/><path d="M68.552 312.449c3.508-6.641 2.964-13.635.799-20.719-6.909-2.037-13.816-4.088-20.677-6.307-.14 3.002-.984 5.918-2.874 8.739-7.995 11.932-29.35 14.25-27.69 18.353 1.109 2.742 10.636 1.709 12.686 5.684 2.358 4.581-8.078 10.283-6.75 12.145 2.05 2.881 34.948.194 44.506-17.895z" fill="url(#paint6_linear)"/><path style="mix-blend-mode:multiply" opacity=".3" d="M26.086 327.02c10.377-.359 21.706-2.863 28.654-10.763 6.908-7.855 7.192-18.436 6.489-26.936a607.492 607.492 0 01-12.56-3.898c-.14 3.003-.983 5.919-2.873 8.74-7.995 11.931-29.35 14.25-27.69 18.353 1.109 2.741 10.636 1.709 12.686 5.684 1.498 2.912-2.173 6.276-4.706 8.82z" fill="url(#paint7_linear)"/><path d="M215 153.555c5.484-24.842 22.451-24.228 47.506-28.464 22.304-3.771 43.786 5.771 49.386 20.152 8.194 21.039-21.594 42.195-10.296 58.959 7.931 11.767 30.865 13.593 28.829 17.742-1.361 2.773-11.593 1.96-14.044 5.99-2.819 4.644 8.118 10.114 6.574 12.01-2.392 2.938-37.773 1.01-47.027-16.892-11.445-22.136 27.058-49.36 14.384-69.494-6.226-9.89-22.831-14.944-39.015-11.343-16.549 3.686-24.709-5.102-30.895 10.414l-5.402.926z" fill="url(#paint8_linear)"/><path style="mix-blend-mode:multiply" opacity=".3" d="M320.947 236.658c-11.19-.117-23.282-2.362-30.32-10.115-8.697-9.581-6.089-23.619-4.417-32.617 4.517-24.318 19.229-31.312 15.803-43.672-3.817-13.772-25.912-18.939-41.184-18.994-8.481-.031-16.371 1.508-23.342 3.743 7.699-4.956 16.28-8.434 25.024-9.912 22.304-3.771 43.785 5.772 49.386 20.152 8.193 21.04-21.594 42.196-10.296 58.96 7.931 11.767 30.865 13.593 28.828 17.742-1.36 2.772-11.593 1.96-14.043 5.99-1.791 2.949 1.975 6.234 4.561 8.723z" fill="url(#paint9_linear)"/><path d="M275.932 223.051c-3.397-6.57-2.394-13.591.366-20.738 7.585-2.201 15.169-4.417 22.714-6.8-.026 3.005.712 5.907 2.587 8.689 7.931 11.767 30.865 13.593 28.828 17.742-1.36 2.772-11.592 1.96-14.043 5.99-2.819 4.644 8.117 10.113 6.573 12.009-2.387 2.935-37.771 1.009-47.025-16.892z" fill="url(#paint10_linear)"/><path style="mix-blend-mode:multiply" opacity=".3" d="M320.948 236.658c-11.19-.118-23.282-2.363-30.32-10.116-6.998-7.708-6.677-18.302-5.413-26.835a731.61 731.61 0 0013.8-4.197c-.026 3.005.712 5.907 2.587 8.689 7.931 11.767 30.865 13.593 28.828 17.742-1.36 2.773-11.593 1.96-14.043 5.99-1.791 2.953 1.975 6.238 4.561 8.727z" fill="url(#paint11_linear)"/><path d="M208.5 153.558c5.484-24.841 28.951-24.232 54.006-28.468 22.304-3.771 43.785 5.771 49.386 20.152 8.194 21.039-21.594 42.195-10.296 58.959 7.931 11.768 30.865 13.593 28.828 17.743-1.36 2.772-11.592 1.959-14.043 5.99-2.819 4.644 8.118 10.113 6.574 12.009-2.393 2.938-37.773 1.01-47.028-16.892-11.444-22.136 27.058-49.359 14.385-69.494-6.226-9.89-22.831-14.944-39.015-11.342-16.549 3.685-31.21-5.098-37.395 10.417l-5.402.926z" fill="url(#paint12_linear)"/><path style="mix-blend-mode:multiply" opacity=".3" d="M320.947 236.658c-11.19-.117-23.282-2.362-30.32-10.115-8.697-9.581-6.089-23.619-4.417-32.617 4.517-24.318 19.229-31.312 15.803-43.672-3.817-13.772-25.912-18.939-41.184-18.994-8.481-.031-16.371 1.508-23.342 3.743 7.699-4.956 16.28-8.434 25.024-9.912 22.304-3.771 43.785 5.772 49.386 20.152 8.193 21.04-21.594 42.196-10.296 58.96 7.931 11.767 30.865 13.593 28.828 17.742-1.36 2.772-11.593 1.96-14.043 5.99-1.791 2.949 1.975 6.234 4.561 8.723z" fill="url(#paint13_linear)"/><path d="M275.932 223.051c-3.397-6.57-2.394-13.591.366-20.738 7.585-2.201 15.169-4.417 22.714-6.8-.026 3.005.712 5.907 2.587 8.689 7.931 11.767 30.865 13.593 28.828 17.742-1.36 2.772-11.592 1.96-14.043 5.99-2.819 4.644 8.117 10.113 6.573 12.009-2.387 2.935-37.771 1.009-47.025-16.892z" fill="url(#paint14_linear)"/><path style="mix-blend-mode:multiply" opacity=".3" d="M320.948 236.658c-11.19-.118-23.282-2.363-30.32-10.116-6.998-7.708-6.677-18.302-5.413-26.835a731.61 731.61 0 0013.8-4.197c-.026 3.005.712 5.907 2.587 8.689 7.931 11.767 30.865 13.593 28.828 17.742-1.36 2.773-11.593 1.96-14.043 5.99-1.791 2.953 1.975 6.238 4.561 8.727z" fill="url(#paint15_linear)"/><path d="M173.95 107.584c-23.438-4.499-43.782 15.467-64.408 21.363-20.76 5.408-41.778-3.259-59.677 12.531a18.074 18.074 0 00-4.8 20.35c25.569 63.017 51.248 125.81 110.034 125.632a4.84 4.84 0 002.397-.655c50.718-29.734 40.933-96.862 30.928-164.135a18.074 18.074 0 00-14.474-15.086zm-78.273 71.553c7.822-.158 14.786 3.973 18.803 6.984 2.126 1.594 2.186 4.58.125 6.258-3.894 3.17-10.688 7.578-18.51 7.739-7.823.16-14.787-3.972-18.804-6.984-2.127-1.594-2.186-4.58-.125-6.258 3.894-3.17 10.688-7.578 18.51-7.739zm49.104 65.821c-5.657 1.545-10.75 3.697-14.995 5.85-4.32 2.193-9.568-1.816-7.285-6.089 3.797-7.107 9.574-14.651 17.615-16.847 8.04-2.196 16.848 1.363 23.729 5.553 4.137 2.52 1.655 8.639-3.18 8.948-4.748.303-10.227 1.04-15.884 2.585zm19.148-63.367c-6.818 3.841-14.909 3.498-19.873 2.746-2.628-.398-4.093-2.999-3.072-5.452 1.929-4.636 5.828-11.734 12.648-15.576 6.819-3.842 14.91-3.5 19.874-2.748 2.627.398 4.093 2.999 3.072 5.453-1.93 4.636-5.83 11.736-12.649 15.577z" fill="url(#paint16_linear)"/><g opacity=".15" filter="url(#filter0_f)"><path d="M149.073 112.766c9.599 25.615 19.22 51.193 31.115 72.712l4.264-10.91 3.355-20.493-16.028-25.709-15.282-20.12-3.354.373-5.079.052a18.1 18.1 0 001.009 4.095z" fill="#000"/></g><path d="M294.569 80.291a18.079 18.079 0 00-5.869-20.068c-18.708-14.822-41.466.057-62.482-4.242-20.909-4.798-40.055-28.772-63.221-23.04a18.073 18.073 0 00-13.654 15.83c-6.433 67.705-12.653 135.262 39.565 162.274a4.825 4.825 0 002.429.527c58.711-2.937 81.037-66.998 103.232-131.281zm-117.656 26.022c-7.012-3.477-11.28-10.361-13.45-14.89-1.148-2.395.178-5.07 2.78-5.606 4.917-1.013 12.979-1.784 19.992 1.692 7.013 3.475 11.281 10.36 13.451 14.889 1.149 2.396-.177 5.07-2.78 5.607-4.918 1.013-12.98 1.783-19.993-1.692zm19.422 76.336c-9.144-1.985-15.263-13.305-18.913-23.061-1.7-4.544 4.123-8.372 8.402-6.086 4.361 2.331 9.653 4.555 15.566 5.84 5.909 1.284 11.641 1.455 16.572 1.143 4.842-.306 8.559 5.593 5.128 9.024-7.361 7.365-17.615 15.124-26.755 13.14zm49.299-61.421h-.001c-7.823.256-14.84-3.788-18.896-6.749-2.146-1.566-2.244-4.55-.205-6.254 3.851-3.22 10.586-7.714 18.408-7.97 7.822-.257 14.841 3.788 18.897 6.75 2.145 1.567 2.243 4.55.205 6.254-3.851 3.221-10.587 7.716-18.407 7.969h-.001z" fill="url(#paint17_linear)"/></g><defs><linearGradient id="paint0_linear" x1="67.724" y1="276.5" x2="136.726" y2="299.836" gradientUnits="userSpaceOnUse"><stop stop-color="#D5320F"/><stop offset="1" stop-color="#FF8E78"/></linearGradient><linearGradient id="paint1_linear" x1="-254578" y1="217093" x2="-197065" y2="240070" gradientUnits="userSpaceOnUse"><stop stop-color="#FFC444"/><stop offset="1" stop-color="#F36F56"/></linearGradient><linearGradient id="paint2_linear" x1="59.122" y1="289.402" x2="26.677" y2="329.015" gradientUnits="userSpaceOnUse"><stop stop-color="#D5320F"/><stop offset="1" stop-color="#FF8E78"/></linearGradient><linearGradient id="paint3_linear" x1="-128477" y1="67678.7" x2="-92519.3" y2="81144" gradientUnits="userSpaceOnUse"><stop stop-color="#FFC444"/><stop offset="1" stop-color="#F36F56"/></linearGradient><linearGradient id="paint4_linear" x1="67.728" y1="276.502" x2="136.73" y2="299.838" gradientUnits="userSpaceOnUse"><stop stop-color="#D5320F"/><stop offset="1" stop-color="#FF8E78"/></linearGradient><linearGradient id="paint5_linear" x1="-254578" y1="217093" x2="-197065" y2="240070" gradientUnits="userSpaceOnUse"><stop stop-color="#FFC444"/><stop offset="1" stop-color="#F36F56"/></linearGradient><linearGradient id="paint6_linear" x1="59.122" y1="289.402" x2="26.677" y2="329.015" gradientUnits="userSpaceOnUse"><stop stop-color="#D5320F"/><stop offset="1" stop-color="#FF8E78"/></linearGradient><linearGradient id="paint7_linear" x1="-128477" y1="67678.7" x2="-92519.3" y2="81144" gradientUnits="userSpaceOnUse"><stop stop-color="#FFC444"/><stop offset="1" stop-color="#F36F56"/></linearGradient><linearGradient id="paint8_linear" x1="278.953" y1="187.016" x2="202.567" y2="210.538" gradientUnits="userSpaceOnUse"><stop stop-color="#D5320F"/><stop offset="1" stop-color="#FF8E78"/></linearGradient><linearGradient id="paint9_linear" x1="262546" y1="211476" x2="198868" y2="235363" gradientUnits="userSpaceOnUse"><stop stop-color="#FFC444"/><stop offset="1" stop-color="#F36F56"/></linearGradient><linearGradient id="paint10_linear" x1="287.487" y1="199.743" x2="317.878" y2="240.404" gradientUnits="userSpaceOnUse"><stop stop-color="#D5320F"/><stop offset="1" stop-color="#FF8E78"/></linearGradient><linearGradient id="paint11_linear" x1="135165" y1="64721.4" x2="95348.2" y2="78564.6" gradientUnits="userSpaceOnUse"><stop stop-color="#FFC444"/><stop offset="1" stop-color="#F36F56"/></linearGradient><linearGradient id="paint12_linear" x1="278.946" y1="187.012" x2="202.559" y2="210.534" gradientUnits="userSpaceOnUse"><stop stop-color="#D5320F"/><stop offset="1" stop-color="#FF8E78"/></linearGradient><linearGradient id="paint13_linear" x1="262546" y1="211476" x2="198868" y2="235363" gradientUnits="userSpaceOnUse"><stop stop-color="#FFC444"/><stop offset="1" stop-color="#F36F56"/></linearGradient><linearGradient id="paint14_linear" x1="287.487" y1="199.743" x2="317.878" y2="240.404" gradientUnits="userSpaceOnUse"><stop stop-color="#D5320F"/><stop offset="1" stop-color="#FF8E78"/></linearGradient><linearGradient id="paint15_linear" x1="135165" y1="64721.4" x2="95348.2" y2="78564.6" gradientUnits="userSpaceOnUse"><stop stop-color="#FFC444"/><stop offset="1" stop-color="#F36F56"/></linearGradient><linearGradient id="paint16_linear" x1="67.222" y1="213.333" x2="191.873" y2="166.508" gradientUnits="userSpaceOnUse"><stop stop-color="#00ACF9"/><stop offset=".13" stop-color="#1CBAE9"/><stop offset=".297" stop-color="#47C7ED"/><stop offset=".484" stop-color="#05B3E6"/><stop offset=".651" stop-color="#1E94E8"/><stop offset=".818" stop-color="#048AE6"/><stop offset="1" stop-color="#0173BA"/></linearGradient><linearGradient id="paint17_linear" x1="273.579" y1="136.662" x2="145.123" y2="117.918" gradientUnits="userSpaceOnUse"><stop stop-color="#FDC80D"/><stop offset=".109" stop-color="#F9B916"/><stop offset=".24" stop-color="#FCA31E"/><stop offset=".359" stop-color="#FFC700"/><stop offset=".484" stop-color="#FFC01D"/><stop offset=".651" stop-color="#FFE601"/><stop offset=".818" stop-color="#FFD746"/><stop offset="1" stop-color="#FFC700"/></linearGradient><clipPath id="clip0"><path fill="#fff" d="M0 0h346v336H0z"/></clipPath><filter id="filter0_f" x="144.064" y="104.246" width="47.742" height="85.232" filterUnits="userSpaceOnUse" color-interpolation-filters="sRGB"><feFlood flood-opacity="0" result="BackgroundImageFix"/><feBlend in="SourceGraphic" in2="BackgroundImageFix" result="shape"/><feGaussianBlur stdDeviation="2" result="effect1_foregroundBlur"/></filter></defs></svg>