<svg width="321" height="427" fill="none" xmlns="http://www.w3.org/2000/svg"><path d="M40.373 403.178L0 99.928l273.686-35.877 18.699 322.897-252.012 16.23z" fill="url(#paint0_linear)"/><path d="M32.965 123.494l219.615-29.15 4.952 35.114-219.616 29.15-4.951-35.114zm3.915 60.432l219.616-29.15 4.951 35.115-219.615 29.15zm4.222 59.463l219.615-29.15 4.951 35.115-219.615 29.15zm4.316 55.033l219.615-29.15 2.97 21.057-219.616 29.15zm7.262 45.342l41.461-5.503 4.887 34.657-41.461 5.503z" fill="#A3A3A3"/><g opacity=".15" filter="url(#filter0_f)"><path fill-rule="evenodd" clip-rule="evenodd" d="M291.181 89.454c-11.253 23.303-42.639 90.027-63.173 150.667a61.47 61.47 0 01-29.616 34.439 473.709 473.709 0 00-98.179 70.035 14.932 14.932 0 011.787 7.106c0 8.284-6.716 15-15 15-8.284 0-15-6.716-15-15 0-7.605 5.66-13.888 12.997-14.867a472.545 472.545 0 007.108-121.028 61.704 61.704 0 0113.505-43.42c23.41-28.734 46.614-61.668 64.659-88.547 19.705-29.352 58.678-39.66 89.625-22.57l27.093 14.96c4.691 2.59 6.524 8.4 4.194 13.225z" fill="#000"/></g><path fill-rule="evenodd" clip-rule="evenodd" d="M288.181 84.753c-11.253 23.303-42.639 90.027-63.173 150.667a61.47 61.47 0 01-29.616 34.439 473.665 473.665 0 00-98.179 70.035A14.933 14.933 0 0199 347c0 8.284-6.716 15-15 15-8.284 0-15-6.716-15-15 0-7.605 5.66-13.888 12.997-14.867a472.545 472.545 0 007.108-121.028 61.704 61.704 0 0113.505-43.42c23.41-28.734 46.614-61.668 64.659-88.548 19.705-29.351 58.678-39.66 89.625-22.57l27.093 14.96c4.691 2.59 6.524 8.401 4.194 13.226z" fill="url(#paint1_linear)"/><ellipse opacity=".6" cx="83.996" cy="346.994" rx="15.005" ry="14.995" transform="rotate(-89.959 83.996 346.994)" fill="url(#paint2_radial)"/><path d="M225.007 235.42c20.534-60.64 51.92-127.364 63.173-150.666 2.33-4.825.496-10.636-4.194-13.226L230.893 42.21c-16.412-9.063-37.084-3.617-47.272 12.121-18.721 28.92-49.682 74.898-81.012 113.355 0 0 39.375 40.586 41.66 69.174 50.39-13.414 78.202 6.01 80.738-1.44z" fill="url(#paint3_linear)"/><g style="mix-blend-mode:screen" opacity=".3" fill="#FFD480"><path d="M225.188 234.804c.388.297-2.148 2.011-6.376 1.303-4.159-.343-9.941-1.463-17.117-2.286a143.552 143.552 0 00-25.137-.914c-4.953.254-9.889.773-14.786 1.554l-7.747 1.44-10.512 2.491c-1.623-5.919-1.234-7.907-2.285-10.352a57.034 57.034 0 00-2.468-7.29 113.952 113.952 0 00-6.49-13.3 232.52 232.52 0 00-13.895-21.23c-8.592-11.701-14.443-18.602-13.894-19.105.548-.503 7.313 5.576 16.774 16.865a178.47 178.47 0 0115.128 21.07 109.63 109.63 0 017.061 13.711 55.849 55.849 0 012.72 7.862 36.495 36.495 0 011.188 5.462l5.53-1.303 8.045-1.394a126.349 126.349 0 0115.356-1.326 123.7 123.7 0 0125.961 2.08c14.58 3.245 22.761 5.599 22.944 4.662z" opacity=".02"/><path d="M223.955 235.306c0 1.599-9.256.319-23.196-1.692a141.868 141.868 0 00-39.352.8l-7.609 1.417-10.307 2.468c-1.6-5.736-1.211-7.838-2.148-10.192a55.16 55.16 0 00-2.285-7.176 110.367 110.367 0 00-6.331-13.094 217.658 217.658 0 00-13.597-20.933c-8.409-11.541-14.123-18.282-13.574-18.853.548-.572 7.153 5.507 16.408 16.659a170.49 170.49 0 0114.808 20.773 104.887 104.887 0 016.856 13.597 54.922 54.922 0 012.674 7.724c.511 1.76.893 3.555 1.143 5.371l5.461-1.28c2.628-.594 5.302-.914 7.884-1.394a126.965 126.965 0 0115.106-1.325c8.552-.263 17.107.373 25.526 1.896 7.176 1.28 12.798 2.88 16.637 3.862 3.839.983 5.804 1.12 5.896 1.372z" opacity=".03"/><path d="M222.63 235.424c0 1.303-9.027-.16-22.853-1.988a148.423 148.423 0 00-24.292-.663c-4.786.281-9.554.815-14.283 1.6-2.468.48-4.982.8-7.496 1.417l-10.215 2.445a30.594 30.594 0 01-1.302-6.353 20.614 20.614 0 00-.823-3.656 53.34 53.34 0 00-2.285-7.062 110.693 110.693 0 00-6.17-12.911 220.81 220.81 0 00-13.323-20.568c-8.205-11.426-13.712-18.122-13.255-18.624.457-.503 7.016 5.484 15.997 16.476a169.553 169.553 0 0114.488 20.567 101.67 101.67 0 016.719 13.392 56.108 56.108 0 012.605 7.61 31.207 31.207 0 011.097 5.256l5.37-1.234c2.606-.617 5.211-.937 7.77-1.394a117.553 117.553 0 0114.832-1.348c8.416-.307 16.841.268 25.137 1.714a210.5 210.5 0 0122.282 5.324z" opacity=".05"/><path d="M221.304 235.397c0 1.074-8.799-.48-22.373-2.102a142.235 142.235 0 00-23.995-.48c-4.711.27-9.403.804-14.054 1.6-2.423.48-4.891.777-7.359 1.394l-10.009 2.285a29.854 29.854 0 01-1.28-6.239 18.283 18.283 0 00-.8-3.61 45.681 45.681 0 00-2.285-6.856 103.433 103.433 0 00-6.01-12.706 213.565 213.565 0 00-12.981-20.316c-8.021-11.244-13.528-17.871-12.98-18.282.549-.411 6.856 5.393 15.723 16.248a166.083 166.083 0 0114.168 20.179 102.709 102.709 0 016.559 13.186 47.866 47.866 0 012.514 7.472c.503 1.69.87 3.417 1.097 5.165l5.256-1.211c2.559-.617 5.142-.914 7.632-1.371a114.005 114.005 0 0114.58-1.371c8.258-.322 16.527.191 24.681 1.531a147.678 147.678 0 0116.134 3.679c3.725.983 5.782 1.463 5.782 1.805z" opacity=".07"/><path d="M219.958 235.262c0 .937-8.569-.617-21.961-2.149a143.476 143.476 0 00-23.561-.319c-4.598.289-9.176.838-13.711 1.645-2.286.457-4.799.754-7.222 1.371l-9.849 2.285c-.631-2-1.053-4.06-1.257-6.147a17.486 17.486 0 00-.754-3.542 46.727 46.727 0 00-2.286-6.856 96.873 96.873 0 00-5.873-12.5 216.21 216.21 0 00-12.66-20.019c-7.838-11.084-13.209-17.619-12.683-18.099.526-.48 6.741 5.347 15.38 15.997a164.316 164.316 0 0113.825 19.881 96.687 96.687 0 016.422 12.98 51.48 51.48 0 012.445 7.359 20.27 20.27 0 01.869 3.908c.297 1.828 0 .708.205 1.165l5.165-1.211c2.514-.617 5.027-.891 7.496-1.348a114.174 114.174 0 0114.305-1.417c8.115-.343 16.245.116 24.27 1.371a151.033 151.033 0 0115.882 3.565c3.588 1.165 5.599 1.874 5.553 2.08z" opacity=".08"/><path d="M218.651 235.054c-.137.868-8.409-.708-21.572-2.08a137.62 137.62 0 00-23.173-.182 122.68 122.68 0 00-13.551 1.645c-2.286.457-4.731.731-7.108 1.348l-9.666 2.285a27.38 27.38 0 01-1.234-6.01 18.326 18.326 0 00-.754-3.496 48.103 48.103 0 00-2.171-6.719 98.574 98.574 0 00-5.713-12.317 214.157 214.157 0 00-12.387-19.699c-7.655-10.901-12.866-17.368-12.363-17.825.503-.457 6.582 5.279 15.037 15.814a163.389 163.389 0 0113.506 19.584 90.892 90.892 0 016.239 12.775 50.54 50.54 0 012.285 7.221c.413 1.255.696 2.55.846 3.862.032.378.093.752.182 1.12l5.074-1.188c2.468-.617 4.959-.891 7.358-1.326a114.615 114.615 0 0114.054-1.439 118.16 118.16 0 0123.836 1.234c13.528 2.262 21.321 4.959 21.275 5.393z" opacity=".1"/><path d="M217.329 234.828c-.138.822-8.227-.777-21.162-1.966-7.604-.64-15.248-.64-22.852 0-4.468.315-8.916.872-13.323 1.668-2.286.457-4.571.709-6.993 1.349l-9.484 2.285a28.172 28.172 0 01-1.211-5.896 17.549 17.549 0 00-.732-3.428 49.617 49.617 0 00-2.102-6.627 91.973 91.973 0 00-5.576-12.112 211.218 211.218 0 00-12.066-19.425c-7.496-10.717-12.592-17.07-12.066-17.527.525-.457 6.421 5.233 14.717 15.585a161.22 161.22 0 0113.14 19.31 85.373 85.373 0 016.102 12.546 52.904 52.904 0 012.285 7.108c.392 1.228.667 2.49.823 3.77.228 1.531 0 .686.182 1.097l4.982-1.165c2.4-.64 4.845-.869 7.222-1.303a110.473 110.473 0 0113.711-1.463 115.013 115.013 0 0123.401 1.097c13.437 1.943 21.07 4.662 21.002 5.097z" opacity=".11"/><path d="M216.025 234.601c-.137.777-8.067-.823-20.796-1.874a137.384 137.384 0 00-22.35 0c-4.182.411-8.592.8-13.071 1.691-2.286.457-4.571.708-6.856 1.325l-9.301 2.286a27.21 27.21 0 01-1.211-5.805 16.873 16.873 0 00-.686-3.359 55.544 55.544 0 00-2.056-6.513 86.245 86.245 0 00-5.439-11.906 200.398 200.398 0 00-11.747-19.105c-7.335-10.558-12.294-16.842-11.791-17.276.502-.435 6.284 5.164 14.374 15.356a159.464 159.464 0 0112.843 19.014 82.306 82.306 0 015.919 12.34 51.803 51.803 0 012.285 6.856c.377 1.214.637 2.461.777 3.725.228 1.394 0 .685.206 1.051l4.867-1.143c2.285-.617 4.776-.868 7.084-1.302 4.479-.742 8.996-1.23 13.529-1.463 7.631-.43 15.285-.108 22.853.96 13.071 1.988 20.635 4.685 20.567 5.142z" opacity=".13"/><path d="M214.701 234.326c0 .754-7.884-.8-20.385-1.714a141.56 141.56 0 00-21.938.137c-4.114.434-8.433.8-12.843 1.691-2.286.434-4.571.709-6.719 1.326l-9.141 2.171a26.542 26.542 0 01-1.188-5.713 16.542 16.542 0 00-.663-3.291 53.342 53.342 0 00-1.988-6.399 89.825 89.825 0 00-5.302-11.7 191.515 191.515 0 00-11.426-18.808c-7.107-10.398-11.952-16.568-11.426-17.002.525-.434 6.147 5.096 14.031 15.151a147.562 147.562 0 0112.546 18.693 84.114 84.114 0 015.759 12.135 58.188 58.188 0 012.285 6.856c.356 1.195.609 2.418.754 3.656.206 1.28 0 .686.183 1.051l4.799-1.119c2.285-.617 4.571-.892 6.856-1.303a127.891 127.891 0 0113.254-1.485 118.86 118.86 0 0122.556.822c12.774 1.76 20.11 4.388 19.996 4.845z" opacity=".15"/><path d="M213.401 234.076c-.137.709-7.747-.754-20.019-1.6a149.596 149.596 0 00-21.527.252c-4.022.48-8.25.845-12.592 1.714-2.148.411-4.364.708-6.581 1.302l-8.981 2.126a23.975 23.975 0 01-1.143-5.576 22.514 22.514 0 00-.64-3.245 55.851 55.851 0 00-1.965-6.285 88.153 88.153 0 00-5.142-11.426 186.443 186.443 0 00-11.152-18.465c-6.856-10.238-11.7-16.317-11.175-16.728.526-.411 6.011 4.982 13.712 14.923a141.248 141.248 0 0112.226 18.282 87.333 87.333 0 015.622 11.929 59.23 59.23 0 012.148 6.718c.329 1.177.573 2.376.731 3.588.183 1.12 0 .663.183 1.006l4.685-1.097c2.285-.594 4.57-.892 6.855-1.28a129.973 129.973 0 0113.003-1.508c7.38-.436 14.783-.206 22.122.685 12.409 1.669 19.744 4.205 19.63 4.685z" opacity=".16"/><path d="M212.05 233.8c-.137.686-7.609-.686-19.63-1.463a163.885 163.885 0 00-21.116.366c-3.953.526-8.112.868-12.34 1.737-2.125.411-4.319.708-6.467 1.302l-8.798 2.08a23.212 23.212 0 01-1.143-5.485 21.726 21.726 0 00-.617-3.176 58.75 58.75 0 00-1.897-6.17 92.858 92.858 0 00-4.982-11.427 180.368 180.368 0 00-10.9-18.167c-6.742-10.055-11.427-15.997-10.878-16.454.548-.457 5.873 4.936 13.369 14.694a141.784 141.784 0 0111.906 18.076 85.538 85.538 0 015.439 11.724 58.343 58.343 0 012.102 6.581c.323 1.153.552 2.33.686 3.519.037.332.098.661.182.983l4.571-1.074c2.285-.571 4.57-.891 6.673-1.257 4.365-.845 8.661-1.142 12.729-1.531a128.462 128.462 0 0121.687.549c12.34 1.691 19.562 4.113 19.424 4.593z" opacity=".18"/><path d="M210.77 233.547c-.114.663-7.427-.64-19.241-1.303a159.529 159.529 0 00-20.613.526c-3.862.48-7.93.868-12.089 1.737-2.08.366-4.205.708-6.33 1.257l-8.639 2.056a23.67 23.67 0 01-1.12-5.37 20.457 20.457 0 00-.594-3.131 58.117 58.117 0 00-1.828-6.056 98.276 98.276 0 00-4.845-11.106 179.06 179.06 0 00-10.603-17.848c-6.582-9.872-11.061-15.768-10.581-16.179.48-.412 5.713 4.89 13.026 14.465a136.293 136.293 0 0111.586 17.757 88.792 88.792 0 015.302 11.426 57.9 57.9 0 012.011 6.49c.323 1.13.552 2.284.686 3.451.035.315.089.628.16.937l4.57-1.051c2.285-.549 4.388-.892 6.536-1.234 4.296-.823 8.501-1.166 12.477-1.532a127.088 127.088 0 0121.253.412c11.906 1.462 18.991 3.816 18.876 4.296z" opacity=".2"/><path d="M209.465 233.297c-.114.64-7.29-.64-18.876-1.143a147.032 147.032 0 00-20.27.594c-3.793.435-7.77.892-11.86 1.714-2.034.366-4.137.709-6.193 1.257l-8.456 2.011a19.77 19.77 0 01-1.097-5.279 23.413 23.413 0 00-.571-3.062c-.64-2.011-1.006-4.045-1.783-5.942a96.6 96.6 0 00-4.707-10.9 181.867 181.867 0 00-10.284-17.528c-6.444-9.69-10.786-15.517-10.329-15.997.457-.48 5.553 4.822 12.706 14.214a140.902 140.902 0 0111.289 17.46 96.025 96.025 0 015.142 11.312 64.119 64.119 0 011.942 6.33 23.29 23.29 0 01.663 3.382c.114.777 0 .663.16.937l4.433-1.028a57.018 57.018 0 016.399-1.234c4.205-.8 8.295-1.166 12.203-1.532 6.935-.5 13.901-.401 20.819.298 11.815 1.325 18.785 3.61 18.67 4.136z" opacity=".21"/><path d="M208.166 233.022c-.115.663-7.153-.571-18.488-.937a142.711 142.711 0 00-19.882.686c-3.702.411-7.61.891-11.586 1.691-2.011.343-4.045.708-6.079 1.234l-8.295 1.965a20.965 20.965 0 01-1.074-5.141 27.021 27.021 0 00-.549-3.017c-.594-1.965-.982-3.953-1.714-5.827a101.648 101.648 0 00-4.57-10.695 190.447 190.447 0 00-10.009-17.231c-6.262-9.507-10.49-15.22-10.033-15.608.457-.389 5.439 4.753 12.386 13.985a144.292 144.292 0 0110.97 17.14 91.572 91.572 0 014.981 11.083c.8 1.966 1.257 4.114 1.897 6.239.289 1.08.495 2.18.617 3.291.016.312.078.62.183.914l4.319-1.006a63.444 63.444 0 016.262-1.234c4.113-.754 8.135-1.188 11.974-1.508a116.823 116.823 0 0120.385.183c11.563 1.12 18.396 3.359 18.305 3.793z" opacity=".23"/><path d="M206.841 232.772c0 .617-6.993-.503-18.099-.8a141.46 141.46 0 00-19.448.777c-3.633.389-7.449.915-11.426 1.691-1.965.32-3.953.709-5.964 1.234l-8.113 1.92a20.43 20.43 0 01-1.051-5.027c-.116-1-.291-1.992-.526-2.971-.571-1.92-.982-3.862-1.645-5.713a104.835 104.835 0 00-4.434-10.49 183.64 183.64 0 00-9.712-16.888c-6.056-9.392-10.215-14.968-9.758-15.334.457-.365 5.325 4.571 12.066 13.712a147.945 147.945 0 0110.672 16.819 97.331 97.331 0 014.822 10.878c.732 1.942 1.211 4.045 1.828 6.102.26 1.069.458 2.153.595 3.245 0 .548 0 .64.16.868l4.25-.983a59.305 59.305 0 016.125-1.211c3.87-.71 7.776-1.213 11.7-1.508a117.617 117.617 0 0119.95 0c11.381 1.143 18.1 3.245 18.008 3.679z" opacity=".25"/><path d="M205.513 232.565c0 .571-6.856-.412-17.711-.663a137.113 137.113 0 00-19.036.891c-3.565.366-7.29.914-11.107 1.668-1.919.32-3.862.709-5.827 1.234l-7.93 1.874a18.663 18.663 0 01-1.051-4.936c-.16-.96-.229-1.942-.48-2.902l-1.622-5.599a91.54 91.54 0 00-4.297-10.284 179.127 179.127 0 00-9.415-16.568c-5.873-9.141-9.918-14.694-9.461-15.037.457-.342 5.188 4.571 11.723 13.506a135.244 135.244 0 0110.353 16.5 89.494 89.494 0 014.707 10.649l1.76 5.987c.274 1.006.366 2.103.548 3.154.026.296.087.587.183.868l4.137-.982a57.767 57.767 0 015.987-1.189 100.95 100.95 0 0111.426-1.485 111.58 111.58 0 0119.516 0c11.107.891 17.711 2.834 17.597 3.314z" opacity=".26"/><path d="M204.214 232.333c0 .571-6.696-.343-17.345-.526-6.216-.066-12.43.27-18.602 1.006-3.497.343-7.13.937-10.878 1.645-1.874.297-3.771.732-5.69 1.212l-7.77 1.851a18.172 18.172 0 01-1.006-4.822l-.479-2.857-1.554-5.484a96.2 96.2 0 00-4.16-10.055 166.371 166.371 0 00-9.141-16.272c-5.69-9.003-9.598-14.419-9.141-14.762.457-.343 5.028 4.57 11.427 13.277a126.502 126.502 0 0110.032 16.202 85.537 85.537 0 014.57 10.421l1.714 5.85.526 3.086c.01.29.072.576.183.845l4.045-.96c1.965-.48 3.907-.891 5.85-1.165a107.438 107.438 0 0111.175-1.486 114.709 114.709 0 0119.082-.205c10.786.891 17.253 2.719 17.162 3.199z" opacity=".28"/><path d="M202.906 232.109c0 .571-6.535-.297-16.956-.389-6.11.011-12.215.377-18.282 1.097-3.405.343-6.856.983-10.627 1.668-1.828.274-3.679.731-5.553 1.189l-7.587 1.805a17.737 17.737 0 01-1.005-4.731l-.435-2.765-1.508-5.393a101.712 101.712 0 00-4.045-9.849 161.049 161.049 0 00-8.866-15.997c-5.554-8.844-9.301-14.169-8.89-14.489.411-.32 4.89 4.434 11.083 13.026a123.815 123.815 0 019.736 15.997 89.528 89.528 0 014.433 10.192l1.645 5.713.503 3.04c.014.273.067.542.16.8l3.953-.937c1.943-.457 3.84-.891 5.714-1.143a109.589 109.589 0 0110.946-1.485 121.068 121.068 0 0118.648-.32c10.672.731 16.933 2.536 16.933 2.971z" opacity=".3"/><path d="M201.562 231.925c0 .571-6.376-.274-16.545-.252-5.945.04-11.881.429-17.78 1.166-3.336.32-6.855 1.006-10.398 1.645-1.782.275-3.587.732-5.416 1.166l-7.427 1.759a16.211 16.211 0 01-.959-4.57l-.435-2.765-1.462-5.256a95.3 95.3 0 00-3.908-9.644 154.225 154.225 0 00-8.57-15.631c-5.37-8.661-9.141-13.849-8.615-14.192.526-.342 4.776 4.365 10.763 12.798a118.466 118.466 0 019.416 15.562 93.845 93.845 0 014.296 9.987l1.6 5.599.457 2.902c0 .274 0 .64.182.823l3.863-.891c1.873-.457 3.725-.892 5.576-1.166 3.702-.617 7.244-1.211 10.672-1.462a119.614 119.614 0 0118.282-.412c10.283.663 16.499 2.4 16.408 2.834z" opacity=".31"/><path d="M200.233 231.721c0 .526-6.239-.137-16.157 0-5.808.046-11.609.45-17.368 1.211-3.245.298-6.627 1.006-10.123 1.623-1.76.274-3.52.731-5.302 1.165l-7.267 1.714a16.233 16.233 0 01-.937-4.387l-.411-2.765-1.417-5.142a86.398 86.398 0 00-3.771-9.438 149.02 149.02 0 00-8.273-15.289c-5.187-8.501-8.752-13.597-8.341-13.917.412-.32 4.571 4.274 10.444 12.546a113.629 113.629 0 019.141 15.266 79.077 79.077 0 014.136 9.758l1.554 5.461.434 2.788c.03.296.091.587.183.869l3.771-.891c1.851-.435 3.633-.892 5.462-1.143 3.587-.571 7.061-1.234 10.397-1.463 5.905-.619 11.85-.78 17.78-.48 10.055.526 16.156 2.08 16.065 2.514z" opacity=".33"/><path d="M198.909 231.538c0 .502-6.078 0-15.768 0-5.666.071-11.321.498-16.934 1.279-3.199.297-6.467 1.029-9.895 1.6-1.714.251-3.428.754-5.187 1.143l-7.062 1.691a14.478 14.478 0 01-.914-4.251l-.411-2.742-1.371-5.005a82.667 82.667 0 00-3.634-9.141 149.524 149.524 0 00-7.975-14.991c-5.028-8.318-8.502-13.277-8.09-13.597.411-.32 4.57 4.182 10.146 12.272a116.554 116.554 0 018.799 14.968 77.586 77.586 0 013.976 9.529l1.485 5.348.434 2.674c.008.298.07.592.183.868l3.68-.868c1.782-.389 3.542-.869 5.301-1.12 3.52-.549 6.856-1.234 10.17-1.44a106.966 106.966 0 0117.322-.548c9.872.457 15.837 1.896 15.745 2.331z" opacity=".34"/><path d="M197.609 231.355c0 .525-5.964 0-15.402.228-5.529.103-11.046.538-16.523 1.303-3.108.297-6.284 1.074-9.644 1.6l-11.951 2.856c-.663-.822-.572-2.765-.892-4.068l-.411-2.742-1.303-4.89a77.947 77.947 0 00-3.496-9.027 143.736 143.736 0 00-7.701-14.648c-4.868-8.136-8.204-13.026-7.816-13.301.389-.274 4.365 4.114 9.827 12.021a116.282 116.282 0 018.501 14.625 71.144 71.144 0 013.816 9.347l1.463 5.188.388 2.559c0 .297 0 .709.183.891l3.611-.845c1.737-.366 3.451-.869 5.164-1.097 3.428-.503 6.696-1.234 9.896-1.44 5.604-.642 11.25-.856 16.888-.64 9.643.297 15.448 1.691 15.402 2.08z" opacity=".36"/><path d="M196.26 231.217c0 .479-5.782 0-14.992.319-5.353.166-10.693.624-15.996 1.372-3.04.32-6.148 1.074-9.416 1.599l-11.632 2.697c-1.394-6.17-1.348-7.861-2.536-11.426a72.862 72.862 0 00-3.359-8.821 141.106 141.106 0 00-7.428-14.329c-4.707-7.953-7.929-12.729-7.518-13.026.411-.297 4.205 4.068 9.484 11.792a108.15 108.15 0 018.204 14.306 68.922 68.922 0 013.679 9.141c.457 1.668 1.006 3.313 1.394 5.073.125 1.122.316 2.236.571 3.336l8.524-1.919c3.36-.48 6.536-1.166 9.644-1.417a112.387 112.387 0 0116.477-.686c9.301.275 14.968 1.577 14.9 1.989z" opacity=".38"/><path d="M194.932 231.077c0 .48-5.622 0-14.603.411-4.57.183-9.803.617-15.676 1.44-2.948.366-5.965 1.051-9.141 1.577l-11.427 2.651c-1.348-5.896-1.302-7.724-2.468-11.129a76.524 76.524 0 00-3.176-8.616 142.167 142.167 0 00-7.199-13.985c-4.57-7.77-7.632-12.432-7.244-12.706.388-.275 4.091 3.953 9.141 11.426 3 4.455 5.658 9.13 7.953 13.986a69.98 69.98 0 013.496 8.889 60.874 60.874 0 011.92 8.181l8.295-1.851c3.245-.502 6.376-1.142 9.393-1.439a120.39 120.39 0 0115.996-.754c9.256.297 14.809 1.531 14.74 1.919z" opacity=".39"/><path d="M193.609 230.943c0 .457-5.484.159-14.214.525-4.365.229-9.552.663-15.265 1.486l-8.89 1.554-11.038 2.605c-1.348-5.645-1.279-7.587-2.399-10.832a75.376 75.376 0 00-3.04-8.41 138.906 138.906 0 00-6.855-13.712c-4.342-7.609-7.359-12.157-6.993-12.431.365-.275 3.976 3.862 8.867 11.289a104.291 104.291 0 017.655 13.711 69.238 69.238 0 013.359 8.684 62.576 62.576 0 011.829 7.976l8.089-1.851 9.141-1.417a127.821 127.821 0 0115.586-.823c8.821.16 14.328 1.189 14.168 1.646z" opacity=".41"/><path d="M192.284 230.804c0 .48-5.325.252-13.712.64-4.251.274-9.278.731-14.831 1.508l-8.661 1.554-10.741 2.56c-1.303-5.393-1.211-7.45-2.285-10.558a74.94 74.94 0 00-2.903-8.204 140.435 140.435 0 00-6.673-13.3c-4.159-7.427-7.061-11.861-6.718-12.112.343-.251 3.862 3.771 8.57 11.015a106.98 106.98 0 017.358 13.277 70.8 70.8 0 013.199 8.479 59.771 59.771 0 011.783 7.746l7.838-1.805 8.867-1.417a137.164 137.164 0 0115.174-.891c8.501.16 13.78 1.188 13.735 1.508z" opacity=".43"/><path d="M190.954 230.713c0 .434-5.187.274-13.437.754-4.137.229-9.027.754-14.42 1.509l-8.41 1.531-10.421 2.491c-1.302-5.119-1.188-7.29-2.285-10.238a76.321 76.321 0 00-2.765-7.999c-2.285-4.959-4.388-9.346-6.399-12.957-4.022-7.244-6.855-11.586-6.467-11.838.389-.251 3.725 3.703 8.25 10.764a110.554 110.554 0 017.107 12.957 74.2 74.2 0 013.039 8.273 59.288 59.288 0 011.691 7.496l7.633-1.76 8.616-1.394c4.884-.584 9.797-.889 14.717-.914 8.455.068 13.574.96 13.551 1.325z" opacity=".44"/><path d="M189.609 230.649c0 .389-5.028.274-13.026.846-4.022.228-8.753.777-13.986 1.554l-8.181 1.485-10.124 2.422c-1.257-4.89-1.12-7.152-2.148-9.963a79.343 79.343 0 00-2.651-7.77 135.208 135.208 0 00-6.124-12.638c-3.862-7.038-6.559-11.266-6.193-11.426.365-.16 3.565 3.611 7.93 10.489a108.106 108.106 0 016.855 12.638 64.756 64.756 0 014.571 15.311l7.404-1.714 8.341-1.348c4.745-.608 9.522-.929 14.306-.96 8.044-.137 13.071.686 13.026 1.074z" opacity=".46"/><path d="M188.283 230.487c0 .388-4.891.343-12.638.937-3.885.228-8.478.845-13.574 1.6l-7.93 1.462-9.827 2.285c-1.234-4.57-1.074-6.992-2.056-9.666a68.38 68.38 0 00-2.537-7.564c-1.737-4.197-3.69-8.3-5.85-12.295-3.725-6.856-6.285-10.969-5.942-11.221.343-.251 3.428 3.543 7.656 10.238a98.915 98.915 0 016.467 12.318 59.79 59.79 0 012.811 7.793 67.02 67.02 0 011.577 7.061l7.153-1.668 8.181-1.28c4.592-.61 9.216-.946 13.848-1.006 7.839-.045 12.684.709 12.661 1.006z" opacity=".48"/><path d="M186.913 230.486c0 .389-4.73.389-12.249 1.029-3.771.228-8.227.845-13.14 1.622l-7.679 1.44-9.529 2.285c-1.211-4.41-1.028-6.856-1.988-9.369a61.78 61.78 0 00-2.445-7.359 118.128 118.128 0 00-5.576-11.952c-3.543-6.673-6.011-10.695-5.668-10.9.343-.206 3.291 3.45 7.313 9.963a91.117 91.117 0 016.216 11.975 53.572 53.572 0 012.674 7.564 69.545 69.545 0 011.508 6.856l6.856-1.6 7.861-1.325c4.438-.63 8.91-.988 13.391-1.074 7.885-.183 12.455.48 12.455.845z" opacity=".49"/><path d="M185.608 230.489c0 .479-4.571.365-11.838 1.119-3.656.252-7.975.846-12.729 1.646l-7.427 1.417-9.141 2.285c-1.188-4.159-.982-6.673-1.896-9.141a57.487 57.487 0 00-2.286-7.107 110.314 110.314 0 00-5.324-11.632c-3.36-6.49-5.713-10.398-5.416-10.581.297-.183 3.199 3.337 7.015 9.69a86.557 86.557 0 015.942 11.631 51.306 51.306 0 012.56 7.336c.914 2.445 1.119 6.033 1.439 6.604l6.719-1.553c2.605-.572 5.165-.892 7.587-1.303a109.348 109.348 0 0112.98-1.12 66.258 66.258 0 018.776.206c1.919.068 3.062.251 3.039.503z" opacity=".51"/><path d="M184.283 230.485c0 .411-4.41.457-11.426 1.142-3.519.389-7.724.823-12.295 1.691-2.285.457-4.73.777-7.198 1.394l-8.936 2.126c-1.142-3.954-.914-6.491-1.805-8.776a46.922 46.922 0 00-2.285-6.856 98.03 98.03 0 00-5.051-11.266c-3.222-6.307-5.461-10.101-5.141-10.306.32-.206 3.039 3.268 6.695 9.438a79.521 79.521 0 015.668 11.289 45.439 45.439 0 012.422 7.107c.914 2.422 1.029 5.782 1.371 6.376l6.513-1.508c2.514-.572 5.005-.846 7.336-1.257 4.149-.621 8.33-1.01 12.523-1.166 7.199-.388 11.609.206 11.609.572z" opacity=".52"/><path d="M182.938 230.485c0 .343-4.251.503-11.061 1.165-3.382.48-7.45.8-11.86 1.714-2.285.457-4.571.732-6.856 1.371l-8.615 2.034a83.36 83.36 0 00-8.661-26.074c-3.04-6.125-5.234-9.781-4.891-9.987.343-.206 2.925 3.177 6.399 9.141a76.024 76.024 0 015.37 10.924 48.605 48.605 0 012.286 6.855c.891 2.286.937 5.531 1.302 6.171l6.285-1.463c2.422-.617 4.821-.846 7.061-1.234a112.804 112.804 0 0112.112-1.234c6.878-.251 11.152.183 11.129.617z" opacity=".54"/><path d="M181.611 230.488c-.526.64-15.289.502-37.113 6.284-3.679-21.938-13.871-33.982-12.889-34.918a37.73 37.73 0 016.125 8.912 77.15 77.15 0 015.096 10.604 48.878 48.878 0 012.285 6.627c.846 2.285.869 5.279 1.234 5.941l6.079-1.416c2.285-.595 4.57-.823 6.856-1.212 4.342-.799 8.341-.937 11.677-1.256 6.536-.343 10.65-.046 10.65.434z" opacity=".56"/><path d="M180.263 230.484c-.48.708-14.694.662-35.741 6.216-3.497-21.116-13.095-32.84-12.226-33.708.251-.16 2.673 3.017 5.873 8.615a88.112 88.112 0 014.821 10.261 52.493 52.493 0 012.08 6.399c.754 2.285.8 5.028 1.166 5.713a132.542 132.542 0 0123.629-3.793c6.444-.389 10.421-.16 10.398.297z" opacity=".57"/><path d="M178.935 230.482c-.48.777-14.123.8-34.279 6.17-3.313-20.316-12.317-31.719-11.54-32.519.274-.16 2.513 2.925 5.576 8.318a83.043 83.043 0 014.57 9.918 54.207 54.207 0 011.965 6.17c.686 2.286.755 4.777 1.097 5.508a126.822 126.822 0 0122.739-3.725 35.719 35.719 0 019.872.16z" opacity=".59"/><path d="M177.612 230.485c-.457.731-13.552.937-33.022 6.078-3.131-19.538-11.701-30.553-10.901-31.33.274-.16 2.285 2.833 5.256 8.044a73.837 73.837 0 014.342 9.552c.754 1.828 1.211 3.885 1.851 5.942.64 2.056.663 4.57 1.029 5.279a122.178 122.178 0 0121.824-3.634 33.567 33.567 0 019.621.069z" opacity=".61"/><path d="M176.263 230.485c-.412.662-12.98 1.028-31.651 5.964-2.902-18.785-11.06-29.365-10.215-30.142a32.422 32.422 0 014.936 7.792 77.7 77.7 0 014.114 9.141l1.714 5.713c.548 2.286.639 4.297.982 5.051 14.854-3.999 30.623-4.159 30.12-3.519z" opacity=".62"/><path d="M174.939 230.485c-.412.595-12.409 1.143-30.303 5.828-2.673-17.962-10.398-28.177-9.598-28.909a29.42 29.42 0 014.571 7.496 81.855 81.855 0 013.885 8.798 389.84 389.84 0 001.599 5.485c.572 1.896.549 4.045.892 4.822 14.328-3.748 29.502-4.114 28.954-3.52z" opacity=".64"/><path d="M173.587 230.621c-.388.525-11.814 1.257-28.908 5.713-2.605-17.139-9.689-27.035-8.981-27.697a27.985 27.985 0 014.388 7.198 67.058 67.058 0 013.61 8.456c.503 1.668 1.006 3.428 1.531 5.233.191 1.539.473 3.065.846 4.57 13.574-3.61 27.949-4.159 27.514-3.473z" opacity=".66"/><path d="M172.265 230.694c-.366.571-11.267 1.28-27.561 5.599-2.491-16.34-8.935-25.892-8.364-26.486a27.411 27.411 0 014.137 6.855 59.248 59.248 0 015.576 17.483c12.911-3.497 26.623-4.023 26.212-3.451z" opacity=".67"/><path d="M170.916 230.758c-.32.64-10.695 1.303-26.167 5.462-2.399-15.494-8.272-24.681-7.769-25.138a25.919 25.919 0 013.862 6.582 61.875 61.875 0 015.164 16.659c12.272-3.519 25.321-4.022 24.91-3.565z" opacity=".69"/><path d="M169.591 230.899c-.297.617-10.146 1.303-24.817 5.279-2.286-14.717-7.702-23.469-7.153-24.018a29.12 29.12 0 013.588 6.307 61.756 61.756 0 014.753 15.814c11.655-3.268 23.995-3.793 23.629-3.382z" opacity=".7"/><path d="M168.263 231.057c-.275.549-9.576 1.326-23.447 5.073-2.125-13.894-7.107-22.258-6.627-22.852 0-.617 6.238 9.872 7.747 20.978 11.015-2.993 22.692-3.633 22.327-3.199z" opacity=".72"/><path d="M166.941 231.195c-.274.48-8.981 1.417-22.098 4.89-2.011-13.094-6.467-21.07-6.079-21.527.389-.457 5.713 9.415 7.153 19.836 10.375-2.834 21.321-3.656 21.024-3.199z" opacity=".74"/><path d="M165.614 231.33c-.274.411-8.433 1.508-20.75 4.708-1.897-12.272-5.828-19.882-5.508-20.27.32-.389 5.165 8.935 6.513 18.67 9.758-2.582 20.019-3.565 19.745-3.108z" opacity=".75"/><path d="M164.285 231.491c-.252.365-7.862 1.531-19.379 4.57a127.611 127.611 0 00-4.982-18.99c.206-.572 4.57 8.455 5.919 17.505 9.072-2.446 18.693-3.542 18.442-3.085z" opacity=".77"/><path d="M162.963 231.631c-.228.457-7.29 1.531-18.03 4.296-1.554-10.672-4.799-17.368-4.434-17.734a47.745 47.745 0 015.325 16.363 82.802 82.802 0 0117.139-2.925z" opacity=".79"/><path d="M161.639 231.858c-.206.388-6.719 1.485-16.659 4.022a127.343 127.343 0 00-4-16.454 42.43 42.43 0 014.8 15.174 75.705 75.705 0 0115.859-2.742z" opacity=".8"/><path d="M160.308 232.087c-.182.297-6.17 1.417-15.311 3.725a128.796 128.796 0 00-3.542-15.128 40.416 40.416 0 014.296 13.963 69.03 69.03 0 0114.557-2.56z" opacity=".82"/><path d="M159.011 232.314c-.183.228-5.622 1.348-13.963 3.451-1.211-8.227-3.314-13.712-3.108-13.849a39.53 39.53 0 013.77 12.775 63.778 63.778 0 0113.301-2.377z" opacity=".84"/><path d="M157.683 232.542a17.676 17.676 0 01-3.565.914l-9.141 2.285c-.914-3.77-1.074-6.855-1.828-8.935l-.823-3.611a39.816 39.816 0 013.268 11.564 56.576 56.576 0 0112.089-2.217z" opacity=".85"/><path d="M156.383 232.771a25.154 25.154 0 01-3.199.891l-8.09 2.011c-1.097-6.559-2.285-11.06-2.285-11.243a43.892 43.892 0 012.765 10.375 58.324 58.324 0 0110.809-2.034z" opacity=".87"/><path d="M155.057 233.001s-3.931 1.234-9.918 2.628a381.882 381.882 0 00-1.897-9.918 39.3 39.3 0 012.285 9.141 58.97 58.97 0 019.53-1.851z" opacity=".89"/><path d="M153.755 233.254a65.001 65.001 0 01-8.592 2.285c-.937-4.913-1.577-8.547-1.577-8.547a33.564 33.564 0 011.988 7.884 72.283 72.283 0 018.181-1.622z" opacity=".9"/><path d="M152.452 233.574a61.84 61.84 0 01-7.244 1.942 71.194 71.194 0 01-1.257-7.221 34.915 34.915 0 011.6 6.673 52.648 52.648 0 016.901-1.394z" opacity=".92"/><path d="M151.145 233.869s-2.285.777-5.918 1.599a28.187 28.187 0 01-.915-5.896c.206-.16.503 2.903 1.212 5.439a44.286 44.286 0 015.621-1.142z" opacity=".93"/><path d="M149.845 234.186s-1.919.594-4.57 1.234a18.564 18.564 0 01-.709-4.57c.138 0 .343 2.285.937 4.159 2.263-.48 4.342-.823 4.342-.823z" opacity=".95"/><path d="M148.545 234.484s-1.416.435-3.245.869a9.936 9.936 0 01-.548-3.154s.206 1.6.708 2.902a51.744 51.744 0 013.085-.617z" opacity=".97"/><path d="M147.239 234.803s-.846.252-1.92.503a3.527 3.527 0 01-.366-1.783s0 1.006.457 1.623c1.006-.229 1.829-.343 1.829-.343z" opacity=".98"/><path d="M145.936 235.056l-.572.16c-.32 0-.206-.411-.206-.411s.001.434.229.365l.549-.114z" opacity=".3"/></g><path style="mix-blend-mode:screen" opacity=".7" d="M100.372 210.99a50.57 50.57 0 0111.129-35.856c28.85-35.477 57.438-77.304 76.799-106.909l-1.14-.436c-19.35 29.575-47.849 71.249-76.596 106.591a51.759 51.759 0 00-11.426 36.678 493.138 493.138 0 01-5.53 114.263c.365.228.754.434 1.096.685a493.998 493.998 0 005.668-115.016z" fill="url(#paint4_radial)"/><path style="mix-blend-mode:screen" opacity=".5" d="M216.348 232.768c20.293-59.965 51.212-126.032 63.553-151.65a.565.565 0 00.028-.447.578.578 0 00-.303-.33.59.59 0 00-.799.275c-12.364 25.64-43.283 91.752-63.622 151.786a50.596 50.596 0 01-24.429 28.474 495.471 495.471 0 00-94.518 66.158c.32.274-2.651 3.314-2.285 3.588 15.516-13.894 53.2-45.248 97.443-68.695a51.738 51.738 0 0024.932-29.159z" fill="url(#paint5_radial)"/><path d="M94.404 321.895a485.14 485.14 0 005.508-111.338 50.57 50.57 0 0111.106-35.855c28.598-35.152 56.94-76.567 76.291-106.128a.59.59 0 00-.255-.862.59.59 0 00-.742.211c-19.342 29.53-47.664 70.904-76.231 106.025a51.851 51.851 0 00-11.426 36.701c3.565 46.939-4.25 111.246-4.25 111.246z" fill="url(#paint6_linear)"/><path d="M214.749 231.947a50.533 50.533 0 01-24.429 28.475 483.739 483.739 0 00-91.205 63.987s50.161-40.906 91.776-62.959a51.787 51.787 0 0025.001-29.114c14.255-42.139 33.753-87.267 48.372-119.27a.595.595 0 00-.27-.775.595.595 0 00-.819.276c-14.629 32.035-34.138 77.208-48.426 119.38z" fill="url(#paint7_linear)"/><defs><linearGradient id="paint0_linear" x1="130.086" y1="64.051" x2="188.385" y2="398.483" gradientUnits="userSpaceOnUse"><stop stop-color="#FDFDFD"/><stop offset=".401" stop-color="#E9E9E9"/><stop offset=".62" stop-color="#F2F2F2"/><stop offset="1" stop-color="#E1E1E1"/></linearGradient><linearGradient id="paint1_linear" x1="103.812" y1="163.574" x2="227.889" y2="232.125" gradientUnits="userSpaceOnUse"><stop stop-color="#DCD7D4"/><stop offset=".07" stop-color="#AAA8A6"/><stop offset=".15" stop-color="#7E7D7D"/><stop offset=".22" stop-color="#5B5C5D"/><stop offset=".29" stop-color="#414446"/><stop offset=".35" stop-color="#323638"/><stop offset=".4" stop-color="#333739"/><stop offset=".42" stop-color="#6C6F70"/><stop offset=".45" stop-color="#9C9E9F"/><stop offset=".47" stop-color="#C1C2C3"/><stop offset=".49" stop-color="#DBDDDD"/><stop offset=".51" stop-color="#EBECEC"/><stop offset=".52" stop-color="#F1F2F2"/><stop offset=".57" stop-color="#E2E4E6"/><stop offset=".66" stop-color="#BBBFC5"/><stop offset=".78" stop-color="#828995"/><stop offset="1" stop-color="#A5A7AA"/></linearGradient><linearGradient id="paint3_linear" x1="282.5" y1="142" x2="159.013" y2="70.635" gradientUnits="userSpaceOnUse"><stop offset=".125" stop-color="#EEC120"/><stop offset=".365" stop-color="#FFBC10"/><stop offset=".453" stop-color="#F0B213"/><stop offset=".59" stop-color="#F0B213"/><stop offset=".73" stop-color="#F5DF1A"/><stop offset=".922" stop-color="#EEC120"/><stop offset="1" stop-color="#FFC700"/></linearGradient><linearGradient id="paint6_linear" x1="71.621" y1="311.504" x2="209.062" y2="79.771" gradientUnits="userSpaceOnUse"><stop stop-color="#282726"/><stop offset=".3" stop-color="#232221"/><stop offset=".67" stop-color="#141313"/><stop offset="1"/></linearGradient><linearGradient id="paint7_linear" x1="58.721" y1="315.733" x2="126.488" y2="73.111" gradientUnits="userSpaceOnUse"><stop stop-color="#282726"/><stop offset=".3" stop-color="#232221"/><stop offset=".67" stop-color="#141313"/><stop offset="1"/></linearGradient><radialGradient id="paint2_radial" cx="0" cy="0" r="1" gradientUnits="userSpaceOnUse" gradientTransform="rotate(53.089 -298.316 245.304) scale(17.5 24.3862)"><stop stop-color="#070707"/><stop offset="1" stop-color="#070707" stop-opacity="0"/></radialGradient><radialGradient id="paint4_radial" cx="0" cy="0" r="1" gradientUnits="userSpaceOnUse" gradientTransform="matrix(115.11989 68.16038 -70.59364 119.22956 111.481 181.034)"><stop stop-color="#FFEEE6"/><stop offset="1"/></radialGradient><radialGradient id="paint5_radial" cx="0" cy="0" r="1" gradientUnits="userSpaceOnUse" gradientTransform="matrix(13903.1 0 0 18710.6 64825.2 77651.5)"><stop stop-color="#FFEEE6"/><stop offset="1"/></radialGradient><filter id="filter0_f" x="68" y="49" width="228.189" height="321.701" filterUnits="userSpaceOnUse" color-interpolation-filters="sRGB"><feFlood flood-opacity="0" result="BackgroundImageFix"/><feBlend in="SourceGraphic" in2="BackgroundImageFix" result="shape"/><feGaussianBlur stdDeviation="2" result="effect1_foregroundBlur"/></filter></defs></svg>