<svg width="430" height="470" fill="none" xmlns="http://www.w3.org/2000/svg"><g clip-path="url(#clip0)"><path d="M292.207 186.766c-47.567-34.328-124.319-31.679-191.463 7.063-48.814 28.043-78.933 70.264-84.75 123.391-5.815 53.126 11.581 120.95 98.667 144.683 87.085 23.733 116.114-8.413 103.858-48.661-12.255-40.247 103.444-37.183 127.279-85.584 23.836-48.401-6.024-106.565-53.591-140.892zm-96.64 185.346c-25.965 12.204-6.595 43.623-31.885 48.816-9.088 1.87-25.238-17.137-5.764-50.633 19.473-33.497 62.315-41.91 69.585-30.277 7.945 12.256-5.816 19.734-31.936 32.094z" fill="#CC7400"/><path d="M287.379 181.938C239.76 147.61 163.06 150.259 95.915 189c-48.657 28.044-78.932 70.213-84.748 123.34-5.816 53.126 11.58 121.002 98.666 144.735 87.085 23.733 116.114-8.413 103.858-48.661-12.255-40.247 103.495-37.183 127.383-85.584 23.887-48.401-6.128-106.513-53.695-140.892zM190.738 366.92c-25.964 12.205-6.595 43.624-31.884 48.817-9.088 1.869-25.238-17.19-5.764-50.634 19.473-33.445 62.315-41.91 69.585-30.277 7.945 12.62-5.816 20.046-31.937 32.094z" fill="#E28D00"/><path d="M96.487 377.307a7.154 7.154 0 00-2.025-.779c-11.165-2.129-25.964-1.039-27.21 13.139a25.966 25.966 0 006.802 19.318c3.999 4.778 12.151 6.7 15.163 11.789a7.215 7.215 0 008.205 3.376c9.451-3.895 17.241-17.346 18.851-27.109a18.287 18.287 0 00-5.308-14.465 18.28 18.28 0 00-14.478-5.269z" fill="#287BA1"/><g filter="url(#filter0_f)"><path d="M107.813 377.882c12.273-23.764 114.33-134.89 114.33-134.89l60.674-64.18s10.401 7.762 17.744 13.576l-24.995 56.42-55.63 50.986s-42.371 41.52-68.246 64.614c-21.852 19.504-35.102 30.394-35.102 30.394s.097-7.908-8.775-16.92z" fill="#CC7400"/></g><path d="M96.596 323.189c-1.922-11.84-10.386-16.306-21.81-16.255a23.738 23.738 0 00-12.775 3.376c-16.15 2.856-35.675 27.68-17.293 39.053 11.01 6.803 24.407 2.337 35.52-1.662 11.113-3.999 18.435-11.944 16.358-24.512z" fill="#FFC000"/><path d="M102.145 248.82a14.234 14.234 0 00-13.19-6.959 26.644 26.644 0 00-12.93 6.907 23.286 23.286 0 00-6.284 1.766 24.668 24.668 0 00-10.853 12.827 13.659 13.659 0 005.556 17.294 17.036 17.036 0 0015.838 5.556c9.192 1.61 20.772 2.493 26.381-5.712 6.491-9.452 1.454-23.162-4.518-31.679z" fill="#fff"/><path d="M150.962 203.228a17.343 17.343 0 00-7.166-3.219 8.467 8.467 0 00-2.337-2.597c-6.647-4.674-15.578.727-20.771 4.934a34.684 34.684 0 00-14.385 22.382c-.987 11.737 9.815 16.255 19.629 17.502 11.321 1.402 27.263 1.038 34.378-9.244 7.114-10.283-1.143-23.837-9.348-29.758z" fill="#7EDE88"/><path d="M225.324 202.602a46.748 46.748 0 00-7.79-11.166 7.32 7.32 0 00-5.193-6.855c-6.075-2.129-12.047 1.299-17.084 5.817a34.944 34.944 0 00-10.386 11.165c-6.18 8.569-8.257 20.306-.883 27.161a10.795 10.795 0 008.568 4.258c5.972.987 12.412-3.012 17.397-5.557 6.075-3.116 12.255-2.804 16.254-9.295a16.318 16.318 0 001.529-7.876 16.323 16.323 0 00-2.412-7.652z" fill="#54BEDE"/><path d="M302.389 230.234a21.636 21.636 0 00-3.063-6.076 30.23 30.23 0 00-5.661-13.502 22.591 22.591 0 00-21.758-6.128 5.927 5.927 0 00-4.195-.722 5.926 5.926 0 00-3.595 2.28l-1.298 1.454-1.402.727a26.324 26.324 0 00-15.579 23.681 19.22 19.22 0 00-.363 8.777c3.323 16.306 22.329 11.944 34.377 11.529 13.294-.52 27.419-6.18 22.537-22.02z" fill="#FF4040"/><path d="M321.967 290.577a28.144 28.144 0 00-12.152-18.072 6.589 6.589 0 00-3.531-1.662 15.056 15.056 0 00-6.854-.727 19.42 19.42 0 00-5.193 1.61c-16.462 5.193-23.057 27.939-11.165 43.052 6.958 8.88 20.46 13.814 29.34 5.193a35.827 35.827 0 009.555-29.394z" fill="#666"/><path d="M103.861 378.082a22.637 22.637 0 01-7.893 27.576 14.745 14.745 0 01-10.126 10.387h-1.195a15.16 15.16 0 014.83 4.57 7.221 7.221 0 008.205 3.375c9.451-3.895 17.24-17.345 18.85-27.108a17.865 17.865 0 00-12.671-18.8z" fill="#474747"/><path d="M96.588 323.189a17.247 17.247 0 00-10.697-14.334 28.41 28.41 0 01-1.454 15.58 51.931 51.931 0 01-30.171 28.096h-.623a57.135 57.135 0 0026.587-4.83c11.321-4.051 18.435-11.945 16.358-24.512z" fill="#CC7400"/><path d="M102.153 248.822a20.775 20.775 0 00-4.31-4.467 35.68 35.68 0 01.83 23.11 31.62 31.62 0 01-16.41 19.111c8.829 1.299 19.111 1.506 24.356-6.076 6.543-9.451 1.505-23.161-4.466-31.678z" fill="#8F8F8F"/><path d="M159.059 212.213a24.653 24.653 0 01-3.583 6.959c-8.05 10.386-20.772 21.708-34.845 21.708h-1.194a49.647 49.647 0 006.698 1.402c11.321 1.402 27.263 1.038 34.378-9.244a19.005 19.005 0 00-1.454-20.825z" fill="#4CA14D"/><path d="M225.328 202.602a56.257 56.257 0 00-2.077-3.635c0 .467-.415.935-.675 1.402a118.106 118.106 0 01-9.347 12.204 127.73 127.73 0 01-10.698 12.931 20.763 20.763 0 01-13.345 6.699c1.236.508 2.558.773 3.894.779 5.972.987 12.411-3.012 17.397-5.556 6.075-3.116 12.255-2.805 16.253-9.296a16.303 16.303 0 00-1.402-15.528z" fill="#287BA1"/><path d="M302.386 230.238a21.599 21.599 0 00-3.064-6.076 32.477 32.477 0 00-4.154-11.269c-.26 1.973-.831 4.414-.883 6.439v1.195a14.281 14.281 0 01-5.453 18.695 215.706 215.706 0 00-27.522 13.71c6.256.126 12.515-.099 18.746-.675 13.086-.519 27.211-6.18 22.33-22.019z" fill="#BA0909"/><path d="M321.968 290.578a28.881 28.881 0 00-8.932-15.58c-.26 11.529 2.233 23.11-4.362 33.6a31.16 31.16 0 01-15.579 13.918 16.825 16.825 0 0018.902-2.337 35.835 35.835 0 009.971-29.601z" fill="#474747"/><path d="M166.053 280.043s-27.124-1.514-50.79 33.986c-23.666 35.499-17.904 61.755-36.507 71.784-18.603 10.029 12.754 17.03 54.573-12.025 41.82-29.055 56.217-65.438 56.494-79.912.277-14.475-15.191-26.081-23.77-13.833z" fill="#FFE700"/><path d="M133.326 373.786a109.42 109.42 0 01-48.04 20.265 30.774 30.774 0 007.65-4.543c7.414-5.928 14.412-12.912 21.527-19.229 11.076-9.619 23.64-18.963 32.518-30.821 13.22-17.701 19.908-43.641 1.045-55.285a43.18 43.18 0 0118.003-4.338c8.58-12.247 23.95-1.102 23.725 13.368-.225 14.469-14.604 51.58-56.428 80.583z" fill="#FFC000"/><path d="M406.446 11.377l-1.077-.888c-6.348-5.231-13.043-2.137-18.276 4.208L215.348 205.412c-5.234 6.345 1.576 20.712 7.702 25.809l1.082.939c6.343 5.18 21.756 9.176 26.866 2.634L405.796 30.112c5.234-6.345 7.178-13.26.65-18.735z" fill="url(#paint0_linear)"/><path d="M219.117 201.241l-3.15 3.589 35.763 29.475 2.868-3.822s.624-6.528-12.984-17.79c-13.607-11.263-22.497-11.452-22.497-11.452z" fill="url(#paint1_linear)"/><path d="M174.894 290.509a128.818 128.818 0 00-14.124-10.118l52.472-74.518c5.234-6.345 17.99 2.026 24.678 7.538l1.133.935c6.688 5.512 17.237 16.442 12.107 22.777l-63.231 65.746a125.93 125.93 0 00-13.035-12.36z" fill="#8F8F8F"/><path d="M176.893 292.248l66.735-73.802c5.777 5.808 11.748 13.631 7.538 18.678l-63.232 65.747a124.019 124.019 0 00-11.041-10.623z" fill="#666"/><path d="M163.213 280.785l52.107-73.439c3.564-.347 7.152.36 10.319 2.033-8.781 12.319-58.298 74.713-58.298 74.713l-4.128-3.307z" fill="#fff"/><path d="M224.674 229.191l1.139.986c5.667 4.671 13.7 12.766 13.474 19.099l-2.137 2.187c-.028-6.256-8.004-14.304-13.44-18.737l-1.139-.986c-5.643-4.413-14.809-10.73-20.963-9.617l1.746-2.462c6.326-1.495 15.977 4.984 21.32 9.53zm-55.82 39.727a44.583 44.583 0 0115.886 8.906l1.077.887a44.566 44.566 0 0111.773 13.89l-2.138 2.188a44.185 44.185 0 00-11.748-13.632l-1.082-.939a46.343 46.343 0 00-15.627-8.93l1.859-2.37zm48.38-28.114l-1.138-.986c-5.101-4.204-13.752-10.049-19.878-9.721l1.741-2.514c6.153-.592 15.03 5.44 20.244 9.738l1.134.934c5.214 4.297 12.778 11.864 13.422 18.009l-2.118 2.394c-.865-6.28-8.254-13.655-13.407-17.854z" fill="#474747"/><path d="M81.318 388.014s14.402-4.879 19.435-25.235c5.034-20.356 13.421-45.99 31.897-59.501 18.477-13.511 20.923-9.782 20.923-9.782s-30.461 18.574-40.549 47.136c-10.088 28.561-17.83 45.161-31.706 47.382z" fill="#F0DA04"/><path d="M111.929 363.372s1.707-12.184 16.328-31.248c8.488-11.283 18.514-21.1 29.743-29.125 0 0-35.537 35.419-46.071 60.373z" fill="#F0DA04"/><path d="M109.045 378.418a97.84 97.84 0 0040.706-34.112c18.047-25.571 21.59-41.35 21.59-41.35s6.395-7.291 6.139.349c-.256 7.639-38.799 72.369-68.435 75.113z" fill="#ECB304"/></g><defs><linearGradient id="paint0_linear" x1="313" y1="96" x2="341.003" y2="119.996" gradientUnits="userSpaceOnUse"><stop stop-color="#E76000"/><stop offset=".292" stop-color="#C53002"/><stop offset=".505" stop-color="#982900"/><stop offset=".76" stop-color="#952F01"/><stop offset="1" stop-color="#BE530A"/></linearGradient><linearGradient id="paint1_linear" x1="235.341" y1="213.119" x2="240.045" y2="217.146" gradientUnits="userSpaceOnUse"><stop stop-color="#E76000"/><stop offset=".292" stop-color="#C53002"/><stop offset=".505" stop-color="#982900"/><stop offset=".76" stop-color="#952F01"/><stop offset="1" stop-color="#BE530A"/></linearGradient><clipPath id="clip0"><path fill="#fff" d="M0 0h430v470H0z"/></clipPath><filter id="filter0_f" x="103.812" y="174.812" width="200.749" height="223.988" filterUnits="userSpaceOnUse" color-interpolation-filters="sRGB"><feFlood flood-opacity="0" result="BackgroundImageFix"/><feBlend in="SourceGraphic" in2="BackgroundImageFix" result="shape"/><feGaussianBlur stdDeviation="2" result="effect1_foregroundBlur"/></filter></defs></svg>