<svg width="278" height="173" fill="none" xmlns="http://www.w3.org/2000/svg"><path d="M44.083 84.723h189.833v44.108H44.083V84.723z" fill="#FF4646"/><path d="M233.916 128.833S216.05 167.916 139 167.916s-94.917-39.083-94.917-39.083S65.3 117.666 139 117.666s94.916 11.167 94.916 11.167zm27.76-82.763C238.256 19.42 188.77 5 139 5 89.23 5 40.302 19.421 16.324 46.07 1.268 61.71 5.172 74.454 6.287 77.93 14.651 98.786 44.205 104 44.205 104S42.847 85 139 86s94.795 18 94.795 18 30.111-5.214 37.918-26.069c1.115-3.476 5.019-16.22-10.037-31.861z" fill="#000"/><path d="M253.388 48.644l.037.043.04.04c6.803 7.082 9.181 13.344 9.829 18.066.644 4.686-.382 8.087-.876 9.635-3.367 8.945-11.6 14.745-19.427 18.35-3.877 1.787-7.543 2.982-10.241 3.73a61.07 61.07 0 01-3.201.799l-.229.049-.061-.034c-.655-.367-1.632-.86-3.014-1.435-2.762-1.15-7.152-2.634-13.843-4.104-13.375-2.938-36.027-5.834-73.402-5.834s-60.027 2.896-73.402 5.834c-6.69 1.47-11.081 2.954-13.843 4.104-1.382.575-2.359 1.068-3.014 1.435l-.056.031a59.524 59.524 0 01-3.351-.843 68.147 68.147 0 01-10.12-3.728c-7.747-3.598-16.01-9.403-19.64-18.382-.498-1.56-1.508-4.949-.868-9.607.648-4.722 3.026-10.984 9.83-18.066l.028-.03.029-.031C35.562 36.453 52.39 26.892 72.47 20.388 92.52 13.892 115.643 10.5 139 10.5c23.358 0 46.613 3.392 66.731 9.888 20.15 6.507 36.962 16.064 47.657 28.256z" stroke="#FF4646" stroke-width="5"/><path d="M233.93 116.552v12.283s-21.227-11.166-94.965-11.166C65.228 117.669 44 128.835 44 128.835v-12.283c10.614-3.35 37.427-10.05 94.965-10.05 57.538 0 84.91 6.7 94.965 10.05z" fill="#FFEF00"/><path fill-rule="evenodd" clip-rule="evenodd" d="M138.5 107c6.627 0 12-5.373 12-12s-5.373-12-12-12-12 5.373-12 12 5.373 12 12 12zm0-6.153a5.846 5.846 0 100-11.692 5.846 5.846 0 000 11.692z" fill="#FFF500"/></svg>