<svg width="249" height="249" fill="none" xmlns="http://www.w3.org/2000/svg"><path d="M201.535 164.963c0 41.253-34.487 74.7-77.035 74.7-42.548 0-77.034-33.447-77.034-74.7 0-56.025 70.616-102.713 70.616-155.625 16.042 7.775 41.726 35.264 41.726 71.587 0 15.563-3.212 31.125-3.212 31.125 19.26-6.225 19.26-28.012 19.26-28.012s25.679 34.237 25.679 80.925z" fill="#00AFFF"/><path d="M123.225 104a49.733 49.733 0 011.045 10.116c0 37.779-40.605 40.686-45.523 70.909-3.542 21.731 8.285 49.706 44.16 49.706 26.488 0 47.951-23.424 47.951-52.315 0-28.523-39.622-77.165-47.633-78.416z" fill="#fff"/><path d="M124.5 242.775c-44.19 0-80.147-34.904-80.147-77.813 0-29.394 18.62-56.056 36.622-81.846 17.48-25.03 33.989-48.68 33.989-73.778a3.11 3.11 0 011.456-2.64 3.127 3.127 0 013.013-.162c18.053 8.753 43.482 37.618 43.482 74.389 0 9.979-1.27 19.839-2.229 25.865 11.896-7.252 12.052-22.578 12.052-22.753 0-1.338.859-2.527 2.129-2.95a3.1 3.1 0 013.473 1.083c1.077 1.432 26.301 35.607 26.301 82.792.006 42.909-35.949 77.813-80.141 77.813zm-3.523-228.233c-2.079 25.142-18.743 49.009-34.891 72.141-17.461 24.993-35.508 50.846-35.508 78.279 0 39.473 33.161 71.588 73.922 71.588 40.762 0 73.922-32.115 73.922-71.588 0-33.328-13.589-60.438-20.748-72.421-2.004 7.638-7.115 18.27-20.113 22.472-1.045.349-2.21.1-3.031-.641a3.11 3.11 0 01-.971-2.951c.031-.149 3.143-15.45 3.143-30.496-.006-30.845-19.982-56.293-35.725-66.383z" fill="#00AFFF"/></svg>