<svg width="199" height="133" fill="none" xmlns="http://www.w3.org/2000/svg"><path d="M44.713 115.579L61.368 11.308c.949-5.911 5.926-10.203 11.839-10.203h52.031c5.916 0 10.893 4.292 11.839 10.202l16.658 104.272H44.713z" fill="#00AFFF"/><path d="M126.995 1.105c5.331 0 9.816 3.747 10.669 8.91l17.175 104.182H99.638V1.105h27.357z" fill="#FF2834"/><path d="M39.142 129.578a3.456 3.456 0 01-2.67-1.26 3.453 3.453 0 01-.731-2.859l1.32-6.94a3.47 3.47 0 013.401-2.822h118.589a3.467 3.467 0 013.402 2.822l1.32 6.94a3.464 3.464 0 01-3.402 4.119H39.142z" fill="#9F6458"/><path d="M159.054 117.433c.831 0 1.545.593 1.7 1.409l1.32 6.94a1.711 1.711 0 01-.367 1.43 1.694 1.694 0 01-1.33.632H39.141a1.71 1.71 0 01-1.333-.629 1.715 1.715 0 01-.367-1.429l1.32-6.941a1.737 1.737 0 011.704-1.412h118.589zm0-3.47H40.464a5.196 5.196 0 00-5.102 4.23l-1.32 6.94c-.613 3.207 1.84 6.181 5.1 6.181h121.235c3.259 0 5.715-2.974 5.106-6.181l-1.32-6.94a5.208 5.208 0 00-5.109-4.23z" fill="#9F6458"/><path d="M78.888 52.89c-1.592 0-3.168.343-4.64 1.008a12.113 12.113 0 00-3.933 2.87 13.383 13.383 0 00-2.627 4.295 14.303 14.303 0 00-.923 5.067c0 1.739.313 3.46.922 5.066a13.383 13.383 0 002.629 4.296 12.112 12.112 0 003.933 2.87 11.242 11.242 0 004.64 1.007 11.25 11.25 0 004.639-1.007 12.11 12.11 0 003.933-2.87 13.381 13.381 0 002.628-4.296c.61-1.606.923-3.327.923-5.066 0-1.739-.314-3.46-.923-5.066a13.381 13.381 0 00-2.628-4.296 12.112 12.112 0 00-3.933-2.87 11.243 11.243 0 00-4.64-1.007z" fill="#0FF"/><path d="M78.889 54.783c5.729 0 10.391 5.091 10.391 11.348 0 6.256-4.662 11.348-10.391 11.348-5.73 0-10.392-5.092-10.392-11.348 0-6.257 4.662-11.348 10.392-11.348zm0-3.783c-7.652 0-13.856 6.775-13.856 15.13 0 8.357 6.204 15.131 13.856 15.131 7.651 0 13.855-6.774 13.855-15.13C92.744 57.775 86.54 51 78.89 51z" fill="#00A6F1"/><path d="M120.498 52.904c-1.593 0-3.169.345-4.64 1.015a12.117 12.117 0 00-3.933 2.89 13.48 13.48 0 00-2.628 4.324 14.495 14.495 0 00-.923 5.101c0 1.75.314 3.484.923 5.101a13.48 13.48 0 002.628 4.325 12.117 12.117 0 003.933 2.89 11.178 11.178 0 004.64 1.014c1.592 0 3.168-.345 4.639-1.015a12.117 12.117 0 003.933-2.89 13.48 13.48 0 002.628-4.324c.61-1.617.923-3.35.923-5.1 0-1.751-.313-3.485-.923-5.102a13.48 13.48 0 00-2.628-4.325 12.117 12.117 0 00-3.933-2.889 11.177 11.177 0 00-4.639-1.015z" fill="#FF5F78"/><path d="M120.498 54.809c5.729 0 10.392 5.126 10.392 11.425 0 6.3-4.663 11.426-10.392 11.426-5.729 0-10.392-5.126-10.392-11.426s4.663-11.425 10.392-11.425zm0-3.809c-7.652 0-13.855 6.821-13.855 15.234s6.203 15.234 13.855 15.234 13.856-6.82 13.856-15.234c0-8.413-6.204-15.234-13.856-15.234z" fill="#F4232E"/><path d="M34.1 67.409a2.778 2.778 0 00-.443-2.077 2.768 2.768 0 00-1.779-1.153l-21.784-4.016a2.765 2.765 0 00-2.072.444 2.774 2.774 0 00-.708 3.858 2.769 2.769 0 001.778 1.154l21.784 4.015a2.765 2.765 0 002.072-.444 2.774 2.774 0 001.152-1.78zM31.07 89.58l-10.855 2.23a2.765 2.765 0 00-2.319 2.181 2.779 2.779 0 001.26 2.927 2.764 2.764 0 002.175.315l10.854-2.23a2.765 2.765 0 002.319-2.181 2.78 2.78 0 00-1.26-2.927 2.766 2.766 0 00-2.175-.315zm-1.274-49.928l9.35 5.954a2.768 2.768 0 004.311-2.927 2.777 2.777 0 00-1.342-1.743l-9.345-5.981a2.768 2.768 0 00-4.311 2.927 2.777 2.777 0 001.341 1.743l-.005.027z" fill="#00AFFF"/><path d="M164.688 67.409a2.776 2.776 0 012.222-3.23l21.784-4.016a2.765 2.765 0 012.072.444 2.777 2.777 0 01-1.07 5.012l-21.784 4.015a2.773 2.773 0 01-3.224-2.226zm3.031 22.172l10.854 2.23a2.763 2.763 0 011.873 1.15 2.784 2.784 0 01.447 2.155 2.772 2.772 0 01-3.436 2.118l-10.853-2.23a2.762 2.762 0 01-1.874-1.15 2.784 2.784 0 01-.447-2.155 2.787 2.787 0 011.261-1.803 2.768 2.768 0 012.175-.315zm1.274-49.928l-9.351 5.954a2.774 2.774 0 01-2.144.481 2.769 2.769 0 01-2.217-2.285 2.778 2.778 0 011.392-2.866l9.345-5.981a2.77 2.77 0 012.144-.482 2.755 2.755 0 011.819 1.235 2.78 2.78 0 01-.143 3.184c-.23.3-.52.55-.85.733l.005.027z" fill="#FF2834"/></svg>