<svg width="210" height="249" fill="none" xmlns="http://www.w3.org/2000/svg"><path d="M189.755 164.963c0 41.253-34.486 74.7-77.034 74.7-13.614 0-26.403-3.424-37.5-9.433-23.586-12.77-39.535-37.214-39.535-65.267 0-56.025 70.617-102.713 70.617-155.625 16.042 7.775 41.726 35.264 41.726 71.587 0 15.563-3.212 31.125-3.212 31.125 19.26-6.225 19.26-28.012 19.26-28.012s25.678 34.237 25.678 80.925z" fill="#FF2834"/><path d="M75.22 230.23c-23.585-12.77-39.534-37.214-39.534-65.267 0-12.921 3.756-25.345 9.536-37.463-8.002-4-3.502-24-9.536-24-7.059 0-28.966 34.5-12.965 79 18.519 51.5 75.5 59 75.5 59l-23-11.27z" fill="#FF2834"/><path d="M111.445 105a49.662 49.662 0 011.046 10.116c0 37.779-40.606 40.686-45.523 70.909-3.542 21.731 8.285 49.706 44.16 49.706 26.487 0 47.951-23.424 47.951-52.315 0-28.523-39.622-77.165-47.634-78.416z" fill="#FF0"/><path d="M97.754 123.062a41.144 41.144 0 00-.846 8.28c0 30.921 32.849 33.301 36.827 58.037C136.601 207.166 128.521 233 99.5 233c-21.427 0-40.28-22.11-40.28-45.756 0-23.345 32.053-63.157 38.534-64.182z" fill="#FF0"/><path d="M112.721 242.775c-44.191 0-80.147-34.904-80.147-77.813 0-29.394 18.62-56.056 36.622-81.846 17.48-25.03 33.988-48.68 33.988-73.778a3.11 3.11 0 011.457-2.64 3.127 3.127 0 013.013-.162c18.052 8.753 43.482 37.618 43.482 74.389 0 9.979-1.27 19.839-2.229 25.865 11.896-7.252 12.052-22.578 12.052-22.753 0-1.338.859-2.527 2.129-2.95a3.1 3.1 0 013.473 1.083c1.077 1.432 26.301 35.607 26.301 82.792.006 42.909-35.95 77.813-80.141 77.813zm-3.523-228.233c-2.079 25.142-18.744 49.009-34.891 72.141-17.462 24.994-35.508 50.846-35.508 78.279 0 39.473 33.16 71.588 73.922 71.588 40.761 0 73.922-32.115 73.922-71.588 0-33.328-13.589-60.438-20.748-72.421-2.004 7.638-7.115 18.27-20.113 22.472-1.046.349-2.21.1-3.032-.641a3.113 3.113 0 01-.971-2.951c.032-.149 3.144-15.45 3.144-30.496-.006-30.845-19.982-56.293-35.725-66.383z" fill="#FF2834"/></svg>