<svg preserveAspectRatio="none" width="332" height="337" fill="none" xmlns="http://www.w3.org/2000/svg"><rect x="5.107" y="9.078" width="324" height="324" rx="60" fill="#14dbff"/><path d="M22.49 40.127c5.807-12.619 17.612-16.639 29.282-20.19 21.834-6.64 72.263-5.039 74.828-2.461 2.566 2.577-26.685 1.607-44.685 3.607-18.386 2.042-34.682 2.729-47.81 15.39C18.723 51.31 23.613 98.085 18.107 94.078c-5.505-4.007-.199-43.996 4.383-53.951zm25.024 282.57c1.506 3.441 31.733 4.882 36.15 3.112 4.416-1.771-12.858-8.654-21.06-8.234a32.635 32.635 0 00-15.09 5.122zm239.477-.97c2.341 1.195 19.992-12.088 21.712-15.121 1.72-3.033-10.997 1.22-15.434 5.27a25.054 25.054 0 00-6.278 9.851zm16.702-289.266c-2.239-.816-6.569-6.7-6.012-7.252.557-.552 6.672 3.752 7.36 5.222.356.94-.107 1.637-1.348 2.03zm8.704 268.172c3.288-.542 10.409-16.574 9.725-19.068-.684-2.494-10.03 6.207-11.256 10.619-.666 2.904-.139 5.807 1.531 8.449zm5.497-249.025c-1.866-.042-8.519-14.575-8.589-17.1-.07-2.526 6.493 4.551 7.929 8.66a18.51 18.51 0 01.66 8.44zM39.34 317.931c-12.115-4.734-18.77-12.81-22.724-24.349-6.347-19.027-5.492-74.347-3.006-77 2.487-2.653 3.466 26.163 4.997 42.998 1 10.999 1.5 16.998 5.5 27.5 4.783 12.556 19.048 32.342 15.232 30.851z" fill="#fff"/></svg>