<svg preserveAspectRatio="none" width="1310" height="663" viewBox="0 0 1310 663" fill="none" xmlns="http://www.w3.org/2000/svg">
<g clip-path="url(#clip0)">
<g filter="url(#filter0_d)">
<path d="M58.3093 524.696C100.278 611.647 1116.12 636.114 1202.52 545.681C1281.16 463.434 1249.21 169.267 1182 110.64C1090.41 30.6525 187.806 86.8322 113.416 149.693C44.5088 208.414 14.8285 434.262 58.3093 524.696Z" fill="url(#paint0_radial)"/>
<path d="M61.712 509.548C103.491 593.395 1113.28 599.417 1199.4 512.277C1277.76 433.042 1246.66 170.964 1179.92 114.408C1088.71 37.0549 189.508 91.1644 115.59 151.955C47.2499 208.417 18.3258 422.409 61.712 509.548Z" fill="url(#paint1_linear)"/>
<path d="M74.2853 501.826C115.119 583.226 1103.08 589.06 1187.39 504.461C1263.96 427.579 1233.9 173.311 1168.49 118.637C1079.07 43.6367 199.245 96.1464 127.029 154.961C59.6342 209.823 31.8443 417.51 74.2853 501.826Z" fill="url(#paint2_linear)"/>
<g opacity="0.8">
<path d="M400.5 150.5C351.568 147.714 323.996 149.307 275 150.5C232.206 151.543 165.5 155.5 165.5 155.5L258 118.5L314.5 109.5L480.5 90.5L763.5 74.5L958 77C958 77 1011.62 77.5863 1045.5 82.5C1077.99 87.2113 1096.18 91.1758 1127.5 101C1136.75 103.901 1142.15 105.035 1151 109L1151.62 109.279C1156.66 111.536 1159.71 112.9 1164.5 116C1167.55 117.973 1169.32 119.05 1172 121.5C1175.38 124.586 1176.69 126.891 1179.5 130.5C1185.29 137.934 1193 150.5 1193 150.5C1193 150.5 1197.42 159.572 1200 165.5C1202.27 170.721 1203.47 173.683 1205.5 179C1207.57 184.423 1210.5 193 1210.5 193C1210.5 193 1192.5 206 1173 214C1153.5 222 976.211 244.5 823.5 244.5C633.5 244.5 553.887 159.234 400.5 150.5Z" fill="url(#paint3_linear)" fill-opacity="0.8"/>
<path d="M400.5 150.5C351.568 147.714 323.996 149.307 275 150.5C232.206 151.543 165.5 155.5 165.5 155.5L258 118.5L314.5 109.5L480.5 90.5L763.5 74.5L958 77C958 77 1011.62 77.5863 1045.5 82.5C1077.99 87.2113 1096.18 91.1758 1127.5 101C1136.75 103.901 1142.15 105.035 1151 109L1151.62 109.279C1156.66 111.536 1159.71 112.9 1164.5 116C1167.55 117.973 1169.32 119.05 1172 121.5C1175.38 124.586 1176.69 126.891 1179.5 130.5C1185.29 137.934 1193 150.5 1193 150.5C1193 150.5 1197.42 159.572 1200 165.5C1202.27 170.721 1203.47 173.683 1205.5 179C1207.57 184.423 1210.5 193 1210.5 193C1210.5 193 1192.5 206 1173 214C1153.5 222 976.211 244.5 823.5 244.5C633.5 244.5 553.887 159.234 400.5 150.5Z" fill="url(#paint4_linear)" fill-opacity="0.1"/>
</g>
<path d="M98.6719 190.532C109.512 170.813 126.266 154.956 146.595 145.174C180.151 129.364 275.62 113.461 281.008 117.507C286.395 121.554 234.502 140.186 207.941 149.973C181.38 159.76 112.283 198.06 98.6719 190.532Z" fill="white"/>
<path d="M95.646 198.443C88.7457 199.478 71.5425 252.835 72.5822 261.587C73.622 270.338 94.3226 242.766 97.5364 227.898C99.358 218.075 98.7085 207.956 95.646 198.443V198.443Z" fill="white"/>
<g filter="url(#filter1_d)">
<path d="M224.385 245.019C225.191 244.964 225.994 245.149 226.694 245.55C227.393 245.952 227.957 246.551 228.312 247.273C228.668 247.994 228.8 248.805 228.691 249.601C228.583 250.398 228.238 251.144 227.702 251.745C227.165 252.345 226.461 252.773 225.68 252.974C224.898 253.175 224.074 253.14 223.313 252.873C222.551 252.605 221.887 252.118 221.405 251.474C220.922 250.83 220.644 250.057 220.604 249.254C220.566 248.727 220.634 248.198 220.804 247.698C220.975 247.198 221.244 246.737 221.597 246.342C221.949 245.947 222.377 245.627 222.856 245.4C223.335 245.172 223.855 245.043 224.385 245.019Z" fill="#FFFFAB"/>
</g>
<g filter="url(#filter2_d)">
<path d="M243.953 183.385C244.759 183.329 245.562 183.514 246.262 183.916C246.961 184.317 247.525 184.917 247.881 185.638C248.236 186.36 248.368 187.17 248.259 187.967C248.151 188.763 247.806 189.509 247.27 190.11C246.734 190.71 246.03 191.139 245.248 191.339C244.466 191.54 243.642 191.505 242.881 191.238C242.119 190.971 241.455 190.484 240.973 189.839C240.491 189.195 240.212 188.422 240.172 187.619C240.144 186.567 240.519 185.544 241.221 184.757C241.924 183.971 242.901 183.48 243.953 183.385V183.385Z" fill="#FFFFAB"/>
</g>
<g filter="url(#filter3_d)">
<path d="M232.422 360.3C232.944 360.274 233.465 360.352 233.956 360.527C234.448 360.703 234.9 360.973 235.286 361.323C235.672 361.672 235.986 362.094 236.208 362.565C236.43 363.035 236.557 363.545 236.581 364.064C236.644 365.112 236.286 366.142 235.586 366.927C234.885 367.713 233.9 368.189 232.848 368.251C231.795 368.314 230.76 367.957 229.971 367.26C229.182 366.563 228.704 365.583 228.641 364.534C228.603 364.007 228.671 363.478 228.841 362.978C229.012 362.478 229.281 362.017 229.634 361.622C229.986 361.227 230.414 360.907 230.893 360.68C231.372 360.453 231.892 360.323 232.422 360.3V360.3Z" fill="#FFFFAB"/>
</g>
<g filter="url(#filter4_d)">
<path d="M167.578 170.775C169.043 170.689 170.51 170.89 171.897 171.369C173.283 171.847 174.562 172.592 175.659 173.562C176.756 174.532 177.651 175.707 178.291 177.022C178.932 178.336 179.307 179.763 179.394 181.221C179.48 182.679 179.278 184.14 178.798 185.52C178.317 186.901 177.569 188.173 176.595 189.266C175.62 190.358 174.439 191.249 173.119 191.886C171.799 192.524 170.366 192.897 168.901 192.984C165.943 193.159 163.037 192.156 160.821 190.197C158.605 188.238 157.262 185.483 157.086 182.538C156.911 179.593 157.917 176.699 159.885 174.494C161.853 172.288 164.62 170.95 167.578 170.775V170.775Z" fill="#FFFFAB"/>
</g>
<g filter="url(#filter5_d)">
<path d="M996.17 461.461C999.128 461.286 1002.03 462.289 1004.25 464.248C1006.47 466.206 1007.81 468.961 1007.99 471.906C1008.16 474.851 1007.15 477.745 1005.19 479.951C1003.22 482.157 1000.45 483.495 997.493 483.669C996.029 483.756 994.561 483.554 993.175 483.076C991.788 482.598 990.51 481.853 989.413 480.883C988.315 479.913 987.421 478.737 986.78 477.423C986.139 476.109 985.765 474.682 985.678 473.224C985.591 471.766 985.793 470.305 986.274 468.924C986.754 467.544 987.503 466.271 988.477 465.179C989.451 464.087 990.632 463.196 991.952 462.558C993.272 461.92 994.705 461.547 996.17 461.461V461.461Z" fill="#FFFFAB"/>
</g>
<g filter="url(#filter6_d)">
<path d="M1201.95 427.115C1203.26 427.205 1204.49 427.77 1205.42 428.703C1206.34 429.637 1206.89 430.874 1206.96 432.182C1207.03 433.49 1206.62 434.779 1205.8 435.804C1204.98 436.83 1203.81 437.521 1202.51 437.749C1201.82 437.8 1201.12 437.71 1200.45 437.485C1199.79 437.259 1199.18 436.903 1198.66 436.437C1198.14 435.972 1197.72 435.406 1197.42 434.774C1197.13 434.143 1196.96 433.458 1196.94 432.761C1196.89 432.062 1196.98 431.359 1197.2 430.694C1197.43 430.029 1197.78 429.415 1198.25 428.889C1198.72 428.363 1199.28 427.936 1199.92 427.631C1200.55 427.326 1201.24 427.151 1201.95 427.115V427.115Z" fill="#FFFFAB"/>
</g>
<g filter="url(#filter7_d)">
<path d="M280.248 462.494C280.947 462.443 281.648 462.533 282.31 462.758C282.973 462.984 283.583 463.34 284.104 463.806C284.624 464.272 285.045 464.837 285.341 465.469C285.637 466.101 285.802 466.785 285.825 467.482C285.869 468.174 285.775 468.868 285.549 469.524C285.323 470.18 284.97 470.785 284.509 471.305C284.048 471.825 283.489 472.249 282.863 472.554C282.238 472.859 281.558 473.038 280.863 473.081C280.168 473.124 279.471 473.031 278.812 472.806C278.153 472.581 277.545 472.229 277.023 471.77C276.501 471.312 276.074 470.755 275.768 470.132C275.462 469.509 275.282 468.833 275.239 468.141C275.161 466.733 275.643 465.351 276.58 464.295C277.518 463.238 278.836 462.591 280.248 462.494Z" fill="#FFFFAB"/>
</g>
<g filter="url(#filter8_d)">
<path d="M832.552 383.539C833.073 383.504 833.594 383.623 834.048 383.881C834.502 384.14 834.869 384.526 835.102 384.992C835.335 385.458 835.425 385.982 835.359 386.498C835.294 387.015 835.076 387.5 834.734 387.894C834.391 388.287 833.939 388.571 833.435 388.709C832.931 388.847 832.397 388.833 831.901 388.669C831.404 388.505 830.968 388.199 830.646 387.788C830.325 387.378 830.133 386.882 830.094 386.363C830.068 386.016 830.112 385.668 830.221 385.339C830.331 385.009 830.505 384.705 830.734 384.442C830.962 384.18 831.24 383.965 831.552 383.81C831.864 383.655 832.204 383.563 832.552 383.539V383.539Z" fill="#FFFFAB"/>
</g>
<g filter="url(#filter9_d)">
<path d="M107.841 505.878C108.196 505.852 108.553 505.899 108.89 506.014C109.227 506.129 109.537 506.31 109.802 506.547C110.066 506.785 110.28 507.073 110.431 507.394C110.581 507.716 110.665 508.064 110.676 508.419C110.704 509.112 110.465 509.79 110.009 510.315C109.552 510.839 108.912 511.171 108.219 511.242C107.863 511.267 107.507 511.221 107.17 511.106C106.833 510.991 106.523 510.81 106.258 510.572C105.993 510.335 105.779 510.047 105.629 509.725C105.478 509.404 105.395 509.055 105.383 508.701C105.355 508.008 105.594 507.33 106.051 506.805C106.507 506.281 107.147 505.949 107.841 505.878Z" fill="#FFFFAB"/>
</g>
<g filter="url(#filter10_d)">
<path d="M378.744 341.196C379.27 341.159 379.795 341.279 380.251 341.541C380.708 341.803 381.076 342.194 381.308 342.666C381.54 343.137 381.625 343.666 381.552 344.186C381.48 344.706 381.253 345.193 380.901 345.583C380.55 345.974 380.089 346.251 379.577 346.379C379.066 346.508 378.528 346.481 378.032 346.303C377.537 346.125 377.105 345.803 376.794 345.38C376.483 344.956 376.306 344.449 376.286 343.925C376.26 343.242 376.502 342.575 376.96 342.065C377.419 341.556 378.058 341.244 378.744 341.196V341.196Z" fill="#FFFFAB"/>
</g>
<g filter="url(#filter11_d)">
<path d="M244.708 490.068C244.964 490.042 245.223 490.069 245.468 490.146C245.713 490.223 245.94 490.349 246.135 490.516C246.33 490.684 246.488 490.889 246.6 491.119C246.712 491.35 246.776 491.6 246.788 491.856C246.814 492.116 246.788 492.378 246.712 492.628C246.635 492.878 246.51 493.11 246.343 493.311C246.176 493.512 245.971 493.679 245.739 493.8C245.507 493.922 245.253 493.997 244.992 494.021C244.461 494.025 243.947 493.836 243.547 493.489C243.146 493.143 242.887 492.662 242.818 492.138C242.805 491.879 242.844 491.619 242.932 491.375C243.02 491.13 243.156 490.905 243.332 490.713C243.507 490.521 243.719 490.365 243.955 490.254C244.192 490.143 244.447 490.08 244.708 490.068Z" fill="#FFFFAB"/>
</g>
<g filter="url(#filter12_d)">
<path d="M745.117 514.819C746.23 514.767 747.319 515.152 748.15 515.892C748.98 516.631 749.487 517.665 749.56 518.771C749.622 519.87 749.244 520.948 748.509 521.768C747.773 522.589 746.74 523.085 745.637 523.147C744.534 523.21 743.451 522.833 742.627 522.101C741.803 521.368 741.304 520.34 741.242 519.242C741.203 518.698 741.273 518.152 741.447 517.635C741.621 517.118 741.896 516.64 742.256 516.229C742.616 515.818 743.055 515.482 743.546 515.24C744.036 514.998 744.571 514.855 745.117 514.819V514.819Z" fill="#FFFFAB"/>
</g>
<g filter="url(#filter13_d)">
<path d="M427.8 525.639C428.903 525.577 429.986 525.953 430.81 526.686C431.635 527.418 432.133 528.447 432.196 529.545C432.258 530.643 431.88 531.721 431.145 532.542C430.409 533.362 429.376 533.858 428.273 533.921C427.175 533.973 426.099 533.601 425.271 532.882C424.443 532.163 423.927 531.152 423.83 530.062C423.792 529.511 423.865 528.957 424.045 528.434C424.225 527.911 424.508 527.429 424.878 527.017C425.248 526.605 425.697 526.271 426.199 526.034C426.701 525.797 427.245 525.663 427.8 525.639Z" fill="#FFFFAB"/>
</g>
</g>
</g>
<defs>
<filter id="filter0_d" x="-22.0693" y="11.1406" width="1330.74" height="651.645" filterUnits="userSpaceOnUse" color-interpolation-filters="sRGB">
<feFlood flood-opacity="0" result="BackgroundImageFix"/>
<feColorMatrix in="SourceAlpha" type="matrix" values="0 0 0 0 0 0 0 0 0 0 0 0 0 0 0 0 0 0 127 0" result="hardAlpha"/>
<feOffset/>
<feGaussianBlur stdDeviation="30"/>
<feComposite in2="hardAlpha" operator="out"/>
<feColorMatrix type="matrix" values="0 0 0 0 1 0 0 0 0 0.756863 0 0 0 0 0 0 0 0 1 0"/>
<feBlend mode="normal" in2="BackgroundImageFix" result="effect1_dropShadow"/>
<feBlend mode="normal" in="SourceGraphic" in2="effect1_dropShadow" result="shape"/>
</filter>
<filter id="filter1_d" x="190.594" y="215.01" width="68.1348" height="68.0938" filterUnits="userSpaceOnUse" color-interpolation-filters="sRGB">
<feFlood flood-opacity="0" result="BackgroundImageFix"/>
<feColorMatrix in="SourceAlpha" type="matrix" values="0 0 0 0 0 0 0 0 0 0 0 0 0 0 0 0 0 0 127 0" result="hardAlpha"/>
<feOffset/>
<feGaussianBlur stdDeviation="15"/>
<feComposite in2="hardAlpha" operator="out"/>
<feColorMatrix type="matrix" values="0 0 0 0 1 0 0 0 0 1 0 0 0 0 0.658824 0 0 0 1 0"/>
<feBlend mode="normal" in2="BackgroundImageFix" result="effect1_dropShadow"/>
<feBlend mode="normal" in="SourceGraphic" in2="effect1_dropShadow" result="shape"/>
</filter>
<filter id="filter2_d" x="210.171" y="153.375" width="68.126" height="68.0938" filterUnits="userSpaceOnUse" color-interpolation-filters="sRGB">
<feFlood flood-opacity="0" result="BackgroundImageFix"/>
<feColorMatrix in="SourceAlpha" type="matrix" values="0 0 0 0 0 0 0 0 0 0 0 0 0 0 0 0 0 0 127 0" result="hardAlpha"/>
<feOffset/>
<feGaussianBlur stdDeviation="15"/>
<feComposite in2="hardAlpha" operator="out"/>
<feColorMatrix type="matrix" values="0 0 0 0 1 0 0 0 0 1 0 0 0 0 0.658824 0 0 0 1 0"/>
<feBlend mode="normal" in2="BackgroundImageFix" result="effect1_dropShadow"/>
<feBlend mode="normal" in="SourceGraphic" in2="effect1_dropShadow" result="shape"/>
</filter>
<filter id="filter3_d" x="198.631" y="330.295" width="67.957" height="67.9629" filterUnits="userSpaceOnUse" color-interpolation-filters="sRGB">
<feFlood flood-opacity="0" result="BackgroundImageFix"/>
<feColorMatrix in="SourceAlpha" type="matrix" values="0 0 0 0 0 0 0 0 0 0 0 0 0 0 0 0 0 0 127 0" result="hardAlpha"/>
<feOffset/>
<feGaussianBlur stdDeviation="15"/>
<feComposite in2="hardAlpha" operator="out"/>
<feColorMatrix type="matrix" values="0 0 0 0 1 0 0 0 0 1 0 0 0 0 0.658824 0 0 0 1 0"/>
<feBlend mode="normal" in2="BackgroundImageFix" result="effect1_dropShadow"/>
<feBlend mode="normal" in="SourceGraphic" in2="effect1_dropShadow" result="shape"/>
</filter>
<filter id="filter4_d" x="127.066" y="140.756" width="82.3467" height="82.248" filterUnits="userSpaceOnUse" color-interpolation-filters="sRGB">
<feFlood flood-opacity="0" result="BackgroundImageFix"/>
<feColorMatrix in="SourceAlpha" type="matrix" values="0 0 0 0 0 0 0 0 0 0 0 0 0 0 0 0 0 0 127 0" result="hardAlpha"/>
<feOffset/>
<feGaussianBlur stdDeviation="15"/>
<feComposite in2="hardAlpha" operator="out"/>
<feColorMatrix type="matrix" values="0 0 0 0 1 0 0 0 0 1 0 0 0 0 0.658824 0 0 0 1 0"/>
<feBlend mode="normal" in2="BackgroundImageFix" result="effect1_dropShadow"/>
<feBlend mode="normal" in="SourceGraphic" in2="effect1_dropShadow" result="shape"/>
</filter>
<filter id="filter5_d" x="955.658" y="431.441" width="82.3467" height="82.248" filterUnits="userSpaceOnUse" color-interpolation-filters="sRGB">
<feFlood flood-opacity="0" result="BackgroundImageFix"/>
<feColorMatrix in="SourceAlpha" type="matrix" values="0 0 0 0 0 0 0 0 0 0 0 0 0 0 0 0 0 0 127 0" result="hardAlpha"/>
<feOffset/>
<feGaussianBlur stdDeviation="15"/>
<feComposite in2="hardAlpha" operator="out"/>
<feColorMatrix type="matrix" values="0 0 0 0 1 0 0 0 0 1 0 0 0 0 0.658824 0 0 0 1 0"/>
<feBlend mode="normal" in2="BackgroundImageFix" result="effect1_dropShadow"/>
<feBlend mode="normal" in="SourceGraphic" in2="effect1_dropShadow" result="shape"/>
</filter>
<filter id="filter6_d" x="1166.92" y="397.115" width="70.043" height="70.6484" filterUnits="userSpaceOnUse" color-interpolation-filters="sRGB">
<feFlood flood-opacity="0" result="BackgroundImageFix"/>
<feColorMatrix in="SourceAlpha" type="matrix" values="0 0 0 0 0 0 0 0 0 0 0 0 0 0 0 0 0 0 127 0" result="hardAlpha"/>
<feOffset/>
<feGaussianBlur stdDeviation="15"/>
<feComposite in2="hardAlpha" operator="out"/>
<feColorMatrix type="matrix" values="0 0 0 0 1 0 0 0 0 1 0 0 0 0 0.658824 0 0 0 1 0"/>
<feBlend mode="normal" in2="BackgroundImageFix" result="effect1_dropShadow"/>
<feBlend mode="normal" in="SourceGraphic" in2="effect1_dropShadow" result="shape"/>
</filter>
<filter id="filter7_d" x="245.23" y="432.48" width="70.6055" height="70.6113" filterUnits="userSpaceOnUse" color-interpolation-filters="sRGB">
<feFlood flood-opacity="0" result="BackgroundImageFix"/>
<feColorMatrix in="SourceAlpha" type="matrix" values="0 0 0 0 0 0 0 0 0 0 0 0 0 0 0 0 0 0 127 0" result="hardAlpha"/>
<feOffset/>
<feGaussianBlur stdDeviation="15"/>
<feComposite in2="hardAlpha" operator="out"/>
<feColorMatrix type="matrix" values="0 0 0 0 1 0 0 0 0 1 0 0 0 0 0.658824 0 0 0 1 0"/>
<feBlend mode="normal" in2="BackgroundImageFix" result="effect1_dropShadow"/>
<feBlend mode="normal" in="SourceGraphic" in2="effect1_dropShadow" result="shape"/>
</filter>
<filter id="filter8_d" x="800.087" y="353.533" width="65.293" height="65.2695" filterUnits="userSpaceOnUse" color-interpolation-filters="sRGB">
<feFlood flood-opacity="0" result="BackgroundImageFix"/>
<feColorMatrix in="SourceAlpha" type="matrix" values="0 0 0 0 0 0 0 0 0 0 0 0 0 0 0 0 0 0 127 0" result="hardAlpha"/>
<feOffset/>
<feGaussianBlur stdDeviation="15"/>
<feComposite in2="hardAlpha" operator="out"/>
<feColorMatrix type="matrix" values="0 0 0 0 1 0 0 0 0 1 0 0 0 0 0.658824 0 0 0 1 0"/>
<feBlend mode="normal" in2="BackgroundImageFix" result="effect1_dropShadow"/>
<feBlend mode="normal" in="SourceGraphic" in2="effect1_dropShadow" result="shape"/>
</filter>
<filter id="filter9_d" x="75.3809" y="475.871" width="65.2979" height="65.377" filterUnits="userSpaceOnUse" color-interpolation-filters="sRGB">
<feFlood flood-opacity="0" result="BackgroundImageFix"/>
<feColorMatrix in="SourceAlpha" type="matrix" values="0 0 0 0 0 0 0 0 0 0 0 0 0 0 0 0 0 0 127 0" result="hardAlpha"/>
<feOffset/>
<feGaussianBlur stdDeviation="15"/>
<feComposite in2="hardAlpha" operator="out"/>
<feColorMatrix type="matrix" values="0 0 0 0 1 0 0 0 0 1 0 0 0 0 0.658824 0 0 0 1 0"/>
<feBlend mode="normal" in2="BackgroundImageFix" result="effect1_dropShadow"/>
<feBlend mode="normal" in="SourceGraphic" in2="effect1_dropShadow" result="shape"/>
</filter>
<filter id="filter10_d" x="346.284" y="311.189" width="65.293" height="65.2695" filterUnits="userSpaceOnUse" color-interpolation-filters="sRGB">
<feFlood flood-opacity="0" result="BackgroundImageFix"/>
<feColorMatrix in="SourceAlpha" type="matrix" values="0 0 0 0 0 0 0 0 0 0 0 0 0 0 0 0 0 0 127 0" result="hardAlpha"/>
<feOffset/>
<feGaussianBlur stdDeviation="15"/>
<feComposite in2="hardAlpha" operator="out"/>
<feColorMatrix type="matrix" values="0 0 0 0 1 0 0 0 0 1 0 0 0 0 0.658824 0 0 0 1 0"/>
<feBlend mode="normal" in2="BackgroundImageFix" result="effect1_dropShadow"/>
<feBlend mode="normal" in="SourceGraphic" in2="effect1_dropShadow" result="shape"/>
</filter>
<filter id="filter11_d" x="212.815" y="460.059" width="63.9824" height="63.9629" filterUnits="userSpaceOnUse" color-interpolation-filters="sRGB">
<feFlood flood-opacity="0" result="BackgroundImageFix"/>
<feColorMatrix in="SourceAlpha" type="matrix" values="0 0 0 0 0 0 0 0 0 0 0 0 0 0 0 0 0 0 127 0" result="hardAlpha"/>
<feOffset/>
<feGaussianBlur stdDeviation="15"/>
<feComposite in2="hardAlpha" operator="out"/>
<feColorMatrix type="matrix" values="0 0 0 0 1 0 0 0 0 1 0 0 0 0 0.658824 0 0 0 1 0"/>
<feBlend mode="normal" in2="BackgroundImageFix" result="effect1_dropShadow"/>
<feBlend mode="normal" in="SourceGraphic" in2="effect1_dropShadow" result="shape"/>
</filter>
<filter id="filter12_d" x="711.231" y="484.814" width="68.335" height="68.3398" filterUnits="userSpaceOnUse" color-interpolation-filters="sRGB">
<feFlood flood-opacity="0" result="BackgroundImageFix"/>
<feColorMatrix in="SourceAlpha" type="matrix" values="0 0 0 0 0 0 0 0 0 0 0 0 0 0 0 0 0 0 127 0" result="hardAlpha"/>
<feOffset/>
<feGaussianBlur stdDeviation="15"/>
<feComposite in2="hardAlpha" operator="out"/>
<feColorMatrix type="matrix" values="0 0 0 0 1 0 0 0 0 1 0 0 0 0 0.658824 0 0 0 1 0"/>
<feBlend mode="normal" in2="BackgroundImageFix" result="effect1_dropShadow"/>
<feBlend mode="normal" in="SourceGraphic" in2="effect1_dropShadow" result="shape"/>
</filter>
<filter id="filter13_d" x="393.82" y="495.633" width="68.3818" height="68.293" filterUnits="userSpaceOnUse" color-interpolation-filters="sRGB">
<feFlood flood-opacity="0" result="BackgroundImageFix"/>
<feColorMatrix in="SourceAlpha" type="matrix" values="0 0 0 0 0 0 0 0 0 0 0 0 0 0 0 0 0 0 127 0" result="hardAlpha"/>
<feOffset/>
<feGaussianBlur stdDeviation="15"/>
<feComposite in2="hardAlpha" operator="out"/>
<feColorMatrix type="matrix" values="0 0 0 0 1 0 0 0 0 1 0 0 0 0 0.658824 0 0 0 1 0"/>
<feBlend mode="normal" in2="BackgroundImageFix" result="effect1_dropShadow"/>
<feBlend mode="normal" in="SourceGraphic" in2="effect1_dropShadow" result="shape"/>
</filter>
<radialGradient id="paint0_radial" cx="0" cy="0" r="1" gradientUnits="userSpaceOnUse" gradientTransform="translate(662.976 565.16) scale(467.796 465.718)">
<stop stop-color="#FFBD00"/>
<stop offset="1" stop-color="#FF772C"/>
</radialGradient>
<linearGradient id="paint1_linear" x1="643.409" y1="574.856" x2="643.409" y2="76.1078" gradientUnits="userSpaceOnUse">
<stop stop-color="#FFF300"/>
<stop offset="1" stop-color="#FF9700"/>
</linearGradient>
<linearGradient id="paint2_linear" x1="643.411" y1="565.44" x2="643.411" y2="81.4662" gradientUnits="userSpaceOnUse">
<stop stop-color="#FFCC00"/>
<stop offset="1" stop-color="#FF9700"/>
</linearGradient>
<linearGradient id="paint3_linear" x1="777.5" y1="100.5" x2="725" y2="215" gradientUnits="userSpaceOnUse">
<stop stop-color="#FFC400" stop-opacity="0"/>
<stop offset="1" stop-color="#FFC400"/>
</linearGradient>
<linearGradient id="paint4_linear" x1="1153" y1="156" x2="1202" y2="161" gradientUnits="userSpaceOnUse">
<stop stop-color="#FFAB01"/>
<stop offset="1" stop-color="#FFAB01" stop-opacity="0.41"/>
</linearGradient>
<clipPath id="clip0">
<rect width="1310" height="663" fill="white"/>
</clipPath>
</defs>
</svg>
