<?xml version="1.0" encoding="utf-8"?>
<!-- Generator: Adobe Illustrator 24.3.0, SVG Export Plug-In . SVG Version: 6.00 Build 0)  -->
<svg preserveAspectRatio="none" version="1.0" xmlns="http://www.w3.org/2000/svg" xmlns:xlink="http://www.w3.org/1999/xlink" x="0px" y="0px"
	 viewBox="0 0 133.3 52.6" style="enable-background:new 0 0 133.3 52.6;" xml:space="preserve">
<style type="text/css">
	.st0{fill:#FFFFFF;}
	.st1{fill:url(#SVGID_1_);}
	.st2{opacity:0.5;fill:url(#SVGID_2_);}
	.st3{fill:url(#SVGID_3_);}
	.st4{fill:url(#SVGID_4_);}
	.st5{fill:url(#SVGID_5_);}
	.st6{fill:url(#SVGID_6_);}
	.st7{fill:url(#SVGID_7_);}
	.st8{fill:url(#SVGID_8_);}
	.st9{fill:url(#SVGID_9_);}
	.st10{fill:url(#SVGID_10_);}
	.st11{fill:url(#SVGID_11_);}
	.st12{fill:url(#SVGID_12_);}
	.st13{fill:url(#SVGID_13_);}
	.st14{fill:url(#SVGID_14_);}
	.st15{fill:url(#SVGID_15_);}
	.st16{fill:#FFFFAB;}
</style>
<g id="space">
	<path class="st0" d="M6.1,43.6c0,0,15.8,6,63.9,6s55.7-8,55.7-8L6.1,43.6z"/>
	<radialGradient id="SVGID_1_" cx="67.1212" cy="49.8259" r="49.7987" fx="66.0895" fy="46.2316" gradientUnits="userSpaceOnUse">
		<stop  offset="0" style="stop-color:#FFBD00"/>
		<stop  offset="1" style="stop-color:#FF772C"/>
	</radialGradient>
	<path class="st1" d="M126,42.6C111.6,57.8,9.3,51.5,4.9,42.4C0.3,32.8-1.5,12.8,5.8,6.6c7.8-6.7,111.3-8.7,121-0.2
		C133.9,12.6,134.3,33.9,126,42.6z"/>
	
		<radialGradient id="SVGID_2_" cx="-610.0765" cy="591.7339" r="94.3464" gradientTransform="matrix(-1 0 0 1 -500.0654 -546)" gradientUnits="userSpaceOnUse">
		<stop  offset="0" style="stop-color:#FDCB76"/>
		<stop  offset="1" style="stop-color:#FF772C"/>
	</radialGradient>
	<path class="st2" d="M119.9,42.9c0,0-40.6,10-102,2.4c0,0,45.8,2.4,63.7,0C101.7,42.6,111.6,39.8,119.9,42.9z"/>
	<radialGradient id="SVGID_3_" cx="68.6103" cy="11.7169" r="60.0103" fx="8.6951" fy="8.3412" gradientUnits="userSpaceOnUse">
		<stop  offset="3.652372e-02" style="stop-color:#FDCB76"/>
		<stop  offset="1" style="stop-color:#FF772C"/>
	</radialGradient>
	<path class="st3" d="M126.7,17.6c-2.1,2.7-17.8,2.7-24,1.3c-6.1-1.4-17-5.5-23.1-6.8C62.7,8.3,10.2,7.4,10.2,7.4s44.6-3.9,62.4-3.9
		c32.1,0,42.1,3,50.4,4.9c2.9,0.7,3.1,2.5,3.4,3.6C126.6,13,127.4,16.6,126.7,17.6z"/>
	<radialGradient id="SVGID_4_" cx="13.4856" cy="10.941" r="1.8469" fx="13.4187" fy="10.9954" gradientUnits="userSpaceOnUse">
		<stop  offset="7.714768e-02" style="stop-color:#FDCB76"/>
		<stop  offset="0.9384" style="stop-color:#FF772C"/>
	</radialGradient>
	<circle class="st4" cx="13.5" cy="11" r="2"/>
	<radialGradient id="SVGID_5_" cx="9.1597" cy="25.5281" r="4.1921" fx="9.0078" fy="25.6516" gradientUnits="userSpaceOnUse">
		<stop  offset="7.714768e-02" style="stop-color:#FDCB76"/>
		<stop  offset="0.9384" style="stop-color:#FF772C;stop-opacity:0"/>
	</radialGradient>
	<circle class="st5" cx="9.1" cy="25.6" r="4.4"/>
	<radialGradient id="SVGID_6_" cx="15.4784" cy="28.5899" r="3.0405" fx="15.3683" fy="28.6795" gradientUnits="userSpaceOnUse">
		<stop  offset="7.714768e-02" style="stop-color:#FDCB76"/>
		<stop  offset="0.9384" style="stop-color:#FF772C;stop-opacity:0"/>
	</radialGradient>
	<circle class="st6" cx="15.4" cy="28.6" r="3.2"/>
	<radialGradient id="SVGID_7_" cx="26.3673" cy="36.8122" r="3.0405" fx="26.2572" fy="36.9018" gradientUnits="userSpaceOnUse">
		<stop  offset="7.714768e-02" style="stop-color:#FDCB76"/>
		<stop  offset="0.9384" style="stop-color:#FF772C;stop-opacity:0"/>
	</radialGradient>
	<circle class="st7" cx="26.3" cy="36.8" r="3.2"/>
	<radialGradient id="SVGID_8_" cx="35.1451" cy="44.2566" r="3.0405" fx="35.035" fy="44.3462" gradientUnits="userSpaceOnUse">
		<stop  offset="7.714768e-02" style="stop-color:#FDCB76"/>
		<stop  offset="0.9384" style="stop-color:#FF772C;stop-opacity:0"/>
	</radialGradient>
	<circle class="st8" cx="35.1" cy="44.3" r="3.2"/>
	<radialGradient id="SVGID_9_" cx="44.1451" cy="42.9233" r="3.0405" fx="44.035" fy="43.0129" gradientUnits="userSpaceOnUse">
		<stop  offset="7.714768e-02" style="stop-color:#FDCB76"/>
		<stop  offset="0.9384" style="stop-color:#FFA410;stop-opacity:0"/>
	</radialGradient>
	<circle class="st9" cx="44.1" cy="42.9" r="3.2"/>
	
		<radialGradient id="SVGID_10_" cx="64.034" cy="42.1455" r="3.0405" fx="63.9238" fy="42.2351" gradientTransform="matrix(-0.3017 -0.9534 0.9534 -0.3017 43.1096 115.9129)" gradientUnits="userSpaceOnUse">
		<stop  offset="7.714768e-02" style="stop-color:#FDCB76"/>
		<stop  offset="0.9384" style="stop-color:#FFA410;stop-opacity:0"/>
	</radialGradient>
	<circle class="st10" cx="64" cy="42.2" r="3.2"/>
	
		<radialGradient id="SVGID_11_" cx="67.0603" cy="53.9417" r="3.0405" fx="66.9502" fy="54.0313" gradientTransform="matrix(-0.3017 -0.9534 0.9534 -0.3017 43.1096 115.9129)" gradientUnits="userSpaceOnUse">
		<stop  offset="7.714768e-02" style="stop-color:#FDCB76"/>
		<stop  offset="0.9384" style="stop-color:#FFA410;stop-opacity:0"/>
	</radialGradient>
	<circle class="st11" cx="74.3" cy="35.7" r="3.2"/>
	
		<radialGradient id="SVGID_12_" cx="62.8295" cy="69.1518" r="3.0405" fx="62.7193" fy="69.2414" gradientTransform="matrix(-0.3017 -0.9534 0.9534 -0.3017 43.1096 115.9129)" gradientUnits="userSpaceOnUse">
		<stop  offset="7.714768e-02" style="stop-color:#FDCB76"/>
		<stop  offset="0.9384" style="stop-color:#FFA410;stop-opacity:0"/>
	</radialGradient>
	<circle class="st12" cx="90.1" cy="35.2" r="3.2"/>
	
		<radialGradient id="SVGID_13_" cx="58.0946" cy="69.7511" r="3.0405" fx="57.9845" fy="69.8407" gradientTransform="matrix(-0.3017 -0.9534 0.9534 -0.3017 43.1096 115.9129)" gradientUnits="userSpaceOnUse">
		<stop  offset="7.714768e-02" style="stop-color:#FDCB76"/>
		<stop  offset="0.9384" style="stop-color:#FFA410;stop-opacity:0"/>
	</radialGradient>
	<circle class="st13" cx="92.1" cy="39.5" r="3.2"/>
	
		<radialGradient id="SVGID_14_" cx="56.4008" cy="85.4145" r="3.0405" fx="56.2907" fy="85.5041" gradientTransform="matrix(-0.3017 -0.9534 0.9534 -0.3017 43.1096 115.9129)" gradientUnits="userSpaceOnUse">
		<stop  offset="7.714768e-02" style="stop-color:#FDCB76"/>
		<stop  offset="0.9384" style="stop-color:#FFA410;stop-opacity:0"/>
	</radialGradient>
	<circle class="st14" cx="107.6" cy="36.4" r="3.2"/>
	
		<radialGradient id="SVGID_15_" cx="51.3767" cy="99.5453" r="3.8788" fx="51.2362" fy="99.6596" gradientTransform="matrix(-0.3017 -0.9534 0.9534 -0.3017 43.1096 115.9129)" gradientUnits="userSpaceOnUse">
		<stop  offset="7.714768e-02" style="stop-color:#FDCB76"/>
		<stop  offset="0.9384" style="stop-color:#FFA410;stop-opacity:0"/>
	</radialGradient>
	<circle class="st15" cx="122.6" cy="36.9" r="4.1"/>
</g>
<g id="Слой_2">
	<g>
		<path class="st16" d="M35.1,44.1c0.2,0,0.4,0.2,0.4,0.4s-0.2,0.4-0.4,0.4s-0.4-0.2-0.4-0.4C34.7,44.3,34.9,44.1,35.1,44.1z"/>
		<path class="st16" d="M64,41.7c0.2,0,0.4,0.2,0.4,0.4s-0.2,0.4-0.4,0.4s-0.4-0.2-0.4-0.4S63.8,41.7,64,41.7z"/>
		<path class="st16" d="M15.5,28.3c0.2,0,0.4,0.2,0.4,0.4c0,0.2-0.2,0.4-0.4,0.4s-0.4-0.2-0.4-0.4S15.3,28.3,15.5,28.3z"/>
		<path class="st16" d="M122.5,35.7c0.7,0,1.2,0.5,1.3,1.1c0,0.7-0.5,1.2-1.1,1.3c-0.7,0-1.2-0.5-1.3-1.1
			C121.4,36.3,121.9,35.7,122.5,35.7z"/>
		<path class="st16" d="M107.5,36c0.3,0,0.6,0.2,0.6,0.5s-0.2,0.6-0.5,0.6s-0.6-0.2-0.6-0.5S107.2,36,107.5,36z"/>
		<path class="st16" d="M89.9,34.7c0.3,0,0.6,0.2,0.6,0.5s-0.2,0.6-0.5,0.6s-0.6-0.2-0.6-0.5S89.6,34.8,89.9,34.7z"/>
		<path class="st16" d="M92.1,39.3c0.2,0,0.3,0.1,0.3,0.3s-0.1,0.3-0.3,0.3c-0.2,0-0.3-0.1-0.3-0.3C91.8,39.4,91.9,39.3,92.1,39.3z"
			/>
		<path class="st16" d="M26.3,36.6c0.2,0,0.3,0.1,0.3,0.3s-0.1,0.3-0.3,0.3c-0.2,0-0.3-0.1-0.3-0.3C26.1,36.7,26.2,36.6,26.3,36.6z"
			/>
		<path class="st16" d="M13.4,10.6c0.1,0,0.2,0.1,0.2,0.2c0,0.1-0.1,0.2-0.2,0.2c-0.1,0-0.2-0.1-0.2-0.2
			C13.2,10.7,13.3,10.6,13.4,10.6z"/>
		<path class="st16" d="M74.4,35.3c0.2,0,0.5,0.2,0.5,0.4s-0.2,0.5-0.4,0.5c-0.2,0-0.5-0.2-0.5-0.4C74,35.5,74.2,35.3,74.4,35.3z"/>
		<path class="st16" d="M44,42.5c0.2,0,0.5,0.2,0.5,0.4s-0.2,0.5-0.4,0.5s-0.5-0.2-0.5-0.4C43.6,42.7,43.8,42.5,44,42.5z"/>
		<path class="st16" d="M9.1,24.4c0.7,0,1.2,0.5,1.3,1.1c0,0.7-0.5,1.2-1.1,1.3c-0.7,0-1.2-0.5-1.3-1.1C7.9,25,8.4,24.4,9.1,24.4z"
			/>
	</g>
</g>
</svg>
