<svg width="83" height="87" viewBox="0 0 83 87" fill="none" xmlns="http://www.w3.org/2000/svg">
    <path d="M36.363 2.3899C36.3647 2.3916 36.3675 2.3914 36.3691 2.3895C36.972 1.6439 37.734 1.0424 38.5992 0.629C39.4658 0.2149 40.4141 0 41.3746 0C42.335 0 43.2833 0.2149 44.1499 0.629C45.0165 1.0431 45.7795 1.6458 46.3829 2.3931C49.9541 6.813 55.7994 8.7133 61.2858 7.2341C62.2129 6.9841 63.1843 6.9447 64.1286 7.1188C65.073 7.2929 65.9664 7.676 66.7435 8.2401C67.5206 8.8043 68.1617 9.5351 68.6197 10.3792C69.0777 11.2232 69.3411 12.1589 69.3906 13.1179C69.684 18.7952 73.2947 23.7708 78.6026 25.8063C79.4985 26.15 80.3062 26.6896 80.9666 27.3857C81.6271 28.0818 82.1236 28.9167 82.4198 29.8294C82.716 30.7421 82.8044 31.7094 82.6786 32.6607C82.5528 33.6119 82.2159 34.523 81.6926 35.3273C78.5999 40.0917 78.6091 46.2407 81.7055 51.0026C82.2288 51.8069 82.5657 52.718 82.6915 53.6693C82.8173 54.6205 82.7289 55.5879 82.4327 56.5006C82.1365 57.4133 81.64 58.2482 80.9795 58.9443C80.3191 59.6404 79.5114 60.18 78.6155 60.5237C73.3086 62.5573 69.6906 67.5299 69.397 73.2056C69.3473 74.1639 69.084 75.0989 68.6264 75.9423C68.1687 76.7858 67.5283 77.5162 66.752 78.0802C65.9757 78.6443 65.0831 79.0276 64.1396 79.2022C63.196 79.3768 62.2254 79.3383 61.2986 79.0894C55.8076 77.614 49.9627 79.5142 46.3894 83.9369C45.786 84.6841 45.023 85.2869 44.1564 85.7009C43.2897 86.115 42.3415 86.3299 41.381 86.3299C40.4205 86.3299 39.4723 86.115 38.6056 85.7009C37.739 85.2869 36.976 84.6841 36.3726 83.9369C32.8017 79.5172 26.9569 77.614 21.4698 79.0894C20.5426 79.3394 19.5713 79.3788 18.6269 79.2047C17.6826 79.0307 16.7891 78.6475 16.012 78.0834C15.2349 77.5192 14.5939 76.7884 14.1359 75.9444C13.6779 75.1004 13.4145 74.1646 13.365 73.2056C13.0714 67.5297 9.45961 62.5587 4.15291 60.5237C3.25611 60.1802 2.4475 59.6404 1.78636 58.9438C1.12522 58.2473 0.628312 57.4116 0.332032 56.4981C0.0357517 55.5846 -0.0523781 54.6163 0.0740919 53.6643C0.200562 52.7123 0.538432 51.8007 1.06294 50.9962C4.15511 46.2327 4.14411 40.0855 1.04363 35.3273C0.519272 34.5224 0.181692 33.6104 0.0556516 32.658C-0.0703884 31.7057 0.0183018 30.7373 0.315222 29.8237C0.612142 28.9101 1.10975 28.0745 1.77159 27.3782C2.43342 26.682 3.24271 26.1427 4.14011 25.7998C9.44691 23.7702 13.0625 18.7987 13.3521 13.1244C13.4007 12.1648 13.6634 11.2283 14.121 10.3835C14.5786 9.5387 15.2196 8.8071 15.9968 8.2422C16.774 7.6774 17.6678 7.2936 18.6126 7.1192C19.5574 6.9447 20.5293 6.984 21.4569 7.2341L27.1481 8.7644C29.1752 9.3095 31.333 8.6082 32.6522 6.9754L36.3569 2.3902C36.3584 2.3883 36.3613 2.3881 36.363 2.3899ZM55.0221 31.3425L36.5464 49.8696L27.5597 40.8829L27.1091 40.5159C26.4482 40.0569 25.6393 39.862 24.8419 39.9698C24.0445 40.0775 23.3163 40.48 22.8009 41.098C22.2855 41.716 22.0203 42.5046 22.0575 43.3084C22.0947 44.1122 22.4317 44.8729 23.0019 45.4406L34.2676 56.7063L34.7182 57.0796C35.3389 57.5072 36.09 57.7034 36.8406 57.634C37.5911 57.5646 38.2935 57.234 38.8253 56.6998L59.5798 35.8874L59.9532 35.4368C60.4053 34.7749 60.5942 33.9681 60.4829 33.1743C60.3716 32.3806 59.9681 31.6569 59.3514 31.1448C58.7348 30.6328 57.9492 30.3693 57.1485 30.4059C56.3478 30.4424 55.5895 30.7764 55.0221 31.3425Z" fill="#FFC400"/>
</svg>