<svg version="1.0" xmlns="http://www.w3.org/2000/svg"
 width="512.000000pt" height="512.000000pt" viewBox="0 0 512.000000 512.000000"
 preserveAspectRatio="xMidYMid meet">

    <g transform="translate(0.000000,512.000000) scale(0.100000,-0.100000)" stroke="none">
        <path d="M390 5104 c-30 -8 -79 -27 -110 -42 -71 -35 -187 -151 -222 -222 -62
        -126 -58 27 -58 -2280 0 -2307 -4 -2154 58 -2280 35 -71 151 -187 222 -222
        126 -62 -27 -58 2280 -58 2307 0 2154 -4 2280 58 71 35 187 151 222 222 62
        126 58 -27 58 2280 0 2307 4 2154 -58 2280 -35 71 -151 187 -222 222 -126 62
        28 58 -2285 57 -1824 0 -2117 -2 -2165 -15z m4139 -507 c19 -7 44 -25 55 -40
        20 -27 21 -40 21 -331 0 -276 -2 -304 -18 -330 -36 -54 -60 -57 -383 -54
        l-294 3 -32 33 -33 32 0 309 c0 298 1 311 21 338 35 47 66 52 359 52 183 0
        281 -4 304 -12z m-1716 -1045 c304 -82 562 -302 684 -584 65 -149 77 -213 77
        -408 0 -195 -12 -259 -77 -408 -99 -228 -301 -430 -529 -529 -149 -65 -213
        -77 -408 -77 -195 0 -259 12 -408 77 -228 99 -430 301 -529 529 -65 149 -77
        213 -77 408 0 148 3 187 22 253 106 383 401 665 782 748 117 26 350 21 463 -9z
        m-1768 -749 c-24 -59 -22 -367 4 -513 81 -466 398 -887 832 -1105 206 -104
        432 -156 679 -156 413 0 770 146 1068 435 231 224 390 520 443 826 26 147 28
        454 4 513 -7 16 8 17 261 15 l269 -3 0 -1112 0 -1112 -21 -28 c-11 -15 -36
        -33 -55 -40 -49 -17 -3889 -17 -3938 0 -19 7 -44 25 -55 40 -21 28 -21 30 -24
        1130 -1 606 0 1107 3 1114 3 10 65 13 271 13 250 0 266 -1 259 -17z"/>
    </g>
</svg>
