<svg preserveAspectRatio="none" width="4288" height="114" viewBox="0 0 4288 114" fill="none" xmlns="http://www.w3.org/2000/svg">
<path fill-rule="evenodd" clip-rule="evenodd" d="M1416.65 32.4696C647.031 34.4196 16.3499 36.4701 10.1198 37.0386C10.0909 37.0413 10.0754 37.0439 10.0734 37.0464C9.64209 37.5996 11.156 52.7827 13.4354 70.7778L17.5796 103.5H2139.26H4260.94L4269.47 65.5L4278 27.5L3550.22 28.2009C3149.94 28.5851 2189.83 30.5062 1416.65 32.4696Z" fill="#D53C46"/>
<path d="M10.1206 37.0386C16.3507 36.4701 647.032 34.4196 1416.65 32.4696C2189.83 30.5062 3149.94 28.5851 3550.22 28.2009L4278 27.5L4164 10H2398.5H1860H1506H170.501L10.1206 37.0386Z" fill="#FF8C37"/>
</svg>
