<?xml version="1.0" encoding="utf-8"?>
<!-- Generator: Adobe Illustrator 24.3.0, SVG Export Plug-In . SVG Version: 6.00 Build 0)  -->
<svg version="1.0" id="living_room" xmlns="http://www.w3.org/2000/svg" xmlns:xlink="http://www.w3.org/1999/xlink" x="0px"
	 y="0px" viewBox="0 0 123.6 126.9" style="enable-background:new 0 0 123.6 126.9;" xml:space="preserve">
<style type="text/css">
	.st0{fill-rule:evenodd;clip-rule:evenodd;fill:#853936;}
	.st1{fill-rule:evenodd;clip-rule:evenodd;fill:#791D36;}
	.st2{fill-rule:evenodd;clip-rule:evenodd;fill:url(#SVGID_1_);}
	.st3{fill-rule:evenodd;clip-rule:evenodd;fill:url(#SVGID_2_);}
	.st4{fill-rule:evenodd;clip-rule:evenodd;fill:url(#SVGID_3_);}
	.st5{fill-rule:evenodd;clip-rule:evenodd;fill:url(#SVGID_4_);}
	.st6{fill-rule:evenodd;clip-rule:evenodd;fill:url(#SVGID_5_);}
	.st7{fill-rule:evenodd;clip-rule:evenodd;fill:url(#SVGID_6_);}
	.st8{fill-rule:evenodd;clip-rule:evenodd;fill:url(#SVGID_7_);}
	.st9{opacity:0.5;fill-rule:evenodd;clip-rule:evenodd;fill:#A65444;}
	.st10{fill-rule:evenodd;clip-rule:evenodd;fill:url(#SVGID_8_);}
	.st11{fill-rule:evenodd;clip-rule:evenodd;fill:url(#SVGID_9_);}
	.st12{fill-rule:evenodd;clip-rule:evenodd;fill:url(#SVGID_10_);}
	.st13{opacity:0.2;fill-rule:evenodd;clip-rule:evenodd;fill:#A65444;}
	.st14{opacity:0.2;fill-rule:evenodd;clip-rule:evenodd;fill:#FFFF48;}
	.st15{fill-rule:evenodd;clip-rule:evenodd;fill:#FFF4AE;}
	.st16{fill-rule:evenodd;clip-rule:evenodd;fill:url(#SVGID_11_);}
	.st17{fill-rule:evenodd;clip-rule:evenodd;fill:url(#SVGID_12_);}
	.st18{fill-rule:evenodd;clip-rule:evenodd;fill:#DAC4A4;}
	.st19{fill-rule:evenodd;clip-rule:evenodd;fill:url(#SVGID_13_);}
	.st20{fill-rule:evenodd;clip-rule:evenodd;fill:#BD4703;}
	.st21{fill:#BD4703;}
	.st22{opacity:0.5;fill-rule:evenodd;clip-rule:evenodd;fill:url(#SVGID_14_);}
	.st23{opacity:0.3;fill-rule:evenodd;clip-rule:evenodd;fill:url(#SVGID_15_);}
	.st24{fill-rule:evenodd;clip-rule:evenodd;fill:url(#SVGID_16_);}
	.st25{fill-rule:evenodd;clip-rule:evenodd;fill:url(#SVGID_17_);}
</style>
<polygon class="st0" points="101,120.9 99.8,125.2 98,125.2 95.9,120.9 "/>
<polygon class="st0" points="14.5,120.9 9.3,125.2 7.5,125.2 7.5,120.9 "/>
<polygon class="st1" points="118.3,120.9 117.1,125.2 115.3,125.2 113.2,120.9 "/>
<polygon class="st1" points="53.8,120.9 52.6,125.2 50.8,125.2 48.7,120.9 "/>
<linearGradient id="SVGID_1_" gradientUnits="userSpaceOnUse" x1="-612.275" y1="121.2557" x2="-612.275" y2="45.2561" gradientTransform="matrix(-1 0 0 1 -502.0695 0)">
	<stop  offset="0" style="stop-color:#DE6221"/>
	<stop  offset="1" style="stop-color:#F58036"/>
</linearGradient>
<polygon class="st2" points="119,121.1 121.7,45.3 103.1,45.3 98.7,121.3 "/>
<linearGradient id="SVGID_2_" gradientUnits="userSpaceOnUse" x1="-554.6163" y1="121.2557" x2="-554.6163" y2="44.4426" gradientTransform="matrix(-1 0 0 1 -502.0695 0)">
	<stop  offset="0" style="stop-color:#DE6221"/>
	<stop  offset="1" style="stop-color:#F58036"/>
</linearGradient>
<polygon class="st3" points="103.1,45.3 2,44.4 5.5,121 98.7,121.3 "/>
<linearGradient id="SVGID_3_" gradientUnits="userSpaceOnUse" x1="-554.8632" y1="119.7524" x2="-554.8632" y2="46.2843" gradientTransform="matrix(-1 0 0 1 -502.0695 0)">
	<stop  offset="2.234640e-02" style="stop-color:#A53640"/>
	<stop  offset="0.9944" style="stop-color:#A31D36"/>
</linearGradient>
<polygon class="st4" points="6.3,119.8 96.7,119.8 101.1,47.4 4.5,46.3 "/>
<linearGradient id="SVGID_4_" gradientUnits="userSpaceOnUse" x1="-517.0283" y1="119.7524" x2="-517.0283" y2="47.6111" gradientTransform="matrix(-1 0 0 1 -502.0695 0)">
	<stop  offset="0" style="stop-color:#DE6221"/>
	<stop  offset="1" style="stop-color:#F58036"/>
</linearGradient>
<polygon class="st5" points="5.8,47.6 7.2,119.8 24.1,119.8 22.8,48 "/>
<linearGradient id="SVGID_5_" gradientUnits="userSpaceOnUse" x1="-564.524" y1="119.7524" x2="-564.524" y2="48.0833" gradientTransform="matrix(-1 0 0 1 -502.0695 0)">
	<stop  offset="0" style="stop-color:#979592"/>
	<stop  offset="1" style="stop-color:#FFD59F"/>
</linearGradient>
<polygon class="st6" points="100.8,48.9 24.1,48.1 25.9,119.8 96.7,119.8 "/>
<linearGradient id="SVGID_6_" gradientUnits="userSpaceOnUse" x1="-564.3643" y1="116.4049" x2="-564.3643" y2="50.606" gradientTransform="matrix(-1 0 0 1 -502.0695 0)">
	<stop  offset="2.234640e-02" style="stop-color:#836D63"/>
	<stop  offset="0.9888" style="stop-color:#795068"/>
</linearGradient>
<polygon class="st7" points="94.5,116.4 96.7,51.6 27.9,50.6 27.9,116.4 "/>
<linearGradient id="SVGID_7_" gradientUnits="userSpaceOnUse" x1="-563.5185" y1="115.8872" x2="-563.5185" y2="51.2843" gradientTransform="matrix(-1 0 0 1 -502.0695 0)">
	<stop  offset="0" style="stop-color:#A82D39"/>
	<stop  offset="0.9832" style="stop-color:#CB451F"/>
</linearGradient>
<path class="st8" d="M93.6,55.7c3.3,2.9,0.9,54.8-1.4,57.7c-2.2,3-54,3.6-58.4,0c-8-6.6-8.1-44.9-0.6-58.8
	C36.3,49,88.4,51.2,93.6,55.7z"/>
<path class="st9" d="M27.9,50.6l5.5,3.6c0,0,1.9-1.6,7.5-2.1c0,0,5.2-0.6,10.5-0.7c5.6-0.2,31.4-0.1,41.2,3.8
	c1.5,0.6,1.5,2.3,1.5,2.3l2.4-5.8L27.9,50.6z"/>
<linearGradient id="SVGID_8_" gradientUnits="userSpaceOnUse" x1="-596.6055" y1="114.9205" x2="-530.0143" y2="114.9205" gradientTransform="matrix(-1 0 0 1 -502.0695 0)">
	<stop  offset="0" style="stop-color:#BAC692"/>
	<stop  offset="1" style="stop-color:#FFD59F"/>
</linearGradient>
<path class="st10" d="M27.9,116.4l5.9-3c0,0,40.4,5.5,58.4,0l2.3,3H27.9z"/>
<polygon class="st9" points="5.8,47.6 22.8,48 100.9,49.9 101.1,47.4 4.5,46.3 "/>
<linearGradient id="SVGID_9_" gradientUnits="userSpaceOnUse" x1="-515.7461" y1="80.7538" x2="-515.7461" y2="50.4815" gradientTransform="matrix(-1 0 0 1 -502.0695 0)">
	<stop  offset="0" style="stop-color:#FF8F21"/>
	<stop  offset="1" style="stop-color:#F59A36"/>
</linearGradient>
<polygon class="st11" points="20.1,80.8 20.1,51 7.2,50.5 7.9,80 "/>
<linearGradient id="SVGID_10_" gradientUnits="userSpaceOnUse" x1="-522.8973" y1="80.7538" x2="-522.8973" y2="51.0185" gradientTransform="matrix(-1 0 0 1 -502.0695 0)">
	<stop  offset="2.234640e-02" style="stop-color:#A53640"/>
	<stop  offset="0.9944" style="stop-color:#A31D36"/>
</linearGradient>
<polygon class="st12" points="20.1,51 21.5,51 20.9,80 20.1,80.8 "/>
<polygon class="st13" points="23.7,94 6.5,88.8 6.7,92.9 23.8,99 "/>
<polygon class="st14" points="23.8,102.6 6.8,98.4 6.8,100.7 23.9,105.2 "/>
<polygon class="st13" points="24,114.9 7,113.3 7,116.6 24.1,119.8 "/>
<polygon class="st13" points="119.7,104.5 101.2,92.7 100.1,105 119.2,116.1 "/>
<polygon class="st13" points="119.8,100.3 101.7,84.1 101.8,81.8 119.8,99.2 "/>
<polygon class="st14" points="120.3,83 101.4,66.8 101.6,64.4 120.4,80.8 "/>
<polygon class="st15" points="21,105 19.5,106.1 10.2,106.1 8.8,104.5 "/>
<linearGradient id="SVGID_11_" gradientUnits="userSpaceOnUse" x1="-517.088" y1="114.9205" x2="-517.088" y2="104.5278" gradientTransform="matrix(-1 0 0 1 -502.0695 0)">
	<stop  offset="0" style="stop-color:#979592"/>
	<stop  offset="1" style="stop-color:#FFD59F"/>
</linearGradient>
<polygon class="st16" points="21,105 21.2,114.9 9,114 8.8,104.5 10.2,106.1 19.5,106.1 "/>
<linearGradient id="SVGID_12_" gradientUnits="userSpaceOnUse" x1="-517.2268" y1="114.9205" x2="-517.2268" y2="104.9733" gradientTransform="matrix(-1 0 0 1 -502.0695 0)">
	<stop  offset="2.234640e-02" style="stop-color:#836D63"/>
	<stop  offset="0.9888" style="stop-color:#795068"/>
</linearGradient>
<polygon class="st17" points="19.5,106.1 20.3,114 9.1,114 9.9,114.9 21.2,114.9 21,105 "/>
<polygon class="st15" points="19.3,112.4 16.1,112.1 10.7,108.4 10.5,107.3 "/>
<polygon class="st18" points="10.7,108.4 10.7,108.4 11,112.4 16.1,112.1 "/>
<linearGradient id="SVGID_13_" gradientUnits="userSpaceOnUse" x1="-517.216" y1="112.75" x2="-517.216" y2="112.0649" gradientTransform="matrix(-1 0 0 1 -502.0695 0)">
	<stop  offset="2.234640e-02" style="stop-color:#836D63"/>
	<stop  offset="0.9888" style="stop-color:#795068"/>
</linearGradient>
<polygon class="st19" points="19.3,112.4 11.3,112.8 11,112.4 16.1,112.1 "/>
<polygon class="st20" points="17.5,72.3 17.5,74.7 15.1,74.7 14.7,72.3 "/>
<polygon class="st20" points="12.5,73.7 12.5,76 10.8,76 10.2,73.7 "/>
<g>
	<path class="st21" d="M9.4,67.3l0-0.2L9,52.9l9.5,0.4l0,0.2l0.6,12.9L9.4,67.3z M9.6,53.4l0.2,13.4l8.7-0.9l-0.5-12.2L9.6,53.4z"/>
</g>
<linearGradient id="SVGID_14_" gradientUnits="userSpaceOnUse" x1="-596.6055" y1="104.8111" x2="-530.2433" y2="104.8111" gradientTransform="matrix(-1 0 0 1 -502.0695 0)">
	<stop  offset="0" style="stop-color:#BCAD4A"/>
	<stop  offset="1" style="stop-color:#5B3300"/>
</linearGradient>
<path class="st22" d="M94.5,95.3c0,0-1,13.2-3.5,16.8c-2.5,3.6-53.4,2.2-57.2,0.4c-2.9-1.4-5.7-11.6-5.7-11.6s3.3,9.5,6.7,10.6
	c5.7,1.9,43.1,2.2,52.5-0.5C93.3,109.2,94.5,95.3,94.5,95.3z"/>
<linearGradient id="SVGID_15_" gradientUnits="userSpaceOnUse" x1="-564.6664" y1="74.7075" x2="-564.6664" y2="52.0429" gradientTransform="matrix(-1 0 0 1 -502.0695 0)">
	<stop  offset="0" style="stop-color:#5B3300"/>
	<stop  offset="1" style="stop-color:#BCAD4A"/>
</linearGradient>
<path class="st23" d="M94.2,57.4c0,0-0.4,8.6-20.5,14.6c-20.1,6-42.8,0-42.8,0s0.1-14.7,3.5-17.5C37.8,51.7,78.6,49.8,94.2,57.4z"/>
<g>
	
		<linearGradient id="SVGID_16_" gradientUnits="userSpaceOnUse" x1="-577.5331" y1="44.2843" x2="-577.5331" y2="10.1598" gradientTransform="matrix(-1 0 0 1 -502.0695 0)">
		<stop  offset="0" style="stop-color:#979592"/>
		<stop  offset="1" style="stop-color:#B5918F"/>
	</linearGradient>
	<path class="st24" d="M66.8,44.3l12.6-25.1h1.9l3.6-6.5c0,0-1.4-2.8-3.9-2.4l-3.8,7.3l1.3,1.2L66.1,44.3H66.8z"/>
	<path class="st9" d="M81.2,19.2c0,0-0.9-2.1-4.1-1.7l1.3,1.2l0.9,0.5H81.2z"/>
	<path class="st15" d="M83.7,11.1l-4.5,5.6l2.2-6.6C81.4,10.2,83,10.5,83.7,11.1z"/>
</g>
<g>
	
		<linearGradient id="SVGID_17_" gradientUnits="userSpaceOnUse" x1="2092.2659" y1="44.2843" x2="2092.2659" y2="1.1341" gradientTransform="matrix(1 0 0 1 -2044.5356 0)">
		<stop  offset="0" style="stop-color:#979592"/>
		<stop  offset="1" style="stop-color:#B5918F"/>
	</linearGradient>
	<path class="st25" d="M56.3,44.3l-13-34.1h-1.9l-2.9-6.5c0,0,1.4-2.8,3.9-2.4l3.1,7.3l-1.3,1.2l12.8,34.6H56.3z"/>
	<path class="st9" d="M41.4,10.2c0,0,0.9-2.1,4.1-1.7l-1.3,1.2l-0.9,0.5H41.4z"/>
	<path class="st15" d="M39.7,2.1l3.7,5.6l-1.5-6.6C41.9,1.1,40.3,1.4,39.7,2.1z"/>
</g>
<polygon class="st9" points="103.1,45.3 101.7,84.7 98.7,121.3 "/>
</svg>
