<svg preserveAspectRatio="none" width="148" height="175" viewBox="0 0 148 175" fill="none" xmlns="http://www.w3.org/2000/svg">
<path d="M147 13H126.5L114 173H142L147 13Z" fill="#501B75"/>
<path d="M142 19L131.333 9L124 173H135.333L142 19Z" fill="#9770A7"/>
<path d="M2.61914 11L8.99832 173H130.203L131.5 2H2.61914V11Z" fill="#7C5BDB"/>
<path d="M106 2L130 24.9194V2H106Z" fill="url(#paint0_linear_496:2)"/>
<path d="M112 173L130 155V173H112Z" fill="url(#paint1_linear_496:2)"/>
<path d="M12 2V173H10.9091L7.5 2H12Z" fill="#5B28A3"/>
<path d="M131 2V25" stroke="#EC6500" stroke-width="2"/>
<path d="M131 24.9238V155" stroke="#501B75" stroke-width="2"/>
<path d="M131 155V173" stroke="#EC6500" stroke-width="2"/>
<path d="M146.26 13L145.65 32" stroke="#EC6500" stroke-width="1.5"/>
<path d="M141.801 155.5L141.301 173" stroke="#EC6500" stroke-width="1.5"/>
<g filter="url(#filter0_i_496:2)">
<path fill-rule="evenodd" clip-rule="evenodd" d="M63.5758 72.4822C63.7753 72.3938 63.9765 72.3094 64.1793 72.2289L69.9067 48L75.8017 72.1863C76.074 72.2921 76.3436 72.4051 76.61 72.5253L94.7624 63.162L85.2284 81.5275C85.3419 81.8094 85.4477 82.0944 85.5459 82.3822L107 88.0069L85.5735 93.5719C85.4337 93.9885 85.2778 94.3993 85.1061 94.8035L94.7624 113.404L76.048 103.751C75.8806 103.819 75.7122 103.885 75.5427 103.947L70.0933 127L64.4672 103.917C64.3599 103.877 64.2529 103.835 64.1464 103.793L45 113.567L55.0068 94.8568C54.8693 94.5363 54.7418 94.2115 54.6244 93.883L32 88.0069L54.6545 82.0674C54.7266 81.8689 54.8025 81.6718 54.882 81.4762L45 62.9999L63.5758 72.4822Z" fill="url(#paint2_linear_496:2)"/>
</g>
<g filter="url(#filter1_d_496:2)">
<path d="M78.9393 94.2519L70.0538 78L61.0605 94.2519H78.9393Z" fill="#FFE400"/>
<path opacity="0.8" d="M78.9393 94.2507H61.0605L70.0414 88.6641L78.9393 94.2507Z" fill="#FFA100"/>
<path opacity="0.8" d="M78.9394 94.2519L70 88.6892V78L74.3884 86.1259L78.9394 94.2519Z" fill="#FFCC00"/>
</g>
<g>
<filter id="filter0_i_496:2" x="32" y="48" width="75" height="79" filterUnits="userSpaceOnUse" color-interpolation-filters="sRGB">
<feFlood flood-opacity="0" result="BackgroundImageFix"/>
<feBlend mode="normal" in="SourceGraphic" in2="BackgroundImageFix" result="shape"/>
<feColorMatrix in="SourceAlpha" type="matrix" values="0 0 0 0 0 0 0 0 0 0 0 0 0 0 0 0 0 0 127 0" result="hardAlpha"/>
<feOffset/>
<feGaussianBlur stdDeviation="0.5"/>
<feComposite in2="hardAlpha" operator="arithmetic" k2="-1" k3="1"/>
<feColorMatrix type="matrix" values="0 0 0 0 0 0 0 0 0 0 0 0 0 0 0 0 0 0 0.4 0"/>
<feBlend mode="normal" in2="shape" result="effect1_innerShadow_496:2"/>
</filter>
<filter id="filter1_d_496:2" x="56.0605" y="73" width="27.8789" height="26.252" filterUnits="userSpaceOnUse" color-interpolation-filters="sRGB">
<feFlood flood-opacity="0" result="BackgroundImageFix"/>
<feColorMatrix in="SourceAlpha" type="matrix" values="0 0 0 0 0 0 0 0 0 0 0 0 0 0 0 0 0 0 127 0" result="hardAlpha"/>
<feOffset/>
<feGaussianBlur stdDeviation="2.5"/>
<feComposite in2="hardAlpha" operator="out"/>
<feColorMatrix type="matrix" values="0 0 0 0 0 0 0 0 0 0 0 0 0 0 0 0 0 0 0.25 0"/>
<feBlend mode="normal" in2="BackgroundImageFix" result="effect1_dropShadow_496:2"/>
<feBlend mode="normal" in="SourceGraphic" in2="effect1_dropShadow_496:2" result="shape"/>
</filter>
<linearGradient id="paint0_linear_496:2" x1="127" y1="9.5" x2="116.5" y2="2" gradientUnits="userSpaceOnUse">
<stop stop-color="#FF6D00"/>
<stop offset="1" stop-color="#FFB600"/>
</linearGradient>
<linearGradient id="paint1_linear_496:2" x1="121" y1="173" x2="121" y2="155" gradientUnits="userSpaceOnUse">
<stop stop-color="#FF6D00"/>
<stop offset="1" stop-color="#FFB600"/>
</linearGradient>
<linearGradient id="paint2_linear_496:2" x1="67.9875" y1="38.0796" x2="67.9875" y2="140.638" gradientUnits="userSpaceOnUse">
<stop stop-color="#00B4E5"/>
<stop offset="1" stop-color="#00A8E0"/>
</linearGradient>
</g>
</svg>
