<svg width="634" height="768" viewBox="0 0 634 768" fill="none" xmlns="http://www.w3.org/2000/svg">
<path d="M359 300L318.076 2L280 297.985C305.609 288.12 333.888 288.841 359 300Z" fill="#00B4E4"/>
<path d="M279 487L317.591 766L355 487.142C342.9 491.829 330.081 494.223 317.158 494.211C304.121 494.219 291.191 491.775 279 487" fill="#00A8E0"/>
<path d="M225.419 433L158 558L288 492.194C260.369 480.604 238.093 459.533 225.419 433" fill="#72C6E2"/>
<path d="M353 492.527L481 558L415.562 433C403.252 459.352 380.98 480.544 353 492.527" fill="#72C6E2"/>
<path d="M218.419 346L151 221L281 286.806C253.369 298.396 231.093 319.467 218.419 346" fill="#72CDE5"/>
<path d="M353 286.473L481 221L415.562 346C403.252 319.648 380.98 298.456 353 286.473" fill="#72CDE5"/>
<path d="M317.274 497.133C290.093 496.785 264.159 485.658 245.159 466.192C226.16 446.726 215.645 420.51 215.921 393.294C215.645 366.078 226.16 339.863 245.16 320.399C264.16 300.935 290.094 289.81 317.274 289.465C344.455 289.81 370.389 300.935 389.389 320.399C408.389 339.863 418.904 366.078 418.628 393.294C418.907 420.511 408.393 446.729 389.392 466.195C370.392 485.662 344.456 496.788 317.274 497.133ZM317.63 298.605L236.363 444.857H398.154L317.63 298.605Z" fill="#00AFE2"/>
<path d="M317.63 298.605L236.363 444.857H398.154L317.63 298.605Z" fill="#00AFE2"/>
<g filter="url(#filter0_d)">
<path d="M388 440L317.428 312L246 440H388Z" fill="#FFE400"/>
<path opacity="0.8" d="M388 440H246L317.33 396L388 440Z" fill="#FFA100"/>
<path opacity="0.8" d="M388 440L317 396.188V312L351.855 376L388 440Z" fill="#FFCC00"/>
</g>
<path d="M410 435L632 397.245L412.59 358C416.449 369.323 418.414 381.158 418.412 393.068C418.423 407.431 415.568 421.663 410 435Z" fill="#00AEE2"/>
<path d="M215.773 393.435C215.767 380.688 218.004 368.031 222.392 356L2 395.542L224 435C218.554 421.766 215.763 407.664 215.773 393.435" fill="#00AEE2"/>
<path d="M169.012 457.357C180.405 477.966 191.636 486.437 208.105 503.269C214.163 509.461 217.64 512.861 224.015 518.725C228.551 522.897 230.61 525.913 235.835 529.18C245.036 534.935 252.024 534.275 262.655 536.454C292.543 542.58 340.528 538.381 341.729 538.274C341.767 538.271 341.744 538.273 341.781 538.269C342.972 538.132 379.937 533.829 400.848 523.271C413.286 516.99 420.402 512.98 430.395 503.269C439.588 494.337 441.628 486.659 449.942 476.904C456.784 468.876 462.452 465.942 468.58 457.358C474.301 449.343 477.685 444.549 480.399 435.083C483.387 424.661 482.219 418.186 481.763 407.353C481.018 389.647 477.772 379.905 473.126 362.804C467.825 343.294 464.976 331.968 455.397 314.164C447.37 299.243 442.023 291.03 430.395 278.706C421.145 268.902 415.566 263.403 404.03 256.432C391.474 248.845 383.162 246.721 369.027 242.794C343.103 235.592 327.279 237.676 300.385 236.885C286.367 236.472 277.907 232.858 264.473 236.885C255.719 239.508 243.752 247.666 243.565 247.793C243.559 247.797 243.567 247.791 243.561 247.795C243.373 247.923 218.342 264.902 204.923 278.706C199.668 284.113 192.252 293.087 191.765 293.677C191.748 293.698 191.733 293.716 191.716 293.738C191.182 294.411 182.032 305.971 177.194 314.164C166.88 331.624 163.374 343 159.01 362.804L158.896 363.321C153.57 387.493 150.126 403.12 156.284 426.901C159.135 437.913 162.775 446.075 169.012 457.357Z" stroke="url(#paint0_radial)" stroke-width="3"/>
<path fill-rule="evenodd" clip-rule="evenodd" d="M317.659 545.999C403.27 545.999 472.671 476.598 472.671 390.987C472.671 305.376 403.27 235.975 317.659 235.975C232.048 235.975 162.646 305.376 162.646 390.987C162.646 476.598 232.048 545.999 317.659 545.999ZM317.66 490.54C372.641 490.54 417.213 445.969 417.213 390.987C417.213 336.005 372.641 291.434 317.66 291.434C262.678 291.434 218.106 336.005 218.106 390.987C218.106 445.969 262.678 490.54 317.66 490.54Z" fill="url(#paint1_radial)"/>
<path d="M202.195 510.367V499.983C202.195 495.453 207.738 493.258 210.84 496.559L221.443 507.847C224.582 511.189 221.943 516.641 217.375 516.252L206.771 515.349C204.183 515.129 202.195 512.964 202.195 510.367Z" fill="#8E999D"/>
<path d="M436.123 507.367V496.983C436.123 492.453 430.581 490.258 427.479 493.559L416.875 504.847C413.736 508.189 416.375 513.641 420.944 513.252L431.547 512.349C434.135 512.129 436.123 509.964 436.123 507.367Z" fill="#8E999D"/>
<path d="M200.195 274.697V285.082C200.195 289.612 205.738 291.807 208.84 288.505L219.443 277.218C222.582 273.876 219.943 268.423 215.375 268.812L204.771 269.715C202.183 269.936 200.195 272.1 200.195 274.697Z" fill="#8E999D"/>
<path d="M434.123 273.697V284.082C434.123 288.612 428.581 290.807 425.479 287.505L414.875 276.218C411.736 272.876 414.375 267.423 418.944 267.812L429.547 268.715C432.135 268.936 434.123 271.1 434.123 273.697Z" fill="#8E999D"/>
<path d="M235.675 259.529C217.517 270.875 201.907 285.86 189.828 303.539L235.564 334.788C243.327 323.426 253.359 313.796 265.028 306.504L235.675 259.529Z" fill="url(#paint2_linear)"/>
<path d="M397.655 258.115C416.008 269.143 431.878 283.853 444.263 301.319L398.934 333.464C390.989 322.259 380.808 312.822 369.034 305.748L397.655 258.115Z" fill="url(#paint3_linear)"/>
<path d="M399.962 522.446C418.12 511.099 433.73 496.114 445.809 478.435L399.924 447.085C392.175 458.426 382.161 468.039 370.513 475.318L399.962 522.446Z" fill="url(#paint4_linear)"/>
<path d="M235.675 522.446C217.517 511.099 201.907 496.114 189.828 478.435L235.525 447.214C243.291 458.581 253.328 468.215 265.003 475.511L235.675 522.446Z" fill="url(#paint5_linear)"/>
<defs>
<filter id="filter0_d" x="216" y="282" width="202" height="188" filterUnits="userSpaceOnUse" color-interpolation-filters="sRGB">
<feFlood flood-opacity="0" result="BackgroundImageFix"/>
<feColorMatrix in="SourceAlpha" type="matrix" values="0 0 0 0 0 0 0 0 0 0 0 0 0 0 0 0 0 0 127 0" result="hardAlpha"/>
<feOffset/>
<feGaussianBlur stdDeviation="15"/>
<feComposite in2="hardAlpha" operator="out"/>
<feColorMatrix type="matrix" values="0 0 0 0 0 0 0 0 0 0 0 0 0 0 0 0 0 0 0.45 0"/>
<feBlend mode="normal" in2="BackgroundImageFix" result="effect1_dropShadow"/>
<feBlend mode="normal" in="SourceGraphic" in2="effect1_dropShadow" result="shape"/>
</filter>
<radialGradient id="paint0_radial" cx="0" cy="0" r="1" gradientUnits="userSpaceOnUse" gradientTransform="translate(326.354 375) rotate(29.0284) scale(367.857 398.02)">
<stop stop-color="#A9CBD8"/>
<stop offset="0.201139" stop-color="#8DB7C6"/>
<stop offset="0.416667" stop-color="#B0BCC0"/>
<stop offset="0.625" stop-color="#AEC8D1"/>
<stop offset="0.958333" stop-color="#A7C7D2"/>
</radialGradient>
<radialGradient id="paint1_radial" cx="0" cy="0" r="1" gradientUnits="userSpaceOnUse" gradientTransform="translate(317.659 390.987) rotate(88.1672) scale(170.555)">
<stop stop-color="#E1E1E1"/>
<stop offset="0.244792" stop-color="white"/>
<stop offset="0.479167" stop-color="#BDBDBD"/>
<stop offset="0.661458" stop-color="#FEFCFC"/>
<stop offset="0.838542" stop-color="#E9E6E6"/>
<stop offset="1" stop-color="white"/>
</radialGradient>
<linearGradient id="paint2_linear" x1="206.152" y1="283.706" x2="245.7" y2="320.981" gradientUnits="userSpaceOnUse">
<stop stop-color="#C83821"/>
<stop offset="0.291667" stop-color="#D3290E"/>
<stop offset="0.557292" stop-color="#F04328"/>
<stop offset="0.755208" stop-color="#F4634C"/>
<stop offset="1" stop-color="#E94329"/>
</linearGradient>
<linearGradient id="paint3_linear" x1="429.485" y1="283.706" x2="389.936" y2="320.981" gradientUnits="userSpaceOnUse">
<stop stop-color="#C83821"/>
<stop offset="0.291667" stop-color="#D3290E"/>
<stop offset="0.557292" stop-color="#F04328"/>
<stop offset="0.755208" stop-color="#F4634C"/>
<stop offset="1" stop-color="#E94329"/>
</linearGradient>
<linearGradient id="paint4_linear" x1="429.485" y1="498.269" x2="389.936" y2="460.993" gradientUnits="userSpaceOnUse">
<stop stop-color="#C83821"/>
<stop offset="0.291667" stop-color="#D3290E"/>
<stop offset="0.557292" stop-color="#F04328"/>
<stop offset="0.755208" stop-color="#F4634C"/>
<stop offset="1" stop-color="#E94329"/>
</linearGradient>
<linearGradient id="paint5_linear" x1="206.152" y1="498.269" x2="245.7" y2="460.993" gradientUnits="userSpaceOnUse">
<stop stop-color="#C83821"/>
<stop offset="0.291667" stop-color="#D3290E"/>
<stop offset="0.557292" stop-color="#F04328"/>
<stop offset="0.755208" stop-color="#F4634C"/>
<stop offset="1" stop-color="#E94329"/>
</linearGradient>
</defs>
</svg>
