<svg version="1.0" xmlns="http://www.w3.org/2000/svg"
 width="512.000000pt" height="512.000000pt" viewBox="0 0 512.000000 512.000000"
 preserveAspectRatio="xMidYMid meet">

<g transform="translate(0.000000,512.000000) scale(0.100000,-0.100000)"
fill="#ea7247" stroke="none">
<path d="M2370 5114 c-19 -2 -78 -9 -130 -15 -548 -62 -1083 -325 -1489 -730
-405 -406 -652 -907 -732 -1489 -18 -125 -18 -515 0 -640 80 -582 327 -1083
732 -1489 658 -657 1607 -906 2504 -654 929 260 1646 1043 1819 1987 156 845
-103 1682 -705 2285 -398 398 -880 639 -1449 726 -100 15 -472 28 -550 19z
m535 -219 c505 -78 959 -308 1320 -670 189 -188 326 -378 445 -614 112 -221
188 -462 226 -716 25 -165 26 -504 1 -665 -26 -164 -72 -346 -124 -485 -271
-727 -885 -1281 -1628 -1470 -213 -54 -341 -69 -585 -69 -238 0 -359 13 -563
64 -430 107 -795 315 -1112 634 -297 298 -507 667 -610 1071 -56 218 -69 332
-69 585 0 254 13 368 69 585 249 972 1081 1674 2095 1769 91 8 438 -4 535 -19z"/>
<path d="M2385 4613 c-827 -72 -1544 -646 -1789 -1433 -326 -1048 211 -2153
1236 -2546 115 -44 279 -87 423 -110 151 -25 457 -25 610 -1 671 108 1223 506
1526 1099 247 485 294 1014 138 1540 -52 176 -180 446 -238 504 -33 33 -89 33
-130 -2 -44 -37 -43 -87 5 -165 160 -264 253 -606 254 -931 1 -634 -308 -1208
-840 -1562 -210 -140 -485 -245 -755 -287 -107 -17 -408 -17 -520 -1 -333 50
-654 188 -905 389 -77 62 -221 206 -285 283 -335 410 -478 961 -386 1490 104
600 495 1108 1054 1369 545 256 1207 223 1718 -85 73 -44 119 -45 160 -5 38
39 40 97 5 133 -37 36 -215 130 -350 183 -280 111 -635 164 -931 138z"/>
<path d="M3923 4042 c-39 -6 -73 -50 -73 -94 0 -116 171 -134 193 -20 5 29
-13 85 -32 97 -20 12 -65 21 -88 17z"/>
<path d="M1893 3439 c-79 -25 -161 -97 -200 -177 l-28 -57 0 -645 0 -645 28
-57 c40 -82 120 -152 204 -178 82 -25 124 -25 206 0 84 26 164 96 204 178 l28
57 0 645 0 645 -28 57 c-40 82 -120 152 -204 178 -80 25 -130 25 -210 -1z
m186 -206 c14 -11 34 -35 43 -54 17 -31 18 -82 18 -619 0 -537 -1 -588 -18
-619 -26 -52 -65 -76 -122 -76 -57 0 -96 24 -123 76 -16 31 -17 78 -15 631 3
586 3 597 24 625 46 62 134 79 193 36z"/>
<path d="M3013 3439 c-79 -25 -161 -97 -200 -177 l-28 -57 0 -645 0 -645 28
-57 c40 -82 120 -152 204 -178 82 -25 124 -25 206 0 84 26 164 96 204 178 l28
57 0 645 0 645 -28 57 c-40 82 -120 152 -204 178 -80 25 -130 25 -210 -1z
m186 -206 c14 -11 34 -35 43 -54 17 -31 18 -82 18 -619 0 -537 -1 -588 -18
-619 -26 -52 -65 -76 -122 -76 -57 0 -96 24 -123 76 -16 31 -17 78 -15 631 3
586 3 597 24 625 46 62 134 79 193 36z"/>
</g>
</svg>
