<svg version="1.0" xmlns="http://www.w3.org/2000/svg"
 width="512.000000pt" height="512.000000pt" viewBox="0 0 512.000000 512.000000"
 preserveAspectRatio="xMidYMid meet">

<g transform="translate(0.000000,512.000000) scale(0.100000,-0.100000)"
fill="#ea7247" stroke="none">
<path d="M2370 5114 c-19 -2 -78 -9 -130 -15 -548 -62 -1083 -325 -1489 -730
-405 -406 -652 -907 -732 -1489 -18 -125 -18 -515 0 -640 80 -582 327 -1083
732 -1489 658 -657 1607 -906 2504 -654 929 260 1646 1043 1819 1987 156 845
-103 1682 -705 2285 -398 398 -880 639 -1449 726 -100 15 -472 28 -550 19z
m535 -219 c505 -78 959 -308 1320 -670 189 -188 326 -378 445 -614 112 -221
188 -462 226 -716 25 -165 26 -504 1 -665 -26 -164 -72 -346 -124 -485 -271
-727 -885 -1281 -1628 -1470 -213 -54 -341 -69 -585 -69 -238 0 -359 13 -563
64 -430 107 -795 315 -1112 634 -297 298 -507 667 -610 1071 -56 218 -69 332
-69 585 0 254 13 368 69 585 249 972 1081 1674 2095 1769 91 8 438 -4 535 -19z"/>
<path d="M2385 4613 c-827 -72 -1544 -646 -1789 -1433 -284 -915 83 -1885 904
-2386 692 -421 1601 -384 2261 93 386 279 667 688 789 1147 51 190 63 292 64
511 1 252 -20 404 -90 634 -50 166 -177 431 -233 487 -33 33 -89 33 -130 -2
-44 -37 -43 -87 5 -165 45 -74 114 -222 148 -319 145 -403 141 -862 -11 -1269
-165 -443 -501 -813 -928 -1021 -517 -253 -1115 -252 -1630 0 -374 184 -674
484 -856 855 -171 350 -227 749 -160 1135 104 600 495 1108 1054 1369 545 256
1207 223 1718 -85 73 -44 119 -45 160 -5 38 39 40 97 5 133 -37 36 -215 130
-350 183 -280 111 -635 164 -931 138z"/>
<path d="M3923 4043 c-12 -2 -33 -16 -47 -30 -59 -59 -14 -163 72 -163 103 0
133 145 38 185 -20 8 -37 14 -38 14 -2 -1 -13 -4 -25 -6z"/>
<path d="M2130 3461 c-55 -17 -110 -52 -148 -96 -74 -85 -72 -59 -72 -800 l0
-662 31 -61 c16 -34 45 -73 62 -88 45 -38 127 -74 185 -81 83 -9 140 15 362
158 113 72 334 214 492 316 195 125 300 198 327 229 54 62 75 127 69 218 -6
85 -32 142 -91 198 -65 61 -1000 654 -1052 667 -49 12 -127 13 -165 2z m585
-491 c259 -166 482 -314 498 -331 35 -38 37 -96 5 -133 -19 -21 -895 -588
-967 -626 -32 -16 -79 -5 -113 27 l-28 27 0 634 c0 413 4 640 10 652 14 26 58
49 95 50 23 0 143 -72 500 -300z"/>
</g>
</svg>
