<svg preserveAspectRatio="none" width="979" height="80" viewBox="0 0 979 80" fill="none" xmlns="http://www.w3.org/2000/svg">
<g clip-path="url(#clip0)">
<path d="M2 42.5787C2 29.8922 11.7364 19.4116 24.402 18.6845C96.7383 14.5321 328.62 1.97929 488 2C565.813 2.01011 662.775 2.18045 748.5 8.2952C837.426 14.6383 916.131 17.8982 953.678 19.2386C966.669 19.7024 977 30.3546 977 43.3546V715.25C977 728.007 967.157 738.521 954.416 739.163C881.336 742.843 646.83 753.993 488 754C329.007 754.007 97.1235 742.871 24.5616 739.175C11.8279 738.527 2 728.016 2 715.265V42.5787Z" fill="white"/>
</g>
<defs>
<clipPath id="clip0">
<rect width="979" height="80" fill="white"/>
</clipPath>
</defs>
</svg>
