<svg preserveAspectRatio="none" width="979" height="80" viewBox="0 0 979 80" fill="none" xmlns="http://www.w3.org/2000/svg">
<g clip-path="url(#clip0)">
<path d="M2 -631.421C2 -644.108 11.7364 -654.588 24.402 -655.315C96.7383 -659.468 328.62 -672.021 488 -672C565.813 -671.99 662.775 -671.82 748.5 -665.705C837.426 -659.362 916.131 -656.102 953.678 -654.761C966.669 -654.298 977 -643.645 977 -630.645V41.2503C977 54.0066 967.157 64.5215 954.416 65.1631C881.336 68.8433 646.83 79.9933 488 80C329.007 80.0067 97.1235 68.8706 24.5616 65.1755C11.8279 64.5271 2 54.0156 2 41.2654V-631.421Z" fill="white"/>
</g>
<defs>
<clipPath id="clip0">
<rect width="979" height="80" fill="white"/>
</clipPath>
</defs>
</svg>
