<svg preserveAspectRatio="none" width="979" height="645" viewBox="0 0 979 645" fill="none" xmlns="http://www.w3.org/2000/svg">
<g clip-path="url(#clip0)">
<path d="M2 658.421C2 671.108 11.7364 681.588 24.402 682.315C96.7383 686.468 328.62 699.021 488 699C565.813 698.99 662.775 698.82 748.5 692.705C837.426 686.362 916.131 683.102 953.678 681.761C966.669 681.298 977 670.645 977 657.645V-14.2503C977 -27.0066 967.157 -37.5215 954.416 -38.1631C881.336 -41.8433 646.83 -52.9933 488 -53C329.007 -53.0067 97.1235 -41.8706 24.5616 -38.1755C11.8279 -37.5271 2 -27.0156 2 -14.2654V658.421Z" fill="white"/>
</g>
<defs>
<clipPath id="clip0">
<rect width="979" height="645" fill="white"/>
</clipPath>
</defs>
</svg>
