<svg width="430" height="470" viewBox="0 0 430 470" fill="none" xmlns="http://www.w3.org/2000/svg">
<g clip-path="url(#clip0)">
<path d="M292.207 186.766C244.64 152.438 167.888 155.087 100.744 193.829C51.93 221.872 21.811 264.093 15.9949 317.22C10.1788 370.346 27.5751 438.17 114.661 461.903C201.746 485.636 230.775 453.49 218.519 413.242C206.264 372.995 321.963 376.059 345.798 327.658C369.634 279.257 339.774 221.093 292.207 186.766ZM195.567 372.112C169.602 384.316 188.972 415.735 163.682 420.928C154.594 422.798 138.444 403.791 157.918 370.295C177.391 336.798 220.233 328.385 227.503 340.018C235.448 352.274 221.687 359.752 195.567 372.112Z" fill="#CC7400"/>
<path d="M287.379 181.938C239.76 147.61 163.06 150.259 95.9155 189C47.2577 217.044 16.9829 259.213 11.1668 312.34C5.35069 365.466 22.747 433.342 109.833 457.075C196.918 480.808 225.947 448.662 213.691 408.414C201.436 368.167 317.186 371.231 341.074 322.83C364.961 274.429 334.946 216.317 287.379 181.938ZM190.738 366.92C164.774 379.125 184.143 410.544 158.854 415.737C149.766 417.606 133.616 398.547 153.09 365.103C172.563 331.658 215.405 323.193 222.675 334.826C230.62 347.446 216.859 354.872 190.738 366.92Z" fill="#E28D00"/>
<path d="M96.4875 377.307C95.8559 376.946 95.173 376.683 94.4623 376.528C83.2975 374.399 68.4976 375.489 67.2513 389.667C67.0162 393.18 67.4981 396.704 68.6675 400.025C69.837 403.346 71.6696 406.395 74.054 408.985C78.0526 413.763 86.2055 415.685 89.2174 420.774C90.0141 422.17 91.2538 423.26 92.74 423.871C94.2263 424.483 95.8741 424.581 97.4223 424.15C106.873 420.255 114.663 406.804 116.273 397.041C116.494 394.389 116.134 391.721 115.217 389.222C114.301 386.724 112.849 384.456 110.965 382.576C109.081 380.697 106.809 379.252 104.309 378.342C101.808 377.431 99.1388 377.078 96.4875 377.307V377.307Z" fill="#287BA1"/>
<g filter="url(#filter0_f)">
<path d="M107.813 377.882C120.086 354.118 222.143 242.992 222.143 242.992L282.817 178.812C282.817 178.812 293.218 186.574 300.561 192.388L275.566 248.808L219.936 299.794C219.936 299.794 177.565 341.314 151.69 364.408C129.838 383.912 116.588 394.802 116.588 394.802C116.588 394.802 116.685 386.894 107.813 377.882Z" fill="#CC7400"/>
</g>
<path d="M96.5959 323.189C94.6745 311.349 86.2101 306.883 74.7856 306.934C70.2937 306.828 65.8638 307.998 62.011 310.31C45.861 313.166 26.3355 337.99 44.7185 349.363C55.7275 356.166 69.1253 351.7 80.2382 347.701C91.3511 343.702 98.6731 335.757 96.5959 323.189Z" fill="#FFC000"/>
<path d="M102.145 248.82C100.805 246.553 98.863 244.703 96.5343 243.474C94.2056 242.246 91.5817 241.687 88.9546 241.861C84.0834 242.909 79.6036 245.302 76.0242 248.768C73.8572 249.059 71.7419 249.653 69.7407 250.534C64.7334 253.408 60.8927 257.947 58.8875 263.361C57.5327 266.424 57.3501 269.877 58.3745 273.065C59.3989 276.254 61.5589 278.955 64.4439 280.655C66.3795 282.87 68.8556 284.546 71.6312 285.52C74.4068 286.493 77.3873 286.732 80.2824 286.211C89.4739 287.821 101.054 288.704 106.663 280.499C113.154 271.047 108.117 257.337 102.145 248.82Z" fill="white"/>
<path d="M150.962 203.228C148.851 201.621 146.4 200.52 143.796 200.009C143.206 198.99 142.41 198.106 141.459 197.412C134.812 192.738 125.881 198.139 120.688 202.346C116.935 204.946 113.733 208.262 111.264 212.103C108.796 215.944 107.11 220.235 106.303 224.728C105.316 236.465 116.118 240.983 125.932 242.23C137.253 243.632 153.195 243.268 160.31 232.986C167.424 222.703 159.167 209.149 150.962 203.228Z" fill="#7EDE88"/>
<path d="M225.324 202.602C223.286 198.52 220.662 194.758 217.534 191.436C217.502 189.892 216.983 188.397 216.05 187.166C215.118 185.935 213.819 185.03 212.341 184.581C206.266 182.452 200.294 185.88 195.257 190.398C191.015 193.31 187.469 197.122 184.871 201.563C178.691 210.132 176.614 221.869 183.988 228.724C184.993 230.044 186.289 231.115 187.775 231.853C189.261 232.592 190.897 232.978 192.556 232.982C198.528 233.969 204.968 229.97 209.953 227.425C216.028 224.309 222.208 224.621 226.207 218.13C227.364 215.673 227.89 212.965 227.736 210.254C227.581 207.542 226.752 204.912 225.324 202.602V202.602Z" fill="#54BEDE"/>
<path d="M302.389 230.234C301.695 228.06 300.661 226.009 299.326 224.158C298.574 219.262 296.63 214.625 293.665 210.656C290.896 207.813 287.427 205.75 283.608 204.674C279.788 203.599 275.752 203.548 271.907 204.528C270.646 203.776 269.151 203.519 267.712 203.806C266.273 204.094 264.992 204.907 264.117 206.086L262.819 207.54L261.417 208.267C256.832 210.317 252.929 213.636 250.169 217.832C247.409 222.028 245.906 226.926 245.838 231.948C245.041 234.806 244.917 237.81 245.475 240.725C248.798 257.031 267.804 252.669 279.852 252.254C293.146 251.734 307.271 246.074 302.389 230.234Z" fill="#FF4040"/>
<path d="M321.967 290.577C321.243 286.909 319.796 283.421 317.71 280.318C315.623 277.215 312.94 274.559 309.815 272.505C308.833 271.607 307.602 271.028 306.284 270.843V270.843C304.086 270.074 301.74 269.825 299.43 270.116C297.632 270.407 295.884 270.948 294.237 271.726C277.775 276.919 271.18 299.665 283.072 314.778C290.03 323.658 303.532 328.592 312.412 319.971C316.097 316.095 318.868 311.444 320.521 306.357C322.175 301.271 322.669 295.879 321.967 290.577V290.577Z" fill="#666666"/>
<path d="M103.861 378.082C105.932 382.883 106.277 388.253 104.838 393.279C103.399 398.306 100.265 402.68 95.9681 405.658C95.3181 408.115 94.0443 410.363 92.2701 412.182C90.4959 414.002 88.2816 415.333 85.8418 416.045H84.6475C86.5755 417.192 88.225 418.753 89.4769 420.615C90.2736 422.01 91.5133 423.1 92.9995 423.712C94.4858 424.323 96.1335 424.421 97.6817 423.99C107.133 420.095 114.922 406.645 116.532 396.882C116.921 392.766 115.871 388.642 113.561 385.214C111.25 381.786 107.822 379.265 103.861 378.082V378.082Z" fill="#474747"/>
<path d="M96.5881 323.189C96.2863 320.05 95.1293 317.054 93.2432 314.526C91.3571 311.999 88.814 310.038 85.8907 308.855C86.874 314.082 86.3702 319.48 84.4367 324.435C81.5919 330.93 77.4474 336.773 72.2585 341.605C67.0696 346.437 60.9462 350.155 54.2657 352.531H53.6426C62.7639 353.07 71.8816 351.414 80.2304 347.701C91.551 343.65 98.6653 335.756 96.5881 323.189Z" fill="#CC7400"/>
<path d="M102.153 248.822C100.948 247.125 99.4947 245.62 97.8425 244.355C100.677 251.753 100.97 259.883 98.6733 267.465C97.3932 271.605 95.276 275.438 92.4532 278.725C89.6304 282.013 86.1621 284.685 82.2637 286.576C91.0917 287.875 101.374 288.082 106.619 280.5C113.162 271.049 108.124 257.339 102.153 248.822Z" fill="#8F8F8F"/>
<path d="M159.059 212.213C158.243 214.709 157.033 217.058 155.476 219.172C147.426 229.558 134.704 240.88 120.631 240.88H119.437C121.634 241.501 123.873 241.969 126.135 242.282C137.456 243.684 153.398 243.32 160.513 233.038C162.329 229.803 163.159 226.108 162.9 222.408C162.642 218.707 161.307 215.164 159.059 212.213V212.213Z" fill="#4CA14D"/>
<path d="M225.328 202.602C224.757 201.511 224.03 200.213 223.251 198.967C223.251 199.434 222.836 199.902 222.576 200.369C219.729 204.636 216.606 208.712 213.229 212.573C209.95 217.113 206.377 221.433 202.531 225.504C199.067 229.315 194.311 231.702 189.186 232.203C190.422 232.711 191.744 232.976 193.08 232.982C199.052 233.969 205.491 229.97 210.477 227.426C216.552 224.31 222.732 224.621 226.73 218.13C227.812 215.63 228.25 212.9 228.005 210.187C227.76 207.475 226.84 204.867 225.328 202.602V202.602Z" fill="#287BA1"/>
<path d="M302.386 230.238C301.692 228.063 300.658 226.013 299.322 224.162C298.65 220.18 297.241 216.358 295.168 212.893C294.908 214.866 294.337 217.307 294.285 219.332V220.527C295.91 223.755 296.251 227.479 295.239 230.948C294.227 234.417 291.938 237.374 288.832 239.222C279.343 243.132 270.146 247.713 261.31 252.932C267.566 253.058 273.825 252.833 280.056 252.257C293.142 251.738 307.267 246.077 302.386 230.238Z" fill="#BA0909"/>
<path d="M321.968 290.578C320.722 284.567 317.593 279.11 313.036 274.998V274.998C312.776 286.527 315.269 298.108 308.674 308.598C305.237 314.892 299.734 319.808 293.095 322.516C296.113 324.082 299.534 324.697 302.908 324.28C306.283 323.863 309.451 322.433 311.997 320.179C315.785 316.318 318.65 311.649 320.377 306.522C322.104 301.396 322.648 295.944 321.968 290.578V290.578Z" fill="#474747"/>
<path d="M166.053 280.043C166.053 280.043 138.929 278.529 115.263 314.029C91.5967 349.528 97.359 375.784 78.7558 385.813C60.1525 395.842 91.5097 402.843 133.329 373.788C175.149 344.733 189.546 308.35 189.823 293.876C190.1 279.401 174.632 267.795 166.053 280.043Z" fill="#FFE700"/>
<path d="M133.326 373.786C119.181 384.313 102.699 391.265 85.2853 394.051C88.0425 392.915 90.6198 391.385 92.9363 389.508C100.35 383.58 107.348 376.596 114.463 370.279C125.539 360.66 138.103 351.316 146.981 339.458C160.201 321.757 166.889 295.817 148.026 284.173C153.643 281.442 159.785 279.962 166.029 279.835C174.609 267.588 189.979 278.733 189.754 293.203C189.529 307.672 175.15 344.783 133.326 373.786Z" fill="#FFC000"/>
<path d="M406.446 11.3768L405.369 10.4893C399.021 5.2576 392.326 8.35242 387.093 14.6972L215.348 205.412C210.114 211.757 216.924 226.124 223.05 231.221L224.132 232.16C230.475 237.34 245.888 241.336 250.998 234.794L405.796 30.1121C411.03 23.7673 412.974 16.8521 406.446 11.3768Z" fill="url(#paint0_linear)"/>
<path d="M219.117 201.241L215.967 204.83L251.73 234.305L254.598 230.483C254.598 230.483 255.222 223.955 241.614 212.693C228.007 201.43 219.117 201.241 219.117 201.241Z" fill="url(#paint1_linear)"/>
<path d="M174.894 290.509C170.419 286.822 165.7 283.442 160.77 280.391L213.242 205.873C218.476 199.528 231.232 207.899 237.92 213.411L239.053 214.346C245.741 219.858 256.29 230.788 251.16 237.123L187.929 302.869C183.884 298.444 179.527 294.313 174.894 290.509V290.509Z" fill="#8F8F8F"/>
<path d="M176.893 292.248L243.628 218.446C249.405 224.254 255.376 232.077 251.166 237.124L187.934 302.871C184.476 299.106 180.789 295.558 176.893 292.248V292.248Z" fill="#666666"/>
<path d="M163.213 280.785L215.32 207.346C218.884 206.999 222.472 207.706 225.639 209.379C216.858 221.698 167.341 284.092 167.341 284.092L163.213 280.785Z" fill="white"/>
<path d="M224.674 229.191L225.813 230.177C231.48 234.848 239.513 242.943 239.287 249.276L237.15 251.463C237.122 245.207 229.146 237.159 223.71 232.726L222.571 231.74C216.928 227.327 207.762 221.01 201.608 222.123L203.354 219.661C209.68 218.166 219.331 224.645 224.674 229.191Z" fill="#474747"/>
<path d="M168.854 268.918C174.706 270.762 180.114 273.794 184.74 277.824L185.817 278.711C190.656 282.482 194.664 287.211 197.59 292.601L195.452 294.789C192.513 289.488 188.514 284.847 183.704 281.157L182.622 280.218C178.047 276.249 172.738 273.215 166.995 271.288L168.854 268.918Z" fill="#474747"/>
<path d="M217.234 240.804L216.096 239.818C210.995 235.614 202.344 229.769 196.218 230.097L197.959 227.583C204.112 226.991 212.989 233.023 218.203 237.321L219.337 238.255C224.551 242.552 232.115 250.119 232.759 256.264L230.641 258.658C229.776 252.378 222.387 245.003 217.234 240.804Z" fill="#474747"/>
<path d="M81.3179 388.014C81.3179 388.014 95.7202 383.135 100.753 362.779C105.787 342.423 114.174 316.789 132.65 303.278C151.127 289.767 153.573 293.496 153.573 293.496C153.573 293.496 123.112 312.07 113.024 340.632C102.936 369.193 95.1933 385.793 81.3179 388.014Z" fill="#F0DA04"/>
<path d="M111.929 363.372C111.929 363.372 113.636 351.188 128.257 332.124C136.745 320.841 146.771 311.024 158 302.999C158 302.999 122.463 338.418 111.929 363.372Z" fill="#F0DA04"/>
<path d="M109.045 378.418C125.501 371.016 139.589 359.211 149.751 344.306C167.798 318.735 171.341 302.956 171.341 302.956C171.341 302.956 177.736 295.665 177.48 303.305C177.224 310.944 138.681 375.674 109.045 378.418Z" fill="#ECB304"/>
</g>
<defs>
<filter id="filter0_f" x="103.812" y="174.812" width="200.749" height="223.988" filterUnits="userSpaceOnUse" color-interpolation-filters="sRGB">
<feFlood flood-opacity="0" result="BackgroundImageFix"/>
<feBlend mode="normal" in="SourceGraphic" in2="BackgroundImageFix" result="shape"/>
<feGaussianBlur stdDeviation="2" result="effect1_foregroundBlur"/>
</filter>
<linearGradient id="paint0_linear" x1="313" y1="96" x2="341.003" y2="119.996" gradientUnits="userSpaceOnUse">
<stop stop-color="#E76000"/>
<stop offset="0.291667" stop-color="#C53002"/>
<stop offset="0.505208" stop-color="#982900"/>
<stop offset="0.760417" stop-color="#952F01"/>
<stop offset="1" stop-color="#BE530A"/>
</linearGradient>
<linearGradient id="paint1_linear" x1="235.341" y1="213.119" x2="240.045" y2="217.146" gradientUnits="userSpaceOnUse">
<stop stop-color="#E76000"/>
<stop offset="0.291667" stop-color="#C53002"/>
<stop offset="0.505208" stop-color="#982900"/>
<stop offset="0.760417" stop-color="#952F01"/>
<stop offset="1" stop-color="#BE530A"/>
</linearGradient>
<clipPath id="clip0">
<rect width="430" height="470" fill="white"/>
</clipPath>
</defs>
</svg>
