<svg width="321" height="427" viewBox="0 0 321 427" fill="none" xmlns="http://www.w3.org/2000/svg">
<path d="M40.3729 403.178L0 99.9282L273.686 64.0508L292.385 386.948L40.3729 403.178Z" fill="url(#paint0_linear)"/>
<path d="M32.9648 123.494L252.58 94.3438L257.532 129.458L37.9164 158.608L32.9648 123.494Z" fill="#A3A3A3"/>
<rect width="221.541" height="35.4617" transform="matrix(0.991306 -0.131577 0.139631 0.990204 36.8809 183.926)" fill="#A3A3A3"/>
<rect width="221.541" height="35.4617" transform="matrix(0.991306 -0.131577 0.139631 0.990204 41.1016 243.389)" fill="#A3A3A3"/>
<rect width="221.541" height="21.2646" transform="matrix(0.991306 -0.131577 0.139631 0.990204 45.418 298.422)" fill="#A3A3A3"/>
<rect width="41.8251" height="34.9996" transform="matrix(0.991306 -0.131577 0.139631 0.990204 52.6797 343.764)" fill="#A3A3A3"/>
<g opacity="0.15" filter="url(#filter0_f)">
<path fill-rule="evenodd" clip-rule="evenodd" d="M291.181 89.4545C279.928 112.757 248.542 179.481 228.008 240.121C222.895 254.961 212.299 267.282 198.392 274.56C162.812 293.629 129.819 317.165 100.213 344.595C101.353 346.71 102 349.13 102 351.701C102 359.985 95.2843 366.701 87 366.701C78.7157 366.701 72 359.985 72 351.701C72 344.096 77.6598 337.813 84.997 336.834C92.5524 296.967 94.9421 256.29 92.1046 215.806C90.9148 200.141 95.7451 184.612 105.61 172.386C129.02 143.652 152.224 110.718 170.269 83.8386C189.974 54.4871 228.947 44.1787 259.894 61.2681L286.987 76.2289C291.678 78.8189 293.511 84.6297 291.181 89.4545Z" fill="black"/>
</g>
<path fill-rule="evenodd" clip-rule="evenodd" d="M288.181 84.7534C276.928 108.056 245.542 174.78 225.008 235.42C219.895 250.26 209.299 262.581 195.392 269.859C159.812 288.927 126.819 312.464 97.2132 339.894C98.3531 342.009 99 344.429 99 347C99 355.284 92.2843 362 84 362C75.7157 362 69 355.284 69 347C69 339.395 74.6598 333.112 81.997 332.133C89.5524 292.266 91.9421 251.589 89.1046 211.105C87.9148 195.44 92.7451 179.911 102.61 167.685C126.02 138.951 149.224 106.017 167.269 79.1374C186.974 49.7859 225.947 39.4776 256.894 56.5669L283.987 71.5277C288.678 74.1177 290.511 79.9285 288.181 84.7534Z" fill="url(#paint1_linear)"/>
<ellipse opacity="0.6" cx="83.9961" cy="346.994" rx="15.005" ry="14.995" transform="rotate(-89.9586 83.9961 346.994)" fill="url(#paint2_radial)"/>
<path d="M225.007 235.42C245.541 174.78 276.927 108.056 288.18 84.7537C290.51 79.9289 288.676 74.118 283.986 71.528L230.893 42.2099C214.481 33.1474 193.809 38.5932 183.621 54.3312C164.9 83.2519 133.939 129.229 102.609 167.686C102.609 167.686 141.984 208.272 144.269 236.86C194.659 223.446 222.471 242.87 225.007 235.42Z" fill="url(#paint3_linear)"/>
<g style="mix-blend-mode:screen" opacity="0.3">
<g style="mix-blend-mode:screen" opacity="0.02">
<path d="M225.188 234.804C225.576 235.101 223.04 236.815 218.812 236.107C214.653 235.764 208.871 234.644 201.695 233.821C193.359 232.781 184.948 232.476 176.558 232.907C171.605 233.161 166.669 233.68 161.772 234.461L154.025 235.901L143.513 238.392C141.89 232.473 142.279 230.485 141.228 228.04C140.57 225.557 139.746 223.121 138.76 220.75C136.887 216.18 134.719 211.738 132.27 207.45C128.028 200.125 123.389 193.038 118.375 186.22C109.783 174.519 103.932 167.618 104.481 167.115C105.029 166.612 111.794 172.691 121.255 183.98C126.802 190.627 131.858 197.669 136.383 205.05C139.056 209.449 141.415 214.031 143.444 218.761C144.545 221.311 145.454 223.938 146.164 226.623C146.699 228.41 147.096 230.236 147.352 232.085L152.882 230.782L160.927 229.388C166.014 228.634 171.142 228.191 176.283 228.062C184.986 227.84 193.688 228.537 202.244 230.142C216.824 233.387 225.005 235.741 225.188 234.804Z" fill="#FFD480"/>
</g>
<g style="mix-blend-mode:screen" opacity="0.03">
<path d="M223.955 235.306C223.955 236.905 214.699 235.625 200.759 233.614C187.669 232.051 174.424 232.32 161.407 234.414L153.798 235.831L143.491 238.299C141.891 232.563 142.28 230.461 141.343 228.107C140.746 225.666 139.982 223.268 139.058 220.931C137.238 216.432 135.123 212.058 132.727 207.837C128.599 200.605 124.059 193.616 119.13 186.904C110.721 175.363 105.007 168.622 105.556 168.051C106.104 167.479 112.709 173.558 121.964 184.71C127.412 191.255 132.362 198.199 136.772 205.483C139.384 209.843 141.675 214.388 143.628 219.08C144.71 221.585 145.604 224.167 146.302 226.804C146.813 228.564 147.195 230.359 147.445 232.175L152.906 230.895C155.534 230.301 158.208 229.981 160.79 229.501C165.795 228.759 170.839 228.316 175.896 228.176C184.448 227.913 193.003 228.549 201.422 230.072C208.598 231.352 214.22 232.952 218.059 233.934C221.898 234.917 223.863 235.054 223.955 235.306Z" fill="#FFD480"/>
</g>
<g style="mix-blend-mode:screen" opacity="0.05">
<path d="M222.63 235.424C222.63 236.727 213.603 235.264 199.777 233.436C191.711 232.551 183.587 232.33 175.485 232.773C170.699 233.054 165.931 233.588 161.202 234.373C158.734 234.853 156.22 235.173 153.706 235.79L143.491 238.235C142.833 236.17 142.397 234.04 142.189 231.882C142.026 230.641 141.751 229.417 141.366 228.226C140.769 225.822 140.006 223.462 139.081 221.164C137.305 216.732 135.244 212.419 132.911 208.253C128.854 201.155 124.406 194.289 119.588 187.685C111.383 176.259 105.876 169.563 106.333 169.061C106.79 168.558 113.349 174.545 122.33 185.537C127.662 192.025 132.505 198.899 136.818 206.104C139.384 210.397 141.63 214.873 143.537 219.496C144.586 221.967 145.457 224.51 146.142 227.106C146.658 228.823 147.025 230.582 147.239 232.362L152.609 231.128C155.215 230.511 157.82 230.191 160.379 229.734C165.29 228.972 170.243 228.521 175.211 228.386C183.627 228.079 192.052 228.654 200.348 230.1C207.866 231.469 215.305 233.246 222.63 235.424V235.424Z" fill="#FFD480"/>
</g>
<g style="mix-blend-mode:screen" opacity="0.07">
<path d="M221.304 235.397C221.304 236.471 212.505 234.917 198.931 233.295C190.96 232.459 182.934 232.299 174.936 232.815C170.225 233.085 165.533 233.619 160.882 234.415C158.459 234.895 155.991 235.192 153.523 235.809L143.514 238.094C142.866 236.066 142.437 233.974 142.234 231.855C142.09 230.628 141.822 229.418 141.434 228.245C140.855 225.903 140.09 223.61 139.149 221.389C137.436 217.022 135.428 212.777 133.139 208.683C129.198 201.672 124.864 194.889 120.158 188.367C112.137 177.123 106.63 170.496 107.178 170.085C107.727 169.674 114.034 175.478 122.901 186.333C128.117 192.699 132.853 199.444 137.069 206.512C139.568 210.745 141.76 215.151 143.628 219.698C144.67 222.115 145.511 224.615 146.142 227.17C146.645 228.86 147.012 230.587 147.239 232.335L152.495 231.124C155.054 230.507 157.637 230.21 160.127 229.753C164.953 228.984 169.823 228.526 174.707 228.382C182.965 228.06 191.234 228.573 199.388 229.913C204.831 230.837 210.217 232.065 215.522 233.592C219.247 234.575 221.304 235.055 221.304 235.397Z" fill="#FFD480"/>
</g>
<g style="mix-blend-mode:screen" opacity="0.08">
<path d="M219.958 235.262C219.958 236.199 211.389 234.645 197.997 233.113C190.165 232.361 182.285 232.254 174.436 232.794C169.838 233.083 165.26 233.632 160.725 234.439C158.439 234.896 155.926 235.193 153.503 235.81L143.654 238.095C143.023 236.095 142.601 234.035 142.397 231.948C142.269 230.744 142.016 229.557 141.643 228.406C141.059 226.065 140.295 223.773 139.357 221.55C137.699 217.249 135.737 213.072 133.484 209.05C129.633 202.151 125.407 195.468 120.824 189.031C112.986 177.947 107.615 171.412 108.141 170.932C108.667 170.452 114.882 176.279 123.521 186.929C128.612 193.207 133.233 199.852 137.346 206.81C139.808 210.97 141.955 215.309 143.768 219.79C144.767 222.178 145.584 224.638 146.213 227.149C146.631 228.42 146.922 229.729 147.082 231.057C147.379 232.885 147.082 231.765 147.287 232.222L152.452 231.011C154.966 230.394 157.479 230.12 159.948 229.663C164.682 228.891 169.46 228.417 174.253 228.246C182.368 227.903 190.498 228.362 198.523 229.617C203.877 230.519 209.179 231.709 214.405 233.182C217.993 234.347 220.004 235.056 219.958 235.262Z" fill="#FFD480"/>
</g>
<g style="mix-blend-mode:screen" opacity="0.1">
<path d="M218.651 235.054C218.514 235.922 210.242 234.346 197.079 232.974C189.373 232.262 181.622 232.201 173.906 232.792C169.362 233.088 164.838 233.638 160.355 234.437C158.069 234.894 155.624 235.168 153.247 235.785L143.581 238.07C142.946 236.12 142.532 234.104 142.347 232.06C142.21 230.873 141.958 229.702 141.593 228.564C141.035 226.274 140.309 224.028 139.422 221.845C137.803 217.613 135.894 213.497 133.709 209.528C129.94 202.742 125.805 196.166 121.322 189.829C113.667 178.928 108.456 172.461 108.959 172.004C109.462 171.547 115.541 177.283 123.996 187.818C128.968 194.009 133.482 200.555 137.502 207.402C139.912 211.491 141.998 215.762 143.741 220.177C144.682 222.523 145.446 224.937 146.026 227.398C146.439 228.653 146.722 229.948 146.872 231.26C146.904 231.638 146.965 232.012 147.054 232.38L152.128 231.192C154.596 230.575 157.087 230.301 159.486 229.866C164.137 229.098 168.83 228.617 173.54 228.427C181.507 228.033 189.493 228.446 197.376 229.661C210.904 231.923 218.697 234.62 218.651 235.054Z" fill="#FFD480"/>
</g>
<g style="mix-blend-mode:screen" opacity="0.11">
<path d="M217.329 234.828C217.191 235.65 209.102 234.051 196.167 232.862C188.563 232.222 180.919 232.222 173.315 232.862C168.847 233.177 164.399 233.734 159.992 234.53C157.706 234.987 155.421 235.239 152.999 235.879L143.515 238.164C142.902 236.248 142.496 234.271 142.304 232.268C142.175 231.104 141.93 229.956 141.572 228.84C141.027 226.585 140.325 224.37 139.47 222.213C137.907 218.046 136.043 213.998 133.894 210.101C130.226 203.413 126.198 196.929 121.828 190.676C114.332 179.959 109.236 173.606 109.762 173.149C110.287 172.692 116.183 178.382 124.479 188.734C129.32 194.845 133.712 201.298 137.619 208.044C139.992 212.053 142.033 216.249 143.721 220.59C144.649 222.903 145.413 225.278 146.006 227.698C146.398 228.926 146.673 230.188 146.829 231.468C147.057 232.999 146.829 232.154 147.011 232.565L151.993 231.4C154.393 230.76 156.838 230.531 159.215 230.097C163.75 229.324 168.33 228.836 172.926 228.634C180.743 228.202 188.584 228.57 196.327 229.731C209.764 231.674 217.397 234.393 217.329 234.828Z" fill="#FFD480"/>
</g>
<g style="mix-blend-mode:screen" opacity="0.13">
<path d="M216.025 234.601C215.888 235.378 207.958 233.778 195.229 232.727C187.792 232.12 180.317 232.12 172.879 232.727C168.697 233.138 164.287 233.527 159.808 234.418C157.522 234.875 155.237 235.126 152.952 235.743L143.651 238.029C143.037 236.144 142.631 234.197 142.44 232.224C142.326 231.084 142.096 229.958 141.754 228.865C141.203 226.654 140.516 224.478 139.698 222.352C138.189 218.251 136.371 214.271 134.259 210.446C130.703 203.863 126.781 197.485 122.512 191.341C115.177 180.783 110.218 174.499 110.721 174.065C111.223 173.63 117.005 179.229 125.095 189.421C129.827 195.442 134.119 201.797 137.938 208.435C140.25 212.377 142.23 216.504 143.857 220.775C144.777 223.004 145.541 225.295 146.142 227.631C146.519 228.845 146.779 230.092 146.919 231.356C147.147 232.75 146.919 232.041 147.125 232.407L151.992 231.264C154.277 230.647 156.768 230.396 159.076 229.962C163.555 229.22 168.072 228.732 172.605 228.499C180.236 228.069 187.89 228.391 195.458 229.459C208.529 231.447 216.093 234.144 216.025 234.601Z" fill="#FFD480"/>
</g>
<g style="mix-blend-mode:screen" opacity="0.15">
<path d="M214.701 234.326C214.701 235.08 206.817 233.526 194.316 232.612C187.011 232.09 179.676 232.136 172.378 232.749C168.264 233.183 163.945 233.549 159.535 234.44C157.249 234.874 154.964 235.149 152.816 235.766L143.675 237.937C143.07 236.082 142.672 234.166 142.487 232.224C142.378 231.107 142.156 230.004 141.824 228.933C141.296 226.76 140.632 224.623 139.836 222.534C138.35 218.512 136.578 214.602 134.534 210.834C131.089 204.351 127.274 198.071 123.108 192.026C116.001 181.628 111.156 175.458 111.682 175.024C112.207 174.59 117.829 180.12 125.713 190.175C130.365 196.077 134.559 202.327 138.259 208.868C140.499 212.753 142.425 216.811 144.018 221.003C144.921 223.239 145.684 225.528 146.303 227.859C146.659 229.054 146.912 230.277 147.057 231.515C147.263 232.795 147.057 232.201 147.24 232.566L152.039 231.447C154.324 230.83 156.61 230.555 158.895 230.144C163.284 229.419 167.708 228.923 172.149 228.659C179.677 228.217 187.229 228.492 194.705 229.481C207.479 231.241 214.815 233.869 214.701 234.326Z" fill="#FFD480"/>
</g>
<g style="mix-blend-mode:screen" opacity="0.16">
<path d="M213.401 234.076C213.264 234.785 205.654 233.322 193.382 232.476C186.21 232.043 179.015 232.127 171.855 232.728C167.833 233.208 163.605 233.573 159.263 234.442C157.115 234.853 154.899 235.15 152.682 235.744L143.701 237.87C143.1 236.063 142.716 234.191 142.558 232.294C142.424 231.198 142.211 230.113 141.918 229.049C141.387 226.917 140.731 224.818 139.953 222.764C138.512 218.838 136.794 215.02 134.811 211.338C131.453 204.973 127.73 198.808 123.659 192.873C116.803 182.635 111.959 176.556 112.484 176.145C113.01 175.734 118.495 181.127 126.196 191.068C130.74 196.835 134.828 202.947 138.422 209.35C140.594 213.179 142.473 217.166 144.044 221.279C144.893 223.474 145.61 225.717 146.192 227.997C146.521 229.174 146.765 230.373 146.923 231.585C147.106 232.705 146.923 232.248 147.106 232.591L151.791 231.494C154.076 230.9 156.361 230.602 158.646 230.214C162.953 229.493 167.293 228.99 171.649 228.706C179.029 228.27 186.432 228.5 193.771 229.391C206.18 231.06 213.515 233.596 213.401 234.076Z" fill="#FFD480"/>
</g>
<g style="mix-blend-mode:screen" opacity="0.18">
<path d="M212.05 233.8C211.913 234.486 204.441 233.114 192.42 232.337C185.381 232.005 178.328 232.127 171.304 232.703C167.351 233.229 163.192 233.571 158.964 234.44C156.839 234.851 154.645 235.148 152.497 235.742L143.699 237.822C143.098 236.046 142.714 234.205 142.556 232.337C142.43 231.265 142.223 230.203 141.939 229.161C141.42 227.071 140.787 225.011 140.042 222.991C138.639 219.075 136.975 215.257 135.06 211.564C131.786 205.3 128.146 199.234 124.16 193.397C117.418 183.342 112.733 177.4 113.282 176.943C113.83 176.486 119.155 181.879 126.651 191.637C131.074 197.35 135.055 203.393 138.557 209.713C140.663 213.478 142.481 217.397 143.996 221.437C144.826 223.587 145.528 225.785 146.098 228.018C146.421 229.171 146.65 230.348 146.784 231.537C146.821 231.869 146.882 232.198 146.966 232.52L151.537 231.446C153.822 230.875 156.107 230.555 158.21 230.189C162.575 229.344 166.871 229.047 170.939 228.658C178.17 228.229 185.425 228.413 192.626 229.207C204.966 230.898 212.188 233.32 212.05 233.8Z" fill="#FFD480"/>
</g>
<g style="mix-blend-mode:screen" opacity="0.2">
<path d="M210.77 233.547C210.656 234.21 203.343 232.907 191.529 232.244C184.653 231.975 177.768 232.15 170.916 232.77C167.054 233.25 162.986 233.638 158.827 234.507C156.747 234.873 154.622 235.215 152.497 235.764L143.858 237.82C143.278 236.08 142.902 234.278 142.738 232.45C142.622 231.393 142.423 230.346 142.144 229.319C141.645 227.269 141.035 225.247 140.316 223.263C138.931 219.465 137.313 215.756 135.471 212.157C132.285 206.008 128.745 200.049 124.868 194.309C118.286 184.437 113.807 178.541 114.287 178.13C114.767 177.718 120 183.02 127.313 192.595C131.63 198.204 135.504 204.141 138.899 210.352C140.935 214.03 142.706 217.849 144.201 221.778C144.998 223.9 145.669 226.067 146.212 228.268C146.535 229.398 146.764 230.552 146.898 231.719C146.933 232.034 146.987 232.347 147.058 232.656L151.628 231.605C153.913 231.056 156.016 230.713 158.164 230.371C162.46 229.548 166.665 229.205 170.641 228.839C177.725 228.383 184.834 228.52 191.894 229.251C203.8 230.713 210.885 233.067 210.77 233.547Z" fill="#FFD480"/>
</g>
<g style="mix-blend-mode:screen" opacity="0.21">
<path d="M209.465 233.297C209.351 233.937 202.175 232.657 190.589 232.154C183.827 231.885 177.054 232.084 170.319 232.748C166.526 233.183 162.549 233.64 158.459 234.462C156.425 234.828 154.322 235.171 152.266 235.719L143.81 237.73C143.205 236.029 142.836 234.253 142.713 232.451C142.591 231.419 142.4 230.396 142.142 229.389C141.502 227.378 141.136 225.344 140.359 223.447C139.015 219.721 137.443 216.08 135.652 212.547C132.553 206.517 129.12 200.665 125.368 195.019C118.924 185.329 114.582 179.502 115.039 179.022C115.496 178.542 120.592 183.844 127.745 193.236C131.933 198.77 135.706 204.606 139.034 210.696C140.99 214.351 142.708 218.13 144.176 222.008C144.932 224.083 145.58 226.196 146.118 228.338C146.422 229.447 146.644 230.578 146.781 231.72C146.895 232.497 146.781 232.383 146.941 232.657L151.374 231.629C153.482 231.096 155.618 230.684 157.773 230.395C161.978 229.595 166.068 229.229 169.976 228.863C176.911 228.363 183.877 228.462 190.795 229.161C202.61 230.486 209.58 232.771 209.465 233.297Z" fill="#FFD480"/>
</g>
<g style="mix-blend-mode:screen" opacity="0.23">
<path d="M208.166 233.022C208.051 233.685 201.013 232.451 189.678 232.085C183.043 231.851 176.4 232.08 169.796 232.771C166.094 233.182 162.186 233.662 158.21 234.462C156.199 234.805 154.165 235.17 152.131 235.696L143.836 237.661C143.264 235.999 142.903 234.272 142.762 232.52C142.636 231.504 142.453 230.497 142.213 229.503C141.619 227.538 141.231 225.55 140.499 223.676C139.181 220.026 137.655 216.456 135.929 212.981C132.896 207.066 129.554 201.315 125.92 195.75C119.658 186.243 115.43 180.53 115.887 180.142C116.344 179.753 121.326 184.895 128.273 194.127C132.329 199.575 135.994 205.303 139.243 211.267C141.147 214.847 142.811 218.55 144.224 222.35C145.024 224.316 145.481 226.464 146.121 228.589C146.41 229.669 146.616 230.769 146.738 231.88C146.754 232.192 146.816 232.5 146.921 232.794L151.24 231.788C153.305 231.272 155.395 230.86 157.502 230.554C161.615 229.8 165.637 229.366 169.476 229.046C176.264 228.513 183.084 228.574 189.861 229.229C201.424 230.349 208.257 232.588 208.166 233.022Z" fill="#FFD480"/>
</g>
<g style="mix-blend-mode:screen" opacity="0.25">
<path d="M206.841 232.772C206.841 233.389 199.848 232.269 188.742 231.972C182.249 231.784 175.751 232.044 169.294 232.749C165.661 233.138 161.845 233.664 157.868 234.44C155.903 234.76 153.915 235.149 151.904 235.674L143.791 237.594C143.231 235.969 142.877 234.28 142.74 232.567C142.624 231.567 142.449 230.575 142.214 229.596C141.643 227.676 141.232 225.734 140.569 223.883C139.282 220.308 137.802 216.807 136.135 213.393C133.199 207.596 129.957 201.959 126.423 196.505C120.367 187.113 116.208 181.537 116.665 181.171C117.122 180.806 121.99 185.742 128.731 194.883C132.662 200.243 136.228 205.863 139.403 211.702C141.231 215.227 142.841 218.859 144.225 222.58C144.957 224.522 145.436 226.625 146.053 228.682C146.313 229.751 146.511 230.835 146.648 231.927C146.648 232.475 146.648 232.567 146.808 232.795L151.058 231.812C153.077 231.301 155.121 230.897 157.183 230.601C161.053 229.891 164.959 229.388 168.883 229.093C175.521 228.528 182.195 228.528 188.833 229.093C200.214 230.236 206.933 232.338 206.841 232.772Z" fill="#FFD480"/>
</g>
<g style="mix-blend-mode:screen" opacity="0.26">
<path d="M205.513 232.565C205.513 233.136 198.657 232.153 187.802 231.902C181.444 231.757 175.083 232.055 168.766 232.793C165.201 233.159 161.476 233.707 157.659 234.461C155.74 234.781 153.797 235.17 151.832 235.695L143.902 237.569C143.33 235.979 142.976 234.318 142.851 232.633C142.691 231.673 142.622 230.691 142.371 229.731L140.749 224.132C139.527 220.62 138.092 217.186 136.452 213.848C133.61 208.162 130.467 202.632 127.037 197.28C121.164 188.139 117.119 182.586 117.576 182.243C118.033 181.901 122.764 186.814 129.299 195.749C133.142 200.993 136.602 206.507 139.652 212.249C141.45 215.692 143.023 219.25 144.359 222.898L146.119 228.885C146.393 229.891 146.485 230.988 146.667 232.039C146.693 232.335 146.754 232.626 146.85 232.907L150.987 231.925C152.96 231.423 154.959 231.027 156.974 230.736C160.751 230.024 164.566 229.528 168.4 229.251C174.893 228.681 181.423 228.681 187.916 229.251C199.023 230.142 205.627 232.085 205.513 232.565Z" fill="#FFD480"/>
</g>
<g style="mix-blend-mode:screen" opacity="0.28">
<path d="M204.214 232.333C204.214 232.904 197.518 231.99 186.869 231.807C180.653 231.741 174.439 232.077 168.267 232.813C164.77 233.156 161.137 233.75 157.389 234.458C155.515 234.755 153.618 235.19 151.699 235.67L143.929 237.521C143.376 235.966 143.038 234.344 142.923 232.699L142.444 229.842L140.89 224.358C139.694 220.93 138.305 217.573 136.73 214.303C133.99 208.712 130.938 203.28 127.589 198.031C121.899 189.028 117.991 183.612 118.448 183.269C118.905 182.926 123.476 187.839 129.875 196.546C133.622 201.687 136.975 207.103 139.907 212.748C141.66 216.117 143.187 219.598 144.477 223.169L146.191 229.019L146.717 232.105C146.727 232.395 146.789 232.681 146.9 232.95L150.945 231.99C152.91 231.51 154.852 231.099 156.795 230.825C160.491 230.134 164.221 229.639 167.97 229.339C174.314 228.741 180.696 228.672 187.052 229.134C197.838 230.025 204.305 231.853 204.214 232.333Z" fill="#FFD480"/>
</g>
<g style="mix-blend-mode:screen" opacity="0.3">
<path d="M202.906 232.109C202.906 232.68 196.371 231.812 185.95 231.72C179.84 231.731 173.735 232.097 167.668 232.817C164.263 233.16 160.812 233.8 157.041 234.485C155.213 234.759 153.362 235.216 151.488 235.674L143.901 237.479C143.352 235.955 143.013 234.364 142.896 232.748L142.461 229.983L140.953 224.59C139.778 221.239 138.427 217.951 136.908 214.741C134.258 209.245 131.298 203.904 128.042 198.744C122.488 189.9 118.741 184.575 119.152 184.255C119.563 183.935 124.042 188.689 130.235 197.281C133.88 202.36 137.134 207.708 139.971 213.278C141.658 216.58 143.139 219.984 144.404 223.47L146.049 229.183L146.552 232.223C146.566 232.496 146.619 232.765 146.712 233.023L150.665 232.086C152.608 231.629 154.505 231.195 156.379 230.943C160 230.264 163.654 229.769 167.325 229.458C173.523 228.872 179.758 228.765 185.973 229.138C196.645 229.869 202.906 231.674 202.906 232.109Z" fill="#FFD480"/>
</g>
<g style="mix-blend-mode:screen" opacity="0.31">
<path d="M201.562 231.925C201.562 232.496 195.186 231.651 185.017 231.673C179.072 231.713 173.136 232.102 167.237 232.839C163.901 233.159 160.382 233.845 156.839 234.484C155.057 234.759 153.252 235.216 151.423 235.65L143.996 237.409C143.458 235.94 143.134 234.401 143.037 232.839L142.602 230.074L141.14 224.818C140.014 221.534 138.709 218.315 137.232 215.174C134.679 209.803 131.818 204.584 128.662 199.543C123.292 190.882 119.521 185.694 120.047 185.351C120.573 185.009 124.823 189.716 130.81 198.149C134.343 203.088 137.491 208.29 140.226 213.711C141.85 216.954 143.284 220.289 144.522 223.698L146.122 229.297L146.579 232.199C146.579 232.473 146.579 232.839 146.761 233.022L150.624 232.131C152.497 231.674 154.349 231.239 156.2 230.965C159.902 230.348 163.444 229.754 166.872 229.503C172.946 228.899 179.058 228.762 185.154 229.091C195.437 229.754 201.653 231.491 201.562 231.925Z" fill="#FFD480"/>
</g>
<g style="mix-blend-mode:screen" opacity="0.33">
<path d="M200.233 231.721C200.233 232.247 193.994 231.584 184.076 231.721C178.268 231.767 172.467 232.171 166.708 232.932C163.463 233.23 160.081 233.938 156.585 234.555C154.825 234.829 153.065 235.286 151.283 235.72L144.016 237.434C143.502 236.022 143.187 234.546 143.079 233.047L142.668 230.282L141.251 225.14C140.18 221.922 138.921 218.771 137.48 215.702C135.022 210.449 132.26 205.344 129.207 200.413C124.02 191.912 120.455 186.816 120.866 186.496C121.278 186.176 125.437 190.77 131.31 199.042C134.751 203.884 137.808 208.988 140.451 214.308C142.046 217.464 143.428 220.724 144.587 224.066L146.141 229.527L146.575 232.315C146.605 232.611 146.666 232.902 146.758 233.184L150.529 232.293C152.38 231.858 154.162 231.401 155.991 231.15C159.578 230.579 163.052 229.916 166.388 229.687C172.293 229.068 178.238 228.907 184.168 229.207C194.223 229.733 200.324 231.287 200.233 231.721Z" fill="#FFD480"/>
</g>
<g style="mix-blend-mode:screen" opacity="0.34">
<path d="M198.909 231.538C198.909 232.04 192.831 231.538 183.141 231.538C177.475 231.609 171.82 232.036 166.207 232.817C163.008 233.114 159.74 233.846 156.312 234.417C154.598 234.668 152.884 235.171 151.125 235.56L144.063 237.251C143.546 235.888 143.238 234.455 143.149 233L142.738 230.258L141.367 225.253C140.338 222.137 139.125 219.084 137.733 216.112C135.361 210.968 132.698 205.963 129.758 201.121C124.73 192.803 121.256 187.844 121.668 187.524C122.079 187.204 126.238 191.706 131.814 199.796C135.115 204.559 138.056 209.563 140.613 214.764C142.148 217.848 143.477 221.032 144.589 224.293L146.074 229.641L146.508 232.315C146.516 232.613 146.578 232.907 146.691 233.183L150.371 232.315C152.153 231.926 153.913 231.446 155.672 231.195C159.192 230.646 162.528 229.961 165.842 229.755C171.591 229.104 177.384 228.921 183.164 229.207C193.036 229.664 199.001 231.103 198.909 231.538Z" fill="#FFD480"/>
</g>
<g style="mix-blend-mode:screen" opacity="0.36">
<path d="M197.609 231.355C197.609 231.88 191.645 231.355 182.207 231.583C176.678 231.686 171.161 232.121 165.684 232.886C162.576 233.183 159.4 233.96 156.04 234.486L144.089 237.342C143.426 236.52 143.517 234.577 143.197 233.274L142.786 230.532L141.483 225.642C140.506 222.563 139.338 219.549 137.987 216.615C135.703 211.588 133.132 206.697 130.286 201.967C125.418 193.831 122.082 188.941 122.47 188.666C122.859 188.392 126.835 192.78 132.297 200.687C135.482 205.349 138.323 210.237 140.798 215.312C142.29 218.334 143.565 221.457 144.614 224.659L146.077 229.847L146.465 232.406C146.465 232.703 146.465 233.115 146.648 233.297L150.259 232.452C151.996 232.086 153.71 231.583 155.423 231.355C158.851 230.852 162.119 230.121 165.319 229.915C170.923 229.273 176.569 229.059 182.207 229.275C191.85 229.572 197.655 230.966 197.609 231.355Z" fill="#FFD480"/>
</g>
<g style="mix-blend-mode:screen" opacity="0.38">
<path d="M196.26 231.217C196.26 231.696 190.478 231.217 181.268 231.536C175.915 231.702 170.575 232.16 165.272 232.908C162.232 233.228 159.124 233.982 155.856 234.507L144.224 237.204C142.83 231.034 142.876 229.343 141.688 225.778C140.76 222.768 139.638 219.821 138.329 216.957C136.128 212.043 133.649 207.259 130.901 202.628C126.194 194.675 122.972 189.899 123.383 189.602C123.794 189.305 127.588 193.67 132.867 201.394C135.962 205.947 138.704 210.729 141.071 215.7C142.514 218.655 143.743 221.71 144.75 224.841C145.207 226.509 145.756 228.154 146.144 229.914C146.269 231.036 146.46 232.15 146.715 233.25L155.239 231.331C158.599 230.851 161.775 230.165 164.883 229.914C170.351 229.282 175.858 229.053 181.36 229.228C190.661 229.503 196.328 230.805 196.26 231.217Z" fill="#FFD480"/>
</g>
<g style="mix-blend-mode:screen" opacity="0.39">
<path d="M194.932 231.077C194.932 231.557 189.31 231.077 180.329 231.488C175.759 231.671 170.526 232.105 164.653 232.928C161.705 233.294 158.688 233.979 155.512 234.505L144.085 237.156C142.737 231.26 142.783 229.432 141.617 226.027C140.732 223.094 139.671 220.217 138.441 217.411C136.301 212.62 133.898 207.951 131.242 203.426C126.672 195.656 123.61 190.994 123.998 190.72C124.386 190.445 128.089 194.673 133.139 202.146C136.139 206.601 138.797 211.276 141.092 216.132C142.458 219.012 143.627 221.982 144.588 225.021C145.416 227.701 146.057 230.434 146.508 233.202L154.803 231.351C158.048 230.849 161.179 230.209 164.196 229.912C169.505 229.306 174.849 229.054 180.192 229.158C189.448 229.455 195.001 230.689 194.932 231.077Z" fill="#FFD480"/>
</g>
<g style="mix-blend-mode:screen" opacity="0.41">
<path d="M193.609 230.943C193.609 231.4 188.125 231.102 179.395 231.468C175.03 231.697 169.843 232.131 164.13 232.954L155.24 234.508L144.202 237.113C142.854 231.468 142.923 229.526 141.803 226.281C140.957 223.42 139.942 220.612 138.763 217.871C136.732 213.178 134.444 208.6 131.908 204.159C127.566 196.55 124.549 192.002 124.915 191.728C125.28 191.453 128.891 195.59 133.782 203.017C136.674 207.388 139.234 211.972 141.437 216.728C142.75 219.544 143.873 222.446 144.796 225.412C145.579 228.028 146.19 230.692 146.625 233.388L154.714 231.537L163.855 230.12C169.029 229.528 174.234 229.254 179.441 229.297C188.262 229.457 193.769 230.486 193.609 230.943Z" fill="#FFD480"/>
</g>
<g style="mix-blend-mode:screen" opacity="0.43">
<path d="M192.284 230.804C192.284 231.284 186.959 231.056 178.572 231.444C174.321 231.718 169.294 232.175 163.741 232.952L155.08 234.506L144.339 237.066C143.036 231.673 143.128 229.616 142.054 226.508C141.246 223.72 140.277 220.98 139.151 218.304C137.163 213.756 134.936 209.316 132.478 205.004C128.319 197.577 125.417 193.143 125.76 192.892C126.103 192.641 129.622 196.663 134.33 203.907C137.094 208.153 139.553 212.59 141.688 217.184C142.934 219.939 144.003 222.771 144.887 225.663C145.653 228.203 146.248 230.791 146.67 233.409L154.508 231.604L163.375 230.187C168.413 229.61 173.479 229.312 178.549 229.296C187.05 229.456 192.329 230.484 192.284 230.804Z" fill="#FFD480"/>
</g>
<g style="mix-blend-mode:screen" opacity="0.44">
<path d="M190.954 230.713C190.954 231.147 185.767 230.987 177.517 231.467C173.38 231.696 168.49 232.221 163.097 232.976L154.687 234.507L144.266 236.998C142.964 231.879 143.078 229.708 141.981 226.76C141.208 224.045 140.285 221.374 139.216 218.761C136.931 213.802 134.828 209.415 132.817 205.804C128.795 198.56 125.962 194.218 126.35 193.966C126.739 193.715 130.075 197.669 134.6 204.73C137.255 208.886 139.63 213.214 141.707 217.687C142.883 220.382 143.898 223.145 144.746 225.96C145.471 228.419 146.036 230.923 146.437 233.456L154.07 231.696L162.686 230.302C167.57 229.718 172.483 229.413 177.403 229.388C185.858 229.456 190.977 230.348 190.954 230.713Z" fill="#FFD480"/>
</g>
<g style="mix-blend-mode:screen" opacity="0.46">
<path d="M189.609 230.649C189.609 231.038 184.581 230.923 176.583 231.495C172.561 231.723 167.83 232.272 162.597 233.049L154.416 234.534L144.292 236.956C143.035 232.066 143.172 229.804 142.144 226.993C141.395 224.359 140.51 221.765 139.493 219.223C137.459 214.378 135.288 210.082 133.369 206.585C129.507 199.547 126.81 195.319 127.176 195.159C127.541 194.999 130.741 198.77 135.106 205.648C137.669 209.704 139.959 213.926 141.961 218.286C144.111 223.181 145.646 228.324 146.532 233.597L153.936 231.883L162.277 230.535C167.022 229.927 171.799 229.606 176.583 229.575C184.627 229.438 189.654 230.261 189.609 230.649Z" fill="#FFD480"/>
</g>
<g style="mix-blend-mode:screen" opacity="0.48">
<path d="M188.283 230.487C188.283 230.875 183.392 230.83 175.645 231.424C171.76 231.652 167.167 232.269 162.071 233.024L154.141 234.486L144.314 236.771C143.08 232.201 143.24 229.779 142.258 227.105C141.56 224.536 140.713 222.01 139.721 219.541C137.984 215.344 136.031 211.241 133.871 207.246C130.146 200.39 127.586 196.277 127.929 196.025C128.272 195.774 131.357 199.568 135.585 206.263C138.027 210.212 140.188 214.328 142.052 218.581C143.168 221.11 144.107 223.714 144.863 226.374C145.515 228.697 146.042 231.054 146.44 233.435L153.593 231.767L161.774 230.487C166.366 229.877 170.99 229.541 175.622 229.481C183.461 229.436 188.306 230.19 188.283 230.487Z" fill="#FFD480"/>
</g>
<g style="mix-blend-mode:screen" opacity="0.49">
<path d="M186.913 230.486C186.913 230.875 182.183 230.875 174.664 231.515C170.893 231.743 166.437 232.36 161.524 233.137L153.845 234.577L144.316 236.862C143.105 232.452 143.288 230.006 142.328 227.493C141.668 224.991 140.851 222.533 139.883 220.134C138.248 216.049 136.387 212.059 134.307 208.182C130.764 201.509 128.296 197.487 128.639 197.282C128.982 197.076 131.93 200.732 135.952 207.245C138.317 211.078 140.395 215.08 142.168 219.22C143.247 221.671 144.141 224.199 144.842 226.784C145.46 229.043 145.963 231.331 146.35 233.64L153.206 232.04L161.067 230.715C165.505 230.085 169.977 229.727 174.458 229.641C182.343 229.458 186.913 230.121 186.913 230.486Z" fill="#FFD480"/>
</g>
<g style="mix-blend-mode:screen" opacity="0.51">
<path d="M185.608 230.489C185.608 230.968 181.037 230.854 173.77 231.608C170.114 231.86 165.795 232.454 161.041 233.254L153.614 234.671L144.473 236.956C143.285 232.797 143.491 230.283 142.577 227.815C141.97 225.399 141.206 223.025 140.291 220.708C138.743 216.731 136.965 212.847 134.967 209.076C131.607 202.586 129.254 198.678 129.551 198.495C129.848 198.312 132.75 201.832 136.566 208.185C138.837 211.907 140.823 215.795 142.508 219.816C143.546 222.193 144.401 224.646 145.068 227.152C145.982 229.597 146.187 233.185 146.507 233.756L153.226 232.203C155.831 231.631 158.391 231.311 160.813 230.9C165.114 230.269 169.448 229.895 173.793 229.78C176.72 229.655 179.651 229.723 182.569 229.986C184.488 230.054 185.631 230.237 185.608 230.489Z" fill="#FFD480"/>
</g>
<g style="mix-blend-mode:screen" opacity="0.52">
<path d="M184.283 230.485C184.283 230.896 179.873 230.942 172.857 231.627C169.338 232.016 165.133 232.45 160.562 233.318C158.277 233.775 155.832 234.095 153.364 234.712L144.428 236.838C143.286 232.884 143.514 230.347 142.623 228.062C142.039 225.722 141.275 223.43 140.338 221.206C138.893 217.349 137.206 213.586 135.287 209.94C132.065 203.633 129.826 199.839 130.146 199.634C130.466 199.428 133.185 202.902 136.841 209.072C139.027 212.679 140.922 216.454 142.509 220.361C143.511 222.659 144.321 225.036 144.931 227.468C145.845 229.89 145.96 233.25 146.302 233.844L152.815 232.336C155.329 231.764 157.82 231.49 160.151 231.079C164.3 230.458 168.481 230.069 172.674 229.913C179.873 229.525 184.283 230.119 184.283 230.485Z" fill="#FFD480"/>
</g>
<g style="mix-blend-mode:screen" opacity="0.54">
<path d="M182.938 230.485C182.938 230.828 178.687 230.988 171.877 231.65C168.495 232.13 164.427 232.45 160.017 233.364C157.732 233.821 155.446 234.096 153.161 234.735L144.546 236.769C143.121 227.658 140.194 218.847 135.885 210.695C132.845 204.57 130.651 200.914 130.994 200.708C131.337 200.502 133.919 203.885 137.393 209.849C139.472 213.341 141.268 216.994 142.763 220.773C143.694 222.998 144.458 225.289 145.049 227.628C145.94 229.914 145.986 233.159 146.351 233.799L152.636 232.336C155.058 231.719 157.457 231.49 159.697 231.102C163.709 230.473 167.752 230.061 171.809 229.868C178.687 229.617 182.961 230.051 182.938 230.485Z" fill="#FFD480"/>
</g>
<g style="mix-blend-mode:screen" opacity="0.56">
<path d="M181.611 230.488C181.085 231.128 166.322 230.99 144.498 236.772C140.819 214.834 130.627 202.79 131.609 201.854C134.068 204.515 136.131 207.517 137.734 210.766C139.7 214.166 141.404 217.711 142.83 221.37C143.749 223.521 144.513 225.736 145.115 227.997C145.961 230.282 145.984 233.276 146.349 233.938L152.428 232.522C154.713 231.927 156.998 231.699 159.284 231.31C163.626 230.511 167.625 230.373 170.961 230.054C177.497 229.711 181.611 230.008 181.611 230.488Z" fill="#FFD480"/>
</g>
<g style="mix-blend-mode:screen" opacity="0.57">
<path d="M180.263 230.484C179.783 231.192 165.569 231.146 144.522 236.7C141.025 215.584 131.427 203.86 132.296 202.992C132.547 202.832 134.969 206.009 138.169 211.607C139.995 214.921 141.605 218.348 142.99 221.868C143.82 223.955 144.514 226.092 145.07 228.267C145.824 230.552 145.87 233.295 146.236 233.98C153.982 232.006 161.89 230.736 169.865 230.187C176.309 229.798 180.286 230.027 180.263 230.484Z" fill="#FFD480"/>
</g>
<g style="mix-blend-mode:screen" opacity="0.59">
<path d="M178.935 230.482C178.455 231.259 164.812 231.282 144.656 236.652C141.343 216.336 132.339 204.933 133.116 204.133C133.39 203.973 135.629 207.058 138.692 212.451C140.431 215.653 141.958 218.966 143.262 222.369C144.039 224.385 144.696 226.445 145.227 228.539C145.913 230.825 145.982 233.316 146.324 234.047C153.775 232.118 161.386 230.871 169.063 230.322C172.345 229.918 175.667 229.972 178.935 230.482V230.482Z" fill="#FFD480"/>
</g>
<g style="mix-blend-mode:screen" opacity="0.61">
<path d="M177.612 230.485C177.155 231.216 164.06 231.422 144.59 236.563C141.459 217.025 132.889 206.01 133.689 205.233C133.963 205.073 135.974 208.066 138.945 213.277C140.617 216.354 142.068 219.546 143.287 222.829C144.041 224.657 144.498 226.714 145.138 228.771C145.778 230.827 145.801 233.341 146.167 234.05C153.317 232.181 160.621 230.965 167.991 230.416C171.184 229.977 174.425 230 177.612 230.485V230.485Z" fill="#FFD480"/>
</g>
<g style="mix-blend-mode:screen" opacity="0.62">
<path d="M176.263 230.485C175.851 231.147 163.283 231.513 144.612 236.449C141.71 217.664 133.552 207.084 134.397 206.307C136.405 208.656 138.068 211.28 139.333 214.099C140.9 217.055 142.274 220.108 143.447 223.24L145.161 228.953C145.709 231.239 145.8 233.25 146.143 234.004C160.997 230.005 176.766 229.845 176.263 230.485Z" fill="#FFD480"/>
</g>
<g style="mix-blend-mode:screen" opacity="0.64">
<path d="M174.939 230.485C174.527 231.08 162.53 231.628 144.636 236.313C141.963 218.351 134.238 208.136 135.038 207.404C136.928 209.66 138.469 212.187 139.609 214.9C141.075 217.754 142.373 220.692 143.494 223.698C143.996 225.458 144.522 227.286 145.093 229.183C145.665 231.079 145.642 233.228 145.985 234.005C160.313 230.257 175.487 229.891 174.939 230.485Z" fill="#FFD480"/>
</g>
<g style="mix-blend-mode:screen" opacity="0.66">
<path d="M173.587 230.621C173.199 231.146 161.773 231.878 144.679 236.334C142.074 219.195 134.99 209.299 135.698 208.637C137.516 210.801 138.995 213.228 140.086 215.835C141.481 218.568 142.688 221.393 143.696 224.291C144.199 225.959 144.702 227.719 145.227 229.524C145.418 231.063 145.7 232.589 146.073 234.094C159.647 230.484 174.022 229.935 173.587 230.621Z" fill="#FFD480"/>
</g>
<g style="mix-blend-mode:screen" opacity="0.67">
<path d="M172.265 230.694C171.899 231.265 160.998 231.974 144.704 236.293C142.213 219.953 135.769 210.401 136.34 209.807C138.047 211.877 139.441 214.187 140.477 216.662C143.232 222.165 145.114 228.063 146.053 234.145C158.964 230.648 172.676 230.122 172.265 230.694Z" fill="#FFD480"/>
</g>
<g style="mix-blend-mode:screen" opacity="0.69">
<path d="M170.916 230.758C170.596 231.398 160.221 232.061 144.749 236.22C142.35 220.726 136.477 211.539 136.98 211.082C138.585 213.073 139.886 215.291 140.842 217.664C143.341 222.945 145.08 228.554 146.006 234.323C158.278 230.804 171.327 230.301 170.916 230.758Z" fill="#FFD480"/>
</g>
<g style="mix-blend-mode:screen" opacity="0.7">
<path d="M169.591 230.899C169.294 231.516 159.445 232.202 144.774 236.178C142.488 221.461 137.072 212.709 137.621 212.16C139.075 214.105 140.281 216.223 141.209 218.467C143.494 223.502 145.093 228.821 145.962 234.281C157.617 231.013 169.957 230.488 169.591 230.899Z" fill="#FFD480"/>
</g>
<g style="mix-blend-mode:screen" opacity="0.72">
<path d="M168.263 231.057C167.988 231.606 158.687 232.383 144.816 236.13C142.691 222.236 137.709 213.872 138.189 213.278C138.189 212.661 144.427 223.15 145.936 234.256C156.951 231.263 168.628 230.623 168.263 231.057Z" fill="#FFD480"/>
</g>
<g style="mix-blend-mode:screen" opacity="0.74">
<path d="M166.941 231.195C166.667 231.675 157.96 232.612 144.843 236.085C142.832 222.991 138.376 215.015 138.764 214.558C139.153 214.101 144.477 223.973 145.917 234.394C156.292 231.56 167.238 230.738 166.941 231.195Z" fill="#FFD480"/>
</g>
<g style="mix-blend-mode:screen" opacity="0.75">
<path d="M165.614 231.33C165.34 231.741 157.181 232.838 144.864 236.038C142.967 223.766 139.036 216.156 139.356 215.768C139.676 215.379 144.521 224.703 145.869 234.438C155.627 231.856 165.888 230.873 165.614 231.33Z" fill="#FFD480"/>
</g>
<g style="mix-blend-mode:screen" opacity="0.77">
<path d="M164.285 231.491C164.033 231.856 156.423 233.022 144.906 236.061C143.735 229.612 142.07 223.263 139.924 217.071C140.13 216.499 144.494 225.526 145.843 234.576C154.915 232.13 164.536 231.034 164.285 231.491Z" fill="#FFD480"/>
</g>
<g style="mix-blend-mode:screen" opacity="0.79">
<path d="M162.963 231.631C162.735 232.088 155.673 233.162 144.933 235.927C143.379 225.255 140.134 218.559 140.499 218.193C143.25 223.28 145.055 228.824 145.824 234.556C151.419 232.982 157.163 232.002 162.963 231.631V231.631Z" fill="#FFD480"/>
</g>
<g style="mix-blend-mode:screen" opacity="0.8">
<path d="M161.639 231.858C161.433 232.246 154.92 233.343 144.98 235.88C144.013 230.312 142.677 224.816 140.98 219.426C143.523 224.136 145.151 229.284 145.78 234.6C150.954 233.125 156.27 232.206 161.639 231.858Z" fill="#FFD480"/>
</g>
<g style="mix-blend-mode:screen" opacity="0.82">
<path d="M160.308 232.087C160.126 232.384 154.138 233.504 144.997 235.812C144.122 230.703 142.939 225.651 141.455 220.684C143.723 225.038 145.179 229.77 145.751 234.647C150.498 233.275 155.378 232.417 160.308 232.087V232.087Z" fill="#FFD480"/>
</g>
<g style="mix-blend-mode:screen" opacity="0.84">
<path d="M159.011 232.314C158.828 232.542 153.389 233.662 145.048 235.765C143.837 227.538 141.734 222.053 141.94 221.916C143.91 225.93 145.185 230.25 145.71 234.691C150.047 233.43 154.506 232.633 159.011 232.314V232.314Z" fill="#FFD480"/>
</g>
<g style="mix-blend-mode:screen" opacity="0.85">
<path d="M157.683 232.542C156.53 232.97 155.335 233.276 154.118 233.456L144.977 235.741C144.063 231.971 143.903 228.886 143.149 226.806L142.326 223.195C143.994 226.862 145.096 230.761 145.594 234.759C149.531 233.583 153.585 232.84 157.683 232.542V232.542Z" fill="#FFD480"/>
</g>
<g style="mix-blend-mode:screen" opacity="0.87">
<path d="M156.383 232.771C155.337 233.138 154.269 233.436 153.184 233.662L145.094 235.673C143.997 229.114 142.809 224.613 142.809 224.43C144.152 227.762 145.08 231.246 145.574 234.805C149.105 233.788 152.724 233.107 156.383 232.771V232.771Z" fill="#FFD480"/>
</g>
<g style="mix-blend-mode:screen" opacity="0.89">
<path d="M155.057 233.001C155.057 233.001 151.126 234.235 145.139 235.629C144.111 229.87 143.242 225.711 143.242 225.711C144.367 228.655 145.135 231.724 145.527 234.852C148.648 233.974 151.835 233.355 155.057 233.001V233.001Z" fill="#FFD480"/>
</g>
<g style="mix-blend-mode:screen" opacity="0.9">
<path d="M153.755 233.254C150.947 234.211 148.076 234.974 145.163 235.539C144.226 230.626 143.586 226.992 143.586 226.992C144.566 229.53 145.233 232.177 145.574 234.876C148.268 234.178 150.999 233.637 153.755 233.254V233.254Z" fill="#FFD480"/>
</g>
<g style="mix-blend-mode:screen" opacity="0.92">
<path d="M152.452 233.574C150.079 234.367 147.66 235.016 145.208 235.516C144.665 233.132 144.246 230.722 143.951 228.295C144.702 230.461 145.238 232.696 145.551 234.968C147.818 234.35 150.123 233.884 152.452 233.574Z" fill="#FFD480"/>
</g>
<g style="mix-blend-mode:screen" opacity="0.93">
<path d="M151.145 233.869C151.145 233.869 148.86 234.646 145.227 235.468C144.714 233.541 144.408 231.565 144.312 229.572C144.518 229.412 144.815 232.475 145.524 235.011C147.371 234.509 149.249 234.128 151.145 233.869V233.869Z" fill="#FFD480"/>
</g>
<g style="mix-blend-mode:screen" opacity="0.95">
<path d="M149.845 234.186C149.845 234.186 147.926 234.78 145.275 235.42C144.849 233.932 144.611 232.397 144.566 230.85C144.704 230.85 144.909 233.135 145.503 235.009C147.766 234.529 149.845 234.186 149.845 234.186Z" fill="#FFD480"/>
</g>
<g style="mix-blend-mode:screen" opacity="0.97">
<path d="M148.545 234.484C148.545 234.484 147.129 234.919 145.3 235.353C144.948 234.338 144.763 233.273 144.752 232.199C144.752 232.199 144.958 233.799 145.46 235.101C147.129 234.713 148.545 234.484 148.545 234.484Z" fill="#FFD480"/>
</g>
<g style="mix-blend-mode:screen" opacity="0.98">
<path d="M147.239 234.803C147.239 234.803 146.393 235.055 145.319 235.306C145.043 234.754 144.917 234.139 144.953 233.523C144.953 233.523 144.953 234.529 145.41 235.146C146.416 234.917 147.239 234.803 147.239 234.803Z" fill="#FFD480"/>
</g>
<g style="mix-blend-mode:screen" opacity="0.3">
<path d="M145.936 235.056L145.364 235.216C145.044 235.216 145.158 234.805 145.158 234.805C145.158 234.805 145.159 235.239 145.387 235.17L145.936 235.056Z" fill="#FFD480"/>
</g>
</g>
<path style="mix-blend-mode:screen" opacity="0.7" d="M100.372 210.99C99.3435 198.052 103.328 185.215 111.501 175.134C140.351 139.657 168.939 97.8295 188.3 68.2252L187.16 67.7891C167.81 97.3636 139.311 139.038 110.564 174.38C102.191 184.687 98.1004 197.819 99.1377 211.058C101.733 249.231 99.8775 287.577 93.6074 325.321C93.9731 325.549 94.3615 325.755 94.7043 326.006C101.071 288.019 102.973 249.418 100.372 210.99Z" fill="url(#paint4_radial)"/>
<path style="mix-blend-mode:screen" opacity="0.5" d="M216.348 232.768C236.641 172.803 267.56 106.736 279.901 81.1184C279.935 81.0497 279.956 80.9746 279.96 80.8978C279.965 80.8211 279.955 80.7441 279.929 80.6715C279.903 80.5989 279.863 80.5323 279.811 80.4756C279.759 80.4188 279.696 80.3732 279.626 80.3414C279.556 80.3064 279.479 80.2857 279.401 80.2806C279.322 80.2754 279.244 80.2859 279.169 80.3114C279.095 80.3369 279.026 80.3769 278.967 80.4292C278.909 80.4814 278.861 80.5448 278.827 80.6156C266.463 106.256 235.544 172.368 215.205 232.402C211.012 244.673 202.267 254.866 190.776 260.876C156.801 279.173 125.08 301.376 96.2579 327.034C96.5778 327.308 93.607 330.348 93.9726 330.622C109.489 316.728 147.173 285.374 191.416 261.927C203.156 255.762 212.081 245.324 216.348 232.768V232.768Z" fill="url(#paint5_radial)"/>
<path d="M94.4043 321.895C100.512 285.117 102.36 247.758 99.9117 210.557C98.877 197.623 102.853 184.786 111.018 174.702C139.616 139.55 167.958 98.1351 187.309 68.5736C187.508 68.2687 187.386 67.8637 187.054 67.7123V67.7123C186.787 67.5902 186.473 67.6771 186.312 67.9231C166.97 97.4539 138.648 138.827 110.081 173.948C101.711 184.266 97.621 197.403 98.6549 210.649C102.22 257.588 94.4043 321.895 94.4043 321.895Z" fill="url(#paint6_linear)"/>
<path d="M214.749 231.947C210.562 244.222 201.815 254.417 190.32 260.422C157.555 278.167 126.951 299.639 99.1152 324.409C99.1152 324.409 149.276 283.503 190.891 261.45C202.646 255.305 211.594 244.884 215.892 232.336C230.147 190.197 249.645 145.069 264.264 113.066C264.396 112.776 264.276 112.438 263.994 112.291V112.291C263.69 112.133 263.318 112.256 263.175 112.567C248.546 144.602 229.037 189.775 214.749 231.947Z" fill="url(#paint7_linear)"/>
<defs>
<filter id="filter0_f" x="68" y="49" width="228.189" height="321.701" filterUnits="userSpaceOnUse" color-interpolation-filters="sRGB">
<feFlood flood-opacity="0" result="BackgroundImageFix"/>
<feBlend mode="normal" in="SourceGraphic" in2="BackgroundImageFix" result="shape"/>
<feGaussianBlur stdDeviation="2" result="effect1_foregroundBlur"/>
</filter>
<linearGradient id="paint0_linear" x1="130.086" y1="64.0508" x2="188.385" y2="398.483" gradientUnits="userSpaceOnUse">
<stop stop-color="#FDFDFD"/>
<stop offset="0.401042" stop-color="#E9E9E9"/>
<stop offset="0.619792" stop-color="#F2F2F2"/>
<stop offset="1" stop-color="#E1E1E1"/>
</linearGradient>
<linearGradient id="paint1_linear" x1="103.812" y1="163.574" x2="227.889" y2="232.125" gradientUnits="userSpaceOnUse">
<stop stop-color="#DCD7D4"/>
<stop offset="0.07" stop-color="#AAA8A6"/>
<stop offset="0.15" stop-color="#7E7D7D"/>
<stop offset="0.22" stop-color="#5B5C5D"/>
<stop offset="0.29" stop-color="#414446"/>
<stop offset="0.35" stop-color="#323638"/>
<stop offset="0.4" stop-color="#333739"/>
<stop offset="0.42" stop-color="#6C6F70"/>
<stop offset="0.45" stop-color="#9C9E9F"/>
<stop offset="0.47" stop-color="#C1C2C3"/>
<stop offset="0.49" stop-color="#DBDDDD"/>
<stop offset="0.51" stop-color="#EBECEC"/>
<stop offset="0.52" stop-color="#F1F2F2"/>
<stop offset="0.57" stop-color="#E2E4E6"/>
<stop offset="0.66" stop-color="#BBBFC5"/>
<stop offset="0.78" stop-color="#828995"/>
<stop offset="1" stop-color="#A5A7AA"/>
</linearGradient>
<radialGradient id="paint2_radial" cx="0" cy="0" r="1" gradientUnits="userSpaceOnUse" gradientTransform="translate(76.9827 336.503) rotate(53.0887) scale(17.5 24.3862)">
<stop stop-color="#070707"/>
<stop offset="1" stop-color="#070707" stop-opacity="0"/>
</radialGradient>
<linearGradient id="paint3_linear" x1="282.5" y1="142" x2="159.013" y2="70.6351" gradientUnits="userSpaceOnUse">
<stop offset="0.125" stop-color="#EEC120"/>
<stop offset="0.364583" stop-color="#FFBC10"/>
<stop offset="0.453125" stop-color="#F0B213"/>
<stop offset="0.59" stop-color="#F0B213"/>
<stop offset="0.73" stop-color="#F5DF1A"/>
<stop offset="0.921875" stop-color="#EEC120"/>
<stop offset="1" stop-color="#FFC700"/>
</linearGradient>
<radialGradient id="paint4_radial" cx="0" cy="0" r="1" gradientUnits="userSpaceOnUse" gradientTransform="translate(111.481 181.033) rotate(30.6288) scale(133.785 138.561)">
<stop stop-color="#FFEEE6"/>
<stop offset="1"/>
</radialGradient>
<radialGradient id="paint5_radial" cx="0" cy="0" r="1" gradientUnits="userSpaceOnUse" gradientTransform="translate(64825.2 77651.5) scale(13903.1 18710.6)">
<stop stop-color="#FFEEE6"/>
<stop offset="1"/>
</radialGradient>
<linearGradient id="paint6_linear" x1="71.621" y1="311.504" x2="209.062" y2="79.7709" gradientUnits="userSpaceOnUse">
<stop stop-color="#282726"/>
<stop offset="0.3" stop-color="#232221"/>
<stop offset="0.67" stop-color="#141313"/>
<stop offset="1"/>
</linearGradient>
<linearGradient id="paint7_linear" x1="58.721" y1="315.733" x2="126.488" y2="73.1111" gradientUnits="userSpaceOnUse">
<stop stop-color="#282726"/>
<stop offset="0.3" stop-color="#232221"/>
<stop offset="0.67" stop-color="#141313"/>
<stop offset="1"/>
</linearGradient>
</defs>
</svg>
