<svg width="346" height="336" viewBox="0 0 346 336" fill="none" xmlns="http://www.w3.org/2000/svg">
<g clip-path="url(#clip0)">
<path d="M134.998 222.5C131.279 197.791 109.354 217.949 86.3672 214.255C65.9041 210.966 45.473 220.966 39.4937 235.459C30.7458 256.663 57.1905 277.165 45.8005 294.163C37.8049 306.094 16.451 308.413 18.1107 312.516C19.2191 315.257 28.7464 314.225 30.7964 318.2C33.1542 322.781 22.7188 328.483 24.0457 330.344C26.1014 333.229 58.9956 330.541 68.5543 312.45C80.3752 290.08 46.1869 263.701 59.0366 243.304C65.3487 233.286 81.0145 227.877 95.8152 231.129C110.95 234.455 125.162 206.317 130.043 221.691C131.693 221.961 133.345 222.231 134.998 222.5Z" fill="url(#paint0_linear)"/>
<path style="mix-blend-mode:multiply" opacity="0.3" d="M26.0868 327.018C36.4637 326.659 47.7926 324.155 54.7406 316.255C63.3262 306.492 61.679 292.518 60.6239 283.562C57.7715 259.355 44.5214 252.681 48.3743 240.255C52.6673 226.409 73.4273 220.769 87.5833 220.385C95.4451 220.171 102.672 221.54 109.01 223.622C102.146 218.836 94.3855 215.545 86.3633 214.256C65.9003 210.967 45.4691 220.966 39.4898 235.46C30.742 256.664 57.1867 277.166 45.7967 294.164C37.8011 306.095 16.4472 308.414 18.1069 312.517C19.2153 315.258 28.7426 314.226 30.7925 318.201C32.2903 321.11 28.6201 324.474 26.0868 327.018Z" fill="url(#paint1_linear)"/>
<path d="M68.5517 312.449C72.0604 305.808 71.5165 298.814 69.3506 291.73C62.4424 289.693 55.535 287.642 48.6737 285.423C48.5334 288.425 47.69 291.341 45.8 294.162C37.8045 306.094 16.4505 308.412 18.1102 312.515C19.2187 315.257 28.746 314.224 30.7959 318.199C33.1537 322.78 22.7184 328.482 24.0452 330.344C26.0963 333.225 58.9937 330.538 68.5517 312.449Z" fill="url(#paint2_linear)"/>
<path style="mix-blend-mode:multiply" opacity="0.3" d="M26.0863 327.02C36.4632 326.661 47.7921 324.157 54.7401 316.257C61.6477 308.402 61.9317 297.821 61.229 289.321C57.0321 288.062 52.8429 286.774 48.6697 285.423C48.5294 288.426 47.686 291.342 45.796 294.163C37.8005 306.094 16.4465 308.413 18.1062 312.516C19.2147 315.257 28.742 314.225 30.7919 318.2C32.2898 321.112 28.6195 324.476 26.0863 327.02Z" fill="url(#paint3_linear)"/>
<path d="M133.998 219.5C130.279 194.79 109.354 217.95 86.3669 214.255C65.9039 210.966 45.4727 220.966 39.4934 235.459C30.7456 256.663 57.1903 277.165 45.8003 294.163C37.8047 306.095 16.4508 308.413 18.1105 312.516C19.2189 315.257 28.7462 314.225 30.7962 318.2C33.154 322.781 22.7186 328.483 24.0454 330.345C26.1012 333.229 58.9954 330.541 68.5541 312.45C80.375 290.08 46.1867 263.701 59.0363 243.304C65.3485 233.286 81.0143 227.877 95.815 231.129C110.95 234.455 124.162 203.317 129.043 218.69C130.694 218.961 132.345 219.23 133.998 219.5Z" fill="url(#paint4_linear)"/>
<path style="mix-blend-mode:multiply" opacity="0.3" d="M26.0868 327.018C36.4637 326.659 47.7926 324.155 54.7406 316.255C63.3262 306.492 61.679 292.518 60.6239 283.562C57.7715 259.355 44.5214 252.681 48.3743 240.255C52.6673 226.409 73.4273 220.769 87.5833 220.385C95.4451 220.171 102.672 221.54 109.01 223.622C102.146 218.836 94.3855 215.545 86.3633 214.256C65.9003 210.967 45.4691 220.966 39.4898 235.46C30.742 256.664 57.1867 277.166 45.7967 294.164C37.8011 306.095 16.4472 308.414 18.1069 312.517C19.2153 315.258 28.7426 314.226 30.7925 318.201C32.2903 321.11 28.6201 324.474 26.0868 327.018Z" fill="url(#paint5_linear)"/>
<path d="M68.5517 312.449C72.0604 305.808 71.5165 298.814 69.3506 291.73C62.4424 289.693 55.535 287.642 48.6737 285.423C48.5334 288.425 47.69 291.341 45.8 294.162C37.8045 306.094 16.4505 308.412 18.1102 312.515C19.2187 315.257 28.746 314.224 30.7959 318.199C33.1537 322.78 22.7184 328.482 24.0452 330.344C26.0963 333.225 58.9937 330.538 68.5517 312.449Z" fill="url(#paint6_linear)"/>
<path style="mix-blend-mode:multiply" opacity="0.3" d="M26.0863 327.02C36.4632 326.661 47.7921 324.157 54.7401 316.257C61.6477 308.402 61.9317 297.821 61.229 289.321C57.0321 288.062 52.8429 286.774 48.6697 285.423C48.5294 288.426 47.686 291.342 45.796 294.163C37.8005 306.094 16.4465 308.413 18.1062 312.516C19.2147 315.257 28.742 314.225 30.7919 318.2C32.2898 321.112 28.6195 324.476 26.0863 327.02Z" fill="url(#paint7_linear)"/>
<path d="M215 153.555C220.484 128.713 237.451 129.327 262.506 125.091C284.81 121.32 306.292 130.862 311.892 145.243C320.086 166.282 290.298 187.438 301.596 204.202C309.527 215.969 332.461 217.795 330.425 221.944C329.064 224.717 318.832 223.904 316.381 227.934C313.562 232.578 324.499 238.048 322.955 239.944C320.563 242.882 285.182 240.954 275.928 223.052C264.483 200.916 302.986 173.692 290.312 153.558C284.086 143.668 267.481 138.614 251.297 142.215C234.748 145.901 226.588 137.113 220.402 152.629C218.603 152.938 216.802 153.246 215 153.555Z" fill="url(#paint8_linear)"/>
<path style="mix-blend-mode:multiply" opacity="0.3" d="M320.947 236.658C309.757 236.541 297.665 234.296 290.627 226.543C281.93 216.962 284.538 202.924 286.21 193.926C290.727 169.608 305.439 162.614 302.013 150.254C298.196 136.482 276.101 131.315 260.829 131.26C252.348 131.229 244.458 132.768 237.487 135.003C245.186 130.047 253.767 126.569 262.511 125.091C284.815 121.32 306.296 130.863 311.897 145.243C320.09 166.283 290.303 187.439 301.601 204.203C309.532 215.97 332.466 217.796 330.429 221.945C329.069 224.717 318.836 223.905 316.386 227.935C314.595 230.884 318.361 234.169 320.947 236.658Z" fill="url(#paint9_linear)"/>
<path d="M275.932 223.051C272.535 216.481 273.538 209.46 276.298 202.313C283.883 200.112 291.467 197.896 299.012 195.513C298.986 198.518 299.724 201.42 301.599 204.202C309.53 215.969 332.464 217.795 330.427 221.944C329.067 224.716 318.835 223.904 316.384 227.934C313.565 232.578 324.501 238.047 322.957 239.943C320.57 242.878 285.186 240.952 275.932 223.051Z" fill="url(#paint10_linear)"/>
<path style="mix-blend-mode:multiply" opacity="0.3" d="M320.948 236.658C309.758 236.54 297.666 234.295 290.628 226.542C283.63 218.834 283.951 208.24 285.215 199.707C289.824 198.349 294.426 196.961 299.015 195.51C298.989 198.515 299.727 201.417 301.602 204.199C309.533 215.966 332.467 217.792 330.43 221.941C329.07 224.714 318.837 223.901 316.387 227.931C314.596 230.884 318.362 234.169 320.948 236.658Z" fill="url(#paint11_linear)"/>
<path d="M208.5 153.558C213.984 128.717 237.451 129.326 262.506 125.09C284.81 121.319 306.291 130.861 311.892 145.242C320.086 166.281 290.298 187.437 301.596 204.201C309.527 215.969 332.461 217.794 330.424 221.944C329.064 224.716 318.832 223.903 316.381 227.934C313.562 232.578 324.499 238.047 322.955 239.943C320.562 242.881 285.182 240.953 275.927 223.051C264.483 200.915 302.985 173.692 290.312 153.557C284.086 143.667 267.481 138.613 251.297 142.215C234.748 145.9 220.087 137.117 213.902 152.632C212.102 152.941 210.302 153.25 208.5 153.558Z" fill="url(#paint12_linear)"/>
<path style="mix-blend-mode:multiply" opacity="0.3" d="M320.947 236.658C309.757 236.541 297.665 234.296 290.627 226.543C281.93 216.962 284.538 202.924 286.21 193.926C290.727 169.608 305.439 162.614 302.013 150.254C298.196 136.482 276.101 131.315 260.829 131.26C252.348 131.229 244.458 132.768 237.487 135.003C245.186 130.047 253.767 126.569 262.511 125.091C284.815 121.32 306.296 130.863 311.897 145.243C320.09 166.283 290.303 187.439 301.601 204.203C309.532 215.97 332.466 217.796 330.429 221.945C329.069 224.717 318.836 223.905 316.386 227.935C314.595 230.884 318.361 234.169 320.947 236.658Z" fill="url(#paint13_linear)"/>
<path d="M275.932 223.051C272.535 216.481 273.538 209.46 276.298 202.313C283.883 200.112 291.467 197.896 299.012 195.513C298.986 198.518 299.724 201.42 301.599 204.202C309.53 215.969 332.464 217.795 330.427 221.944C329.067 224.716 318.835 223.904 316.384 227.934C313.565 232.578 324.501 238.047 322.957 239.943C320.57 242.878 285.186 240.952 275.932 223.051Z" fill="url(#paint14_linear)"/>
<path style="mix-blend-mode:multiply" opacity="0.3" d="M320.948 236.658C309.758 236.54 297.666 234.295 290.628 226.542C283.63 218.834 283.951 208.24 285.215 199.707C289.824 198.349 294.426 196.961 299.015 195.51C298.989 198.515 299.727 201.417 301.602 204.199C309.533 215.966 332.467 217.792 330.43 221.941C329.07 224.714 318.837 223.901 316.387 227.931C314.596 230.884 318.362 234.169 320.948 236.658Z" fill="url(#paint15_linear)"/>
<path d="M173.95 107.584C150.512 103.085 130.168 123.051 109.542 128.947C88.7824 134.355 67.7643 125.688 49.8646 141.478C47.0551 143.956 45.0843 147.245 44.2245 150.89C43.3647 154.535 43.6583 158.357 45.0649 161.828C70.6339 224.845 96.3126 287.638 155.099 287.46C155.931 287.457 156.779 287.225 157.496 286.805C208.214 257.071 198.429 189.943 188.424 122.67C187.872 118.966 186.183 115.525 183.59 112.822C180.997 110.12 177.629 108.289 173.95 107.584ZM95.6766 179.137C103.499 178.979 110.463 183.11 114.48 186.121C116.606 187.715 116.666 190.701 114.605 192.379C110.711 195.549 103.917 199.957 96.0946 200.118C88.2723 200.278 81.3079 196.146 77.2907 193.134C75.1644 191.54 75.1051 188.554 77.1661 186.876C81.0601 183.706 87.8544 179.298 95.6766 179.137ZM144.781 244.958C139.124 246.503 134.031 248.655 129.786 250.808C125.466 253.001 120.218 248.992 122.501 244.719C126.298 237.612 132.075 230.068 140.116 227.872C148.156 225.676 156.964 229.235 163.845 233.425C167.982 235.945 165.5 242.064 160.665 242.373C155.917 242.676 150.438 243.413 144.781 244.958ZM163.929 181.591C157.111 185.432 149.02 185.089 144.056 184.337C141.428 183.939 139.963 181.338 140.984 178.885C142.913 174.249 146.812 167.151 153.632 163.309C160.451 159.467 168.542 159.809 173.506 160.561C176.133 160.959 177.599 163.56 176.578 166.014C174.648 170.65 170.748 177.75 163.929 181.591Z" fill="url(#paint16_linear)"/>
<g opacity="0.15" filter="url(#filter0_f)">
<path d="M149.073 112.766C158.672 138.381 168.293 163.959 180.188 185.478L184.452 174.568L187.807 154.075L171.779 128.366L156.497 108.246L153.143 108.619L148.064 108.671C148.239 110.063 148.575 111.437 149.073 112.766Z" fill="black"/>
</g>
<path d="M294.569 80.291C295.79 76.7508 295.881 72.9185 294.83 69.3235C293.779 65.7286 291.637 62.5485 288.7 60.2227C269.992 45.401 247.234 60.2801 226.218 55.9805C205.309 51.1833 186.163 27.2088 162.997 32.9419C159.361 33.8406 156.094 35.8465 153.648 38.6823C151.202 41.5181 149.698 45.0437 149.343 48.7719C142.91 116.476 136.69 184.033 188.908 211.045C189.646 211.427 190.506 211.614 191.337 211.572C250.048 208.635 272.374 144.574 294.569 80.291ZM176.913 106.313C169.901 102.836 165.633 95.9517 163.463 91.4236C162.315 89.0276 163.641 86.3534 166.243 85.8172C171.16 84.8039 179.222 84.0331 186.235 87.5087C193.248 90.9844 197.516 97.8697 199.686 102.398C200.835 104.794 199.509 107.468 196.906 108.005C191.988 109.018 183.926 109.788 176.913 106.313ZM196.335 182.649C187.191 180.664 181.072 169.344 177.422 159.588C175.722 155.044 181.545 151.216 185.824 153.502C190.185 155.833 195.477 158.057 201.39 159.342C207.299 160.626 213.031 160.797 217.962 160.485C222.804 160.179 226.521 166.078 223.09 169.509C215.729 176.874 205.475 184.633 196.335 182.649ZM245.634 121.228C245.633 121.228 245.633 121.228 245.633 121.228C237.81 121.484 230.793 117.44 226.737 114.479C224.591 112.913 224.493 109.929 226.532 108.225C230.383 105.005 237.118 100.511 244.94 100.255C252.762 99.9981 259.781 104.043 263.837 107.005C265.982 108.572 266.08 111.555 264.042 113.259C260.191 116.48 253.455 120.975 245.635 121.228C245.634 121.228 245.634 121.228 245.634 121.228V121.228Z" fill="url(#paint17_linear)"/>
</g>
<defs>
<filter id="filter0_f" x="144.064" y="104.246" width="47.7422" height="85.2324" filterUnits="userSpaceOnUse" color-interpolation-filters="sRGB">
<feFlood flood-opacity="0" result="BackgroundImageFix"/>
<feBlend mode="normal" in="SourceGraphic" in2="BackgroundImageFix" result="shape"/>
<feGaussianBlur stdDeviation="2" result="effect1_foregroundBlur"/>
</filter>
<linearGradient id="paint0_linear" x1="67.7244" y1="276.5" x2="136.726" y2="299.836" gradientUnits="userSpaceOnUse">
<stop stop-color="#D5320F"/>
<stop offset="1" stop-color="#FF8E78"/>
</linearGradient>
<linearGradient id="paint1_linear" x1="-254578" y1="217093" x2="-197065" y2="240070" gradientUnits="userSpaceOnUse">
<stop stop-color="#FFC444"/>
<stop offset="1" stop-color="#F36F56"/>
</linearGradient>
<linearGradient id="paint2_linear" x1="59.1223" y1="289.402" x2="26.6774" y2="329.015" gradientUnits="userSpaceOnUse">
<stop stop-color="#D5320F"/>
<stop offset="1" stop-color="#FF8E78"/>
</linearGradient>
<linearGradient id="paint3_linear" x1="-128477" y1="67678.7" x2="-92519.3" y2="81144" gradientUnits="userSpaceOnUse">
<stop stop-color="#FFC444"/>
<stop offset="1" stop-color="#F36F56"/>
</linearGradient>
<linearGradient id="paint4_linear" x1="67.7283" y1="276.502" x2="136.73" y2="299.838" gradientUnits="userSpaceOnUse">
<stop stop-color="#D5320F"/>
<stop offset="1" stop-color="#FF8E78"/>
</linearGradient>
<linearGradient id="paint5_linear" x1="-254578" y1="217093" x2="-197065" y2="240070" gradientUnits="userSpaceOnUse">
<stop stop-color="#FFC444"/>
<stop offset="1" stop-color="#F36F56"/>
</linearGradient>
<linearGradient id="paint6_linear" x1="59.1223" y1="289.402" x2="26.6774" y2="329.015" gradientUnits="userSpaceOnUse">
<stop stop-color="#D5320F"/>
<stop offset="1" stop-color="#FF8E78"/>
</linearGradient>
<linearGradient id="paint7_linear" x1="-128477" y1="67678.7" x2="-92519.3" y2="81144" gradientUnits="userSpaceOnUse">
<stop stop-color="#FFC444"/>
<stop offset="1" stop-color="#F36F56"/>
</linearGradient>
<linearGradient id="paint8_linear" x1="278.953" y1="187.016" x2="202.567" y2="210.538" gradientUnits="userSpaceOnUse">
<stop stop-color="#D5320F"/>
<stop offset="1" stop-color="#FF8E78"/>
</linearGradient>
<linearGradient id="paint9_linear" x1="262546" y1="211476" x2="198868" y2="235363" gradientUnits="userSpaceOnUse">
<stop stop-color="#FFC444"/>
<stop offset="1" stop-color="#F36F56"/>
</linearGradient>
<linearGradient id="paint10_linear" x1="287.487" y1="199.743" x2="317.878" y2="240.404" gradientUnits="userSpaceOnUse">
<stop stop-color="#D5320F"/>
<stop offset="1" stop-color="#FF8E78"/>
</linearGradient>
<linearGradient id="paint11_linear" x1="135165" y1="64721.4" x2="95348.2" y2="78564.6" gradientUnits="userSpaceOnUse">
<stop stop-color="#FFC444"/>
<stop offset="1" stop-color="#F36F56"/>
</linearGradient>
<linearGradient id="paint12_linear" x1="278.946" y1="187.012" x2="202.559" y2="210.534" gradientUnits="userSpaceOnUse">
<stop stop-color="#D5320F"/>
<stop offset="1" stop-color="#FF8E78"/>
</linearGradient>
<linearGradient id="paint13_linear" x1="262546" y1="211476" x2="198868" y2="235363" gradientUnits="userSpaceOnUse">
<stop stop-color="#FFC444"/>
<stop offset="1" stop-color="#F36F56"/>
</linearGradient>
<linearGradient id="paint14_linear" x1="287.487" y1="199.743" x2="317.878" y2="240.404" gradientUnits="userSpaceOnUse">
<stop stop-color="#D5320F"/>
<stop offset="1" stop-color="#FF8E78"/>
</linearGradient>
<linearGradient id="paint15_linear" x1="135165" y1="64721.4" x2="95348.2" y2="78564.6" gradientUnits="userSpaceOnUse">
<stop stop-color="#FFC444"/>
<stop offset="1" stop-color="#F36F56"/>
</linearGradient>
<linearGradient id="paint16_linear" x1="67.2224" y1="213.333" x2="191.873" y2="166.508" gradientUnits="userSpaceOnUse">
<stop stop-color="#00ACF9"/>
<stop offset="0.130208" stop-color="#1CBAE9"/>
<stop offset="0.296875" stop-color="#47C7ED"/>
<stop offset="0.484375" stop-color="#05B3E6"/>
<stop offset="0.651042" stop-color="#1E94E8"/>
<stop offset="0.817708" stop-color="#048AE6"/>
<stop offset="1" stop-color="#0173BA"/>
</linearGradient>
<linearGradient id="paint17_linear" x1="273.579" y1="136.662" x2="145.123" y2="117.918" gradientUnits="userSpaceOnUse">
<stop stop-color="#FDC80D"/>
<stop offset="0.109375" stop-color="#F9B916"/>
<stop offset="0.239583" stop-color="#FCA31E"/>
<stop offset="0.359375" stop-color="#FFC700"/>
<stop offset="0.484375" stop-color="#FFC01D"/>
<stop offset="0.651042" stop-color="#FFE601"/>
<stop offset="0.817708" stop-color="#FFD746"/>
<stop offset="1" stop-color="#FFC700"/>
</linearGradient>
<clipPath id="clip0">
<rect width="346" height="336" fill="white"/>
</clipPath>
</defs>
</svg>
