<svg width="199" height="133" viewBox="0 0 199 133" fill="none" xmlns="http://www.w3.org/2000/svg">
<path d="M44.7129 115.579L61.368 11.3075C62.3169 5.39651 67.2942 1.10547 73.2068 1.10547H125.238C131.154 1.10547 136.131 5.39651 137.077 11.3075L153.735 115.579H44.7129Z" fill="#00AFFF"/>
<path d="M126.995 1.10547C132.326 1.10547 136.811 4.85162 137.664 10.015L154.839 114.197H99.6377V85.9241V43.5148V1.10547H126.995Z" fill="#FF2834"/>
<path d="M39.1425 129.578C38.1069 129.578 37.137 129.12 36.4719 128.318C35.8138 127.52 35.5436 126.476 35.741 125.459L37.0608 118.519C37.3725 116.884 38.8031 115.697 40.4623 115.697H159.051C160.711 115.697 162.145 116.884 162.453 118.519L163.773 125.459C163.97 126.476 163.7 127.52 163.042 128.318C162.38 129.116 161.407 129.578 160.371 129.578H39.1425Z" fill="#9F6458"/>
<path d="M159.054 117.433C159.885 117.433 160.599 118.026 160.754 118.842L162.074 125.782C162.206 126.48 161.901 126.979 161.707 127.212C161.516 127.448 161.083 127.844 160.377 127.844H39.1414C38.4313 127.844 38.0018 127.448 37.8078 127.215C37.6138 126.979 37.309 126.483 37.4407 125.786L38.7604 118.845C38.9163 118.026 39.6333 117.433 40.4646 117.433H159.054ZM159.054 113.963H40.4646C37.9706 113.963 35.8265 115.74 35.3623 118.193L34.0426 125.133C33.4295 128.34 35.8819 131.314 39.1414 131.314H160.377C163.636 131.314 166.092 128.34 165.483 125.133L164.163 118.193C163.692 115.74 161.548 113.963 159.054 113.963Z" fill="#9F6458"/>
<path d="M78.8882 52.8906C77.2961 52.8906 75.7196 53.2331 74.2487 53.8984C72.7778 54.5638 71.4413 55.5389 70.3155 56.7683C69.1898 57.9977 68.2968 59.4572 67.6875 61.0635C67.0782 62.6698 66.7646 64.3913 66.7646 66.13C66.7646 67.8686 67.0782 69.5902 67.6875 71.1964C68.2968 72.8027 69.1898 74.2622 70.3155 75.4916C71.4413 76.721 72.7778 77.6962 74.2487 78.3615C75.7196 79.0269 77.2961 79.3693 78.8882 79.3693C80.4803 79.3693 82.0568 79.0269 83.5277 78.3615C84.9986 77.6962 86.3351 76.721 87.4608 75.4916C88.5866 74.2622 89.4796 72.8027 90.0889 71.1964C90.6981 69.5902 91.0117 67.8686 91.0117 66.13C91.0117 64.3913 90.6981 62.6698 90.0889 61.0635C89.4796 59.4572 88.5866 57.9977 87.4608 56.7683C86.3351 55.5389 84.9986 54.5638 83.5277 53.8984C82.0568 53.2331 80.4803 52.8906 78.8882 52.8906V52.8906Z" fill="#00FFFF"/>
<path d="M78.8887 54.7827C84.6179 54.7827 89.2803 59.8741 89.2803 66.1307C89.2803 72.3872 84.6179 77.4787 78.8887 77.4787C73.1594 77.4787 68.4971 72.3872 68.4971 66.1307C68.4971 59.8741 73.1594 54.7827 78.8887 54.7827ZM78.8887 51C71.237 51 65.0332 57.7748 65.0332 66.1307C65.0332 74.4866 71.237 81.2613 78.8887 81.2613C86.5404 81.2613 92.7441 74.4866 92.7441 66.1307C92.7441 57.7748 86.5404 51 78.8887 51Z" fill="#00A6F1"/>
<path d="M120.498 52.9043C118.905 52.9043 117.329 53.2491 115.858 53.919C114.387 54.5889 113.051 55.5707 111.925 56.8085C110.799 58.0463 109.906 59.5158 109.297 61.1331C108.688 62.7503 108.374 64.4837 108.374 66.2342C108.374 67.9847 108.688 69.7181 109.297 71.3353C109.906 72.9526 110.799 74.4221 111.925 75.6599C113.051 76.8977 114.387 77.8795 115.858 78.5494C117.329 79.2193 118.905 79.5641 120.498 79.5641C122.09 79.5641 123.666 79.2193 125.137 78.5494C126.608 77.8795 127.944 76.8977 129.07 75.6599C130.196 74.4221 131.089 72.9526 131.698 71.3353C132.308 69.7181 132.621 67.9847 132.621 66.2342C132.621 64.4837 132.308 62.7503 131.698 61.1331C131.089 59.5158 130.196 58.0463 129.07 56.8085C127.944 55.5707 126.608 54.5889 125.137 53.919C123.666 53.2491 122.09 52.9043 120.498 52.9043V52.9043Z" fill="#FF5F78"/>
<path d="M120.498 54.8085C126.227 54.8085 130.89 59.9349 130.89 66.2342C130.89 72.5335 126.227 77.6598 120.498 77.6598C114.769 77.6598 110.106 72.5335 110.106 66.2342C110.106 59.9349 114.769 54.8085 120.498 54.8085ZM120.498 51C112.846 51 106.643 57.8211 106.643 66.2342C106.643 74.6473 112.846 81.4684 120.498 81.4684C128.15 81.4684 134.354 74.6473 134.354 66.2342C134.354 57.8211 128.15 51 120.498 51Z" fill="#F4232E"/>
<path d="M34.1002 67.4085C34.2331 66.685 34.0736 65.9383 33.657 65.3325C33.2403 64.7268 32.6005 64.3117 31.8783 64.1786L10.0945 60.1629C9.37237 60.0298 8.62699 60.1895 8.02237 60.607C7.41775 61.0244 7.00342 61.6654 6.87054 62.3889C6.73765 63.1124 6.89709 63.8591 7.31378 64.4649C7.73047 65.0706 8.37028 65.4856 9.09245 65.6188L30.8762 69.6344C31.5984 69.7676 32.3437 69.6078 32.9484 69.1904C33.553 68.7729 33.9673 68.132 34.1002 67.4085ZM31.0693 89.5812L20.2155 91.8108C19.8414 91.8644 19.4822 91.994 19.1601 92.1919C18.8379 92.3897 18.5596 92.6515 18.3422 92.9612C18.1249 93.2709 17.9731 93.6218 17.8963 93.9925C17.8194 94.3631 17.8191 94.7456 17.8953 95.1164C17.9716 95.4871 18.1228 95.8383 18.3396 96.1484C18.5565 96.4584 18.8344 96.7206 19.1562 96.919C19.478 97.1174 19.837 97.2477 20.211 97.3018C20.5849 97.356 20.966 97.3329 21.3308 97.2339L32.1845 95.0043C32.5586 94.9508 32.9178 94.8211 33.2399 94.6233C33.5621 94.4254 33.8404 94.1636 34.0578 93.8539C34.2751 93.5443 34.4269 93.1933 34.5038 92.8227C34.5806 92.452 34.5809 92.0696 34.5047 91.6988C34.4284 91.328 34.2772 90.9768 34.0604 90.6668C33.8435 90.3568 33.5657 90.0945 33.2438 89.8961C32.922 89.6977 32.563 89.5675 32.1891 89.5133C31.8151 89.4592 31.434 89.4823 31.0693 89.5812ZM29.7955 39.6531L39.1461 45.6072C39.4518 45.8297 39.7997 45.9872 40.1685 46.07C40.5372 46.1528 40.9189 46.159 41.2902 46.0884C41.6614 46.0178 42.0143 45.8718 42.3271 45.6594C42.6399 45.447 42.906 45.1727 43.109 44.8534C43.3119 44.5342 43.4476 44.1766 43.5074 43.8028C43.5673 43.4291 43.5502 43.047 43.4571 42.6801C43.364 42.3132 43.1969 41.9693 42.9662 41.6695C42.7354 41.3697 42.4458 41.1205 42.1153 40.937L32.7697 34.9556C32.464 34.7331 32.1161 34.5756 31.7473 34.4928C31.3786 34.4101 30.9969 34.4038 30.6256 34.4744C30.2544 34.545 29.9015 34.691 29.5887 34.9034C29.2759 35.1158 29.0099 35.3901 28.8069 35.7094C28.6039 36.0287 28.4683 36.3862 28.4084 36.76C28.3485 37.1338 28.3656 37.5159 28.4587 37.8827C28.5518 38.2496 28.7189 38.5935 28.9496 38.8933C29.1804 39.1931 29.47 39.4424 29.8005 39.6258L29.7955 39.6531Z" fill="#00AFFF"/>
<path d="M164.688 67.4085C164.555 66.685 164.714 65.9383 165.131 65.3325C165.548 64.7268 166.188 64.3117 166.91 64.1786L188.694 60.1629C189.416 60.0298 190.161 60.1895 190.766 60.607C191.37 61.0244 191.785 61.6654 191.918 62.3889C192.05 63.1124 191.891 63.8591 191.474 64.4649C191.058 65.0706 190.418 65.4856 189.696 65.6188L167.912 69.6344C167.19 69.7676 166.444 69.6078 165.84 69.1904C165.235 68.7729 164.821 68.132 164.688 67.4085ZM167.719 89.5812L178.573 91.8108C178.947 91.8644 179.306 91.994 179.628 92.1919C179.95 92.3897 180.228 92.6515 180.446 92.9612C180.663 93.2709 180.815 93.6218 180.892 93.9925C180.969 94.3631 180.969 94.7456 180.893 95.1164C180.817 95.4871 180.665 95.8383 180.448 96.1484C180.232 96.4584 179.954 96.7206 179.632 96.919C179.31 97.1174 178.951 97.2477 178.577 97.3018C178.203 97.356 177.822 97.3329 177.457 97.2339L166.604 95.0043C166.229 94.9508 165.87 94.8211 165.548 94.6233C165.226 94.4254 164.948 94.1636 164.73 93.8539C164.513 93.5443 164.361 93.1933 164.284 92.8227C164.207 92.452 164.207 92.0696 164.283 91.6988C164.36 91.328 164.511 90.9768 164.728 90.6668C164.945 90.3568 165.222 90.0945 165.544 89.8961C165.866 89.6977 166.225 89.5675 166.599 89.5133C166.973 89.4592 167.354 89.4823 167.719 89.5812ZM168.993 39.6531L159.642 45.6072C159.336 45.8297 158.988 45.9872 158.62 46.07C158.251 46.1528 157.869 46.159 157.498 46.0884C157.127 46.0178 156.774 45.8718 156.461 45.6594C156.148 45.447 155.882 45.1727 155.679 44.8534C155.476 44.5342 155.341 44.1766 155.281 43.8028C155.221 43.4291 155.238 43.047 155.331 42.6801C155.424 42.3132 155.591 41.9693 155.822 41.6695C156.053 41.3697 156.342 41.1205 156.673 40.937L166.018 34.9556C166.324 34.7331 166.672 34.5756 167.041 34.4928C167.409 34.4101 167.791 34.4038 168.162 34.4744C168.534 34.545 168.887 34.691 169.199 34.9034C169.512 35.1158 169.778 35.3901 169.981 35.7094C170.184 36.0287 170.32 36.3862 170.38 36.76C170.44 37.1338 170.422 37.5159 170.329 37.8827C170.236 38.2496 170.069 38.5935 169.838 38.8933C169.608 39.1931 169.318 39.4424 168.988 39.6258L168.993 39.6531Z" fill="#FF2834"/>
</svg>
