<svg width="278" height="173" viewBox="0 0 278 173" fill="none" xmlns="http://www.w3.org/2000/svg">
<path d="M44.083 84.7227H233.916V128.831H44.083V84.7227Z" fill="#FF4646"/>
<path d="M233.916 128.833C233.916 128.833 216.05 167.916 139 167.916C61.9497 167.916 44.083 128.833 44.083 128.833C44.083 128.833 65.2997 117.666 139 117.666C212.7 117.666 233.916 128.833 233.916 128.833Z" fill="black"/>
<path d="M261.676 46.0695C238.256 19.4214 188.77 5 139 5C89.2296 5 40.3017 19.4214 16.3242 46.0695C1.2685 61.7107 5.17182 74.4554 6.28706 77.9313C14.6513 98.7862 44.205 104 44.205 104C44.205 104 42.8473 85 139 86C235.153 87 233.795 104 233.795 104C233.795 104 263.906 98.7862 271.713 77.9313C272.828 74.4554 276.732 61.7107 261.676 46.0695Z" fill="black"/>
<path d="M253.388 48.6439L253.425 48.6865L253.465 48.7273C260.268 55.8086 262.646 62.0708 263.294 66.7931C263.938 71.4795 262.912 74.8803 262.418 76.4277C259.051 85.3731 250.818 91.173 242.991 94.7789C239.114 96.5651 235.448 97.7601 232.75 98.5079C231.403 98.8811 230.304 99.141 229.549 99.3065C229.469 99.324 229.392 99.3405 229.32 99.356C229.3 99.3447 229.28 99.3333 229.259 99.3218C228.604 98.9551 227.627 98.4624 226.245 97.8872C223.483 96.7374 219.093 95.2526 212.402 93.7827C199.027 90.8447 176.375 87.949 139 87.949C101.625 87.949 78.9733 90.8447 65.5983 93.7827C58.9071 95.2526 54.5169 96.7374 51.7552 97.8872C50.3734 98.4624 49.3963 98.9551 48.7406 99.3218C48.7217 99.3324 48.7031 99.3428 48.6848 99.3532C48.6202 99.3391 48.5524 99.3242 48.4815 99.3084C47.7396 99.1432 46.6594 98.8834 45.3336 98.5105C42.6771 97.7632 39.0601 96.5685 35.2143 94.7822C27.4671 91.1837 19.2037 85.3794 15.5733 76.3996C15.0756 74.8393 14.0663 71.4514 14.7057 66.7931C15.3539 62.0708 17.7317 55.8086 24.5354 48.7273L24.5645 48.697L24.5926 48.6658C35.5617 36.4526 52.3912 26.8922 72.4697 20.3876C92.5209 13.8919 115.643 10.5 139 10.5C162.358 10.5 185.613 13.8921 205.731 20.3884C225.881 26.895 242.693 36.4525 253.388 48.6439Z" stroke="#FF4646" stroke-width="5"/>
<path d="M233.93 116.552V128.835C233.93 128.835 212.703 117.669 138.965 117.669C65.2275 117.669 44 128.835 44 128.835V116.552C54.6137 113.202 81.4274 106.502 138.965 106.502C196.503 106.502 223.875 113.202 233.93 116.552Z" fill="#FFEF00"/>
<path fill-rule="evenodd" clip-rule="evenodd" d="M138.5 107C145.127 107 150.5 101.627 150.5 95C150.5 88.3726 145.127 83 138.5 83C131.873 83 126.5 88.3726 126.5 95C126.5 101.627 131.873 107 138.5 107ZM138.5 100.847C141.729 100.847 144.346 98.2294 144.346 95.0007C144.346 91.7719 141.729 89.1545 138.5 89.1545C135.271 89.1545 132.654 91.7719 132.654 95.0007C132.654 98.2294 135.271 100.847 138.5 100.847Z" fill="#FFF500"/>
</svg>
