<svg width="249" height="249" viewBox="0 0 249 249" fill="none" xmlns="http://www.w3.org/2000/svg">
<path d="M201.535 164.963C201.535 206.216 167.048 239.663 124.5 239.663C81.9523 239.663 47.4658 206.216 47.4658 164.963C47.4658 108.938 118.082 62.2504 118.082 9.33789C134.124 17.1129 159.808 44.6025 159.808 80.9254C159.808 96.4879 156.596 112.05 156.596 112.05C175.856 105.825 175.856 84.0379 175.856 84.0379C175.856 84.0379 201.535 118.275 201.535 164.963Z" fill="#00AFFF"/>
<path d="M123.225 104C123.903 107.268 124.27 110.648 124.27 114.116C124.27 151.895 83.6648 154.802 78.747 185.025C75.205 206.756 87.0325 234.731 122.907 234.731C149.395 234.731 170.858 211.307 170.858 182.416C170.858 153.893 131.236 105.251 123.225 104Z" fill="white"/>
<path d="M124.5 242.775C80.3091 242.775 44.3535 207.871 44.3535 164.962C44.3535 135.568 62.9725 108.906 80.9752 83.1162C98.455 58.0855 114.964 34.4367 114.964 9.33751C114.964 8.26681 115.511 7.26458 116.42 6.69811C117.329 6.13786 118.468 6.06316 119.433 6.53626C137.486 15.2886 162.915 44.1539 162.915 80.925C162.915 90.9037 161.645 100.764 160.686 106.79C172.582 99.5377 172.738 84.2118 172.738 84.0375C172.738 82.6991 173.597 81.5102 174.867 81.0869C176.143 80.6636 177.537 81.0931 178.34 82.17C179.417 83.6017 204.641 117.777 204.641 164.962C204.647 207.871 168.692 242.775 124.5 242.775ZM120.977 14.5416C118.898 39.6844 102.234 63.551 86.0859 86.6831C68.6248 111.676 50.5785 137.529 50.5785 164.962C50.5785 204.435 83.7391 236.55 124.5 236.55C165.262 236.55 198.422 204.435 198.422 164.962C198.422 131.634 184.833 104.524 177.674 92.5409C175.67 100.179 170.559 110.811 157.561 115.013C156.516 115.362 155.351 115.113 154.53 114.372C153.702 113.631 153.335 112.511 153.559 111.421C153.59 111.272 156.702 95.9708 156.702 80.925C156.696 50.0801 136.72 24.6323 120.977 14.5416Z" fill="#00AFFF"/>
</svg>
