<svg width="210" height="249" viewBox="0 0 210 249" fill="none" xmlns="http://www.w3.org/2000/svg">
<path d="M189.755 164.963C189.755 206.216 155.269 239.663 112.721 239.663C99.1069 239.663 86.3184 236.239 75.2208 230.23C51.6346 217.46 35.6863 193.016 35.6863 164.963C35.6863 108.938 106.303 62.2504 106.303 9.33789C122.345 17.1129 148.029 44.6025 148.029 80.9254C148.029 96.4879 144.817 112.05 144.817 112.05C164.077 105.825 164.077 84.0379 164.077 84.0379C164.077 84.0379 189.755 118.275 189.755 164.963Z" fill="#FF2834"/>
<path d="M75.2208 230.23C51.6346 217.46 35.6863 193.016 35.6863 164.963C35.6863 152.042 39.4422 139.618 45.2216 127.5C37.2205 123.5 41.7205 103.5 35.6864 103.5C28.6272 103.5 6.71962 138 22.7211 182.5C41.2398 234 98.2207 241.5 98.2207 241.5L75.2208 230.23Z" fill="#FF2834"/>
<path d="M111.445 105C112.124 108.268 112.491 111.648 112.491 115.116C112.491 152.895 71.8855 155.802 66.9677 186.025C63.4257 207.756 75.2532 235.731 111.128 235.731C137.615 235.731 159.079 212.307 159.079 183.416C159.079 154.893 119.457 106.251 111.445 105Z" fill="#FFFF00"/>
<path d="M97.7544 123.062C97.2055 125.737 96.9084 128.504 96.9084 131.342C96.9084 162.263 129.757 164.643 133.735 189.379C136.601 207.166 128.521 233 99.5 233C78.0726 233 59.2204 210.89 59.2204 187.244C59.2204 163.899 91.2733 124.087 97.7544 123.062Z" fill="#FFFF00"/>
<path d="M112.721 242.775C68.5298 242.775 32.5742 207.871 32.5742 164.962C32.5742 135.568 51.1932 108.906 69.1959 83.1162C86.6757 58.0855 103.184 34.4367 103.184 9.33751C103.184 8.26681 103.732 7.26458 104.641 6.69811C105.55 6.13786 106.689 6.06316 107.654 6.53626C125.706 15.2886 151.136 44.1539 151.136 80.925C151.136 90.9037 149.866 100.764 148.907 106.79C160.803 99.5378 160.959 84.2118 160.959 84.0375C160.959 82.6991 161.818 81.5102 163.088 81.0869C164.364 80.6636 165.758 81.0931 166.561 82.17C167.638 83.6018 192.862 117.777 192.862 164.962C192.868 207.871 156.912 242.775 112.721 242.775ZM109.198 14.5416C107.119 39.6844 90.4543 63.551 74.3066 86.6831C56.8455 111.677 38.7992 137.529 38.7992 164.962C38.7992 204.435 71.9598 236.55 112.721 236.55C153.482 236.55 186.643 204.435 186.643 164.962C186.643 131.634 173.054 104.524 165.895 92.5409C163.891 100.179 158.78 110.811 145.782 115.013C144.736 115.362 143.572 115.113 142.75 114.372C141.923 113.631 141.555 112.511 141.779 111.421C141.811 111.272 144.923 95.9708 144.923 80.925C144.917 50.0801 124.941 24.6323 109.198 14.5416Z" fill="#FF2834"/>
</svg>
