<svg preserveAspectRatio="none" width="332" height="337" viewBox="0 0 332 337" fill="none" xmlns="http://www.w3.org/2000/svg">
    <rect x="5.10742" y="9.07812" width="324" height="324" rx="60" fill="#2896ba"/>
    <path d="M22.4897 40.1266C28.2967 27.5085 40.1024 23.4882 51.7722 19.9368C73.6059 13.2978 124.035 14.8982 126.6 17.4757C129.166 20.0532 99.9148 19.0825 81.9148 21.0825C63.5289 23.1254 47.2335 23.8116 34.1051 36.4734C18.7232 51.3086 23.6128 98.085 18.1072 94.0781C12.6018 90.0713 17.9084 50.0817 22.4897 40.1266Z" fill="white"/>
    <path d="M47.514 322.697C49.0205 326.138 79.2467 327.579 83.6634 325.809C88.0801 324.038 70.8056 317.155 62.6042 317.575C57.2281 318.009 52.0438 319.769 47.514 322.697Z" fill="white"/>
    <path d="M286.991 321.727C289.332 322.922 306.983 309.639 308.703 306.606C310.423 303.573 297.706 307.826 293.269 311.876C290.429 314.62 288.272 318.004 286.991 321.727V321.727Z" fill="white"/>
    <path d="M303.693 32.4612C301.454 31.6449 297.124 25.7616 297.681 25.2095C298.238 24.6574 304.353 28.9606 305.041 30.4311C305.397 31.3703 304.934 32.0678 303.693 32.4612V32.4612Z" fill="white"/>
    <path d="M312.397 300.633C315.685 300.091 322.806 284.059 322.122 281.565C321.438 279.071 312.092 287.772 310.866 292.184C310.2 295.088 310.727 297.991 312.397 300.633V300.633Z" fill="white"/>
    <path d="M317.894 51.6076C316.028 51.5664 309.375 37.0331 309.305 34.5077C309.235 31.9823 315.798 39.0593 317.234 43.1671C318.103 45.8921 318.33 48.7918 317.894 51.6076V51.6076Z" fill="white"/>
    <path d="M39.3392 317.931C27.2247 313.197 20.5707 305.121 16.6162 293.582C10.2686 274.555 11.1235 219.235 13.6104 216.582C16.0974 213.929 17.0762 242.745 18.6072 259.58C19.6073 270.579 20.1074 276.578 24.1072 287.08C28.8897 299.636 43.1554 319.422 39.3392 317.931Z" fill="white"/>
</svg>